SansGuiltWafer.ufo
<glyph name="uni0024" format="1">
  <advance width="458"/>
  <unicode hex="0024"/>
  <outline>
    <contour>
      <point x="196" y="557,953" type="line"/>
      <point x="196" y="588" type="line"/>
      <point x="279" y="588" type="line"/>
      <point x="279" y="568" type="line" smooth="yes"/>
      <point x="279,016" y="559,5"/>
      <point x="279,031" y="559,203"/>
      <point x="279,531" y="557,625" type="curve" smooth="yes"/>
      <point x="280,406" y="557,375"/>
      <point x="280,844" y="557,547"/>
      <point x="284,641" y="556,953" type="curve" smooth="yes"/>
      <point x="316,828" y="551,984"/>
      <point x="369,594" y="532,062"/>
      <point x="390,969" y="516,016" type="curve" smooth="yes"/>
      <point x="404" y="506,547" type="line"/>
      <point x="404" y="456" type="line" smooth="yes"/>
      <point x="404" y="428,875"/>
      <point x="403" y="406,812"/>
      <point x="403" y="406,781" type="curve" smooth="yes"/>
      <point x="398" y="402" type="line"/>
      <point x="396,328" y="402,531"/>
      <point x="396,406" y="402"/>
      <point x="394,625" y="403,031" type="curve" smooth="yes"/>
      <point x="392,125" y="404,469"/>
      <point x="387,781" y="408,422"/>
      <point x="383,531" y="412,391" type="curve" smooth="yes"/>
      <point x="356,688" y="437,5"/>
      <point x="300,625" y="466,328"/>
      <point x="279,453" y="470,484" type="curve"/>
      <point x="279,078" y="460,531"/>
      <point x="279" y="434,906"/>
      <point x="279" y="394,031" type="curve" smooth="yes"/>
      <point x="279,953" y="315,625" type="line"/>
      <point x="288,594" y="312,734" type="line" smooth="yes"/>
      <point x="377,281" y="282,422"/>
      <point x="429,953" y="220,234"/>
      <point x="429,953" y="149,656" type="curve" smooth="yes"/>
      <point x="429,953" y="125,797"/>
      <point x="423,531" y="101,422"/>
      <point x="411,484" y="76,7812" type="curve" smooth="yes"/>
      <point x="389,344" y="31,5156"/>
      <point x="350,094" y="3,32812"/>
      <point x="293,094" y="-8,875" type="curve"/>
      <point x="279,906" y="-11,9844" type="line"/>
      <point x="279" y="-53,0625" type="line"/>
      <point x="279" y="-104" type="line"/>
      <point x="196" y="-104" type="line"/>
      <point x="196" y="-54" type="line" smooth="yes"/>
      <point x="196" y="-36,8594"/>
      <point x="195,922" y="-15,7344"/>
      <point x="194,875" y="-12,0469" type="curve" smooth="yes"/>
      <point x="194,312" y="-11,9531"/>
      <point x="194,094" y="-11,9219"/>
      <point x="194,094" y="-11,9219" type="curve"/>
      <point x="148,609" y="-2,85938"/>
      <point x="102,219" y="13,2656"/>
      <point x="63,6719" y="34,5781" type="curve"/>
      <point x="39,0625" y="46,875" type="line"/>
      <point x="38" y="102,953" type="line"/>
      <point x="38" y="102,953"/>
      <point x="37,9531" y="151,688"/>
      <point x="38,7656" y="156,906" type="curve" smooth="yes"/>
      <point x="39,4688" y="161,516"/>
      <point x="42,9531" y="162"/>
      <point x="44" y="162" type="curve" smooth="yes"/>
      <point x="45,75" y="162" type="line"/>
      <point x="67,125" y="144,891" type="line" smooth="yes"/>
      <point x="97,6562" y="120,484"/>
      <point x="124,312" y="103,469"/>
      <point x="140,031" y="96,5625" type="curve" smooth="yes"/>
      <point x="153,938" y="90,4688"/>
      <point x="182,906" y="80,2656"/>
      <point x="194,734" y="77" type="curve"/>
      <point x="195,078" y="82,8594"/>
      <point x="195,406" y="94,7031"/>
      <point x="195,406" y="116,094" type="curve" smooth="yes"/>
      <point x="195,406" y="128,312"/>
      <point x="195,297" y="143"/>
      <point x="195" y="159,953" type="curve" smooth="yes"/>
      <point x="195" y="245,688" type="line"/>
      <point x="172,234" y="255,328" type="line"/>
      <point x="156,844" y="260,453"/>
      <point x="139,672" y="268,281"/>
      <point x="132,938" y="271,438" type="curve" smooth="yes"/>
      <point x="71,6562" y="300,281"/>
      <point x="40,0156" y="350,641"/>
      <point x="40,0156" y="403,406" type="curve" smooth="yes"/>
      <point x="40,0156" y="470,094"/>
      <point x="91,0625" y="535,812"/>
      <point x="182,922" y="554,875" type="curve"/>
    </contour>
    <contour>
      <point x="199" y="66" type="curve" smooth="yes"/>
      <point x="199,094" y="66"/>
      <point x="199,078" y="66"/>
    </contour>
    <contour>
      <point x="193,859" y="470,688" type="curve"/>
      <point x="191,469" y="470,469"/>
      <point x="188,453" y="468,812"/>
      <point x="179,859" y="465,359" type="curve" smooth="yes"/>
      <point x="149,406" y="453,125"/>
      <point x="133,422" y="429,766"/>
      <point x="133,422" y="407,484" type="curve" smooth="yes"/>
      <point x="133,422" y="394,844"/>
      <point x="138,531" y="382,375"/>
      <point x="149,5" y="371,562" type="curve" smooth="yes"/>
      <point x="158,469" y="362,734"/>
      <point x="184,484" y="348,484"/>
      <point x="194,812" y="343,656" type="curve"/>
      <point x="195,578" y="355,625"/>
      <point x="195,984" y="383,281"/>
      <point x="196" y="406" type="curve" smooth="yes"/>
      <point x="196" y="417,047"/>
      <point x="196,031" y="426,453"/>
      <point x="196,031" y="434,406" type="curve" smooth="yes"/>
      <point x="196,031" y="460,312"/>
      <point x="194,812" y="468,859"/>
    </contour>
    <contour>
      <point x="335" y="142,094" type="curve" smooth="yes"/>
      <point x="335" y="143,219"/>
      <point x="335,062" y="144,406"/>
      <point x="335,062" y="145,469" type="curve" smooth="yes"/>
      <point x="335,062" y="170,297"/>
      <point x="324,453" y="182,406"/>
      <point x="291,266" y="203,812" type="curve" smooth="yes"/>
      <point x="286,641" y="206,797"/>
      <point x="282,453" y="209,172"/>
      <point x="279,375" y="210,812" type="curve"/>
      <point x="278,859" y="195,5"/>
      <point x="279" y="157,188"/>
      <point x="279" y="145" type="curve" smooth="yes"/>
      <point x="279" y="78,6875" type="line"/>
      <point x="281,062" y="79,6094" type="line"/>
      <point x="320,344" y="95,1094"/>
      <point x="334,969" y="117,141"/>
    </contour>
    <contour>
      <point x="299" y="108" type="line"/>
      <point x="289" y="108" type="line"/>
      <point x="289" y="208" type="line"/>
      <point x="299" y="208" type="line"/>
    </contour>
    <contour>
      <point x="183" y="370" type="line"/>
      <point x="173" y="370" type="line"/>
      <point x="173" y="470" type="line"/>
      <point x="183" y="470" type="line"/>
    </contour>
    <contour>
      <point x="392" y="316" type="line"/>
      <point x="382" y="316" type="line"/>
      <point x="382" y="416" type="line"/>
      <point x="392" y="416" type="line"/>
    </contour>
    <contour>
      <point x="412" y="-21" type="line"/>
      <point x="402" y="-21" type="line"/>
      <point x="402" y="79" type="line"/>
      <point x="412" y="79" type="line"/>
    </contour>
    <contour>
      <point x="297" y="-104" type="line"/>
      <point x="287" y="-104" type="line"/>
      <point x="287" y="-4" type="line"/>
      <point x="297" y="-4" type="line"/>
    </contour>
    <contour>
      <point x="242" y="-199" type="line"/>
      <point x="232" y="-199" type="line"/>
      <point x="232" y="-99" type="line"/>
      <point x="242" y="-99" type="line"/>
    </contour>
    <contour>
      <point x="71" y="-61" type="line"/>
      <point x="61" y="-61" type="line"/>
      <point x="61" y="39" type="line"/>
      <point x="71" y="39" type="line"/>
    </contour>
    <contour>
      <point x="179" y="160" type="line"/>
      <point x="169" y="160" type="line"/>
      <point x="169" y="260" type="line"/>
      <point x="179" y="260" type="line"/>
    </contour>
    <contour>
      <point x="140" y="176" type="line"/>
      <point x="130" y="176" type="line"/>
      <point x="130" y="276" type="line"/>
      <point x="140" y="276" type="line"/>
    </contour>
    <contour>
      <point x="50,0156" y="303,406" type="line" smooth="yes"/>
      <point x="50,0156" y="254,25"/>
      <point x="79,7344" y="207,5"/>
      <point x="137,062" y="180,562" type="curve" smooth="yes"/>
      <point x="144,109" y="177,25"/>
      <point x="161,312" y="169,969"/>
      <point x="175,766" y="164,672" type="curve" smooth="yes"/>
      <point x="184,594" y="161,438"/>
      <point x="193,281" y="157,266"/>
      <point x="201,953" y="153,609" type="curve"/>
      <point x="198,047" y="144,391" type="line"/>
      <point x="189,391" y="148,062"/>
      <point x="181,078" y="152,094"/>
      <point x="172,234" y="155,328" type="curve" smooth="yes"/>
      <point x="157" y="160,891"/>
      <point x="139,672" y="168,281"/>
      <point x="132,938" y="171,438" type="curve" smooth="yes"/>
      <point x="71,6562" y="200,281"/>
      <point x="40,0156" y="250,641"/>
      <point x="40,0156" y="303,406" type="curve" smooth="yes"/>
      <point x="40,0156" y="403,406" type="line"/>
      <point x="50,0156" y="403,406" type="line"/>
    </contour>
    <contour>
      <point x="49" y="-46,9062" type="line"/>
      <point x="68,3281" y="-56,5781" type="line"/>
      <point x="104,094" y="-76,3438"/>
      <point x="147,391" y="-91,7656"/>
      <point x="190" y="-100,859" type="curve"/>
      <point x="190" y="-7" type="line"/>
      <point x="200" y="-7" type="line"/>
      <point x="200" y="-107" type="line" smooth="yes"/>
      <point x="200" y="-113,094" type="line"/>
      <point x="194,016" y="-111,906" type="line" smooth="yes"/>
      <point x="148,547" y="-102,812"/>
      <point x="102,359" y="-86,4844"/>
      <point x="63,6719" y="-65,4219" type="curve" smooth="yes"/>
      <point x="56,4688" y="-61,5"/>
      <point x="49,0938" y="-58,1406"/>
      <point x="41,7656" y="-54,4688" type="curve" smooth="yes"/>
      <point x="39" y="-53,0938" type="line"/>
      <point x="39" y="-50" type="line" smooth="yes"/>
      <point x="39" y="50" type="line"/>
      <point x="49" y="50" type="line"/>
    </contour>
    <contour>
      <point x="206" y="-194" type="line"/>
      <point x="269" y="-194" type="line"/>
      <point x="269" y="-99" type="line"/>
      <point x="279" y="-99" type="line"/>
      <point x="279" y="-199" type="line" smooth="yes"/>
      <point x="279" y="-204" type="line"/>
      <point x="274" y="-204" type="line" smooth="yes"/>
      <point x="237" y="-204" type="line" smooth="yes"/>
      <point x="196" y="-204" type="line"/>
      <point x="196" y="-199" type="line" smooth="yes"/>
      <point x="196" y="-99" type="line"/>
      <point x="206" y="-99" type="line"/>
    </contour>
    <contour>
      <point x="280" y="-101,688" type="line"/>
      <point x="290,906" y="-99,125" type="line"/>
      <point x="344,547" y="-87,625"/>
      <point x="381,359" y="-62,0781"/>
      <point x="402,516" y="-18,7812" type="curve" smooth="yes"/>
      <point x="413,938" y="4,57812"/>
      <point x="419,953" y="27,4844"/>
      <point x="419,953" y="49,6562" type="curve" smooth="yes"/>
      <point x="419,953" y="149,656" type="line"/>
      <point x="429,953" y="149,656" type="line"/>
      <point x="429,953" y="49,6562" type="line" smooth="yes"/>
      <point x="429,953" y="25,7969"/>
      <point x="423,531" y="1,42188"/>
      <point x="411,484" y="-23,2188" type="curve" smooth="yes"/>
      <point x="389,344" y="-68,4844"/>
      <point x="350,062" y="-96,5625"/>
      <point x="293,094" y="-108,875" type="curve" smooth="yes"/>
      <point x="287,406" y="-110,109"/>
      <point x="281,812" y="-111,531"/>
      <point x="276,141" y="-112,875" type="curve" smooth="yes"/>
      <point x="270" y="-114,312" type="line"/>
      <point x="270" y="-108" type="line" smooth="yes"/>
      <point x="270" y="-8" type="line"/>
      <point x="280" y="-8" type="line"/>
    </contour>
    <contour>
      <point x="280" y="380,547" type="line"/>
      <point x="306,5" y="376,234"/>
      <point x="366,188" y="342,078"/>
      <point x="390,469" y="319,609" type="curve" smooth="yes"/>
      <point x="393" y="317,188" type="line"/>
      <point x="393" y="407" type="line"/>
      <point x="403" y="407" type="line"/>
      <point x="403" y="307" type="line" smooth="yes"/>
      <point x="403" y="302" type="line"/>
      <point x="398" y="302" type="line" smooth="yes"/>
      <point x="396,656" y="302"/>
      <point x="395,516" y="302,5"/>
      <point x="394,625" y="303,031" type="curve" smooth="yes"/>
      <point x="392,125" y="304,469"/>
      <point x="388,844" y="307,438"/>
      <point x="383,531" y="312,391" type="curve" smooth="yes"/>
      <point x="354,469" y="339,531"/>
      <point x="291,266" y="371"/>
      <point x="275" y="371" type="curve" smooth="yes"/>
      <point x="270" y="371" type="line"/>
      <point x="270" y="376" type="line" smooth="yes"/>
      <point x="270" y="476" type="line"/>
      <point x="280" y="476" type="line"/>
    </contour>
    <contour>
      <point x="176,141" y="374,641" type="curve" smooth="yes"/>
      <point x="185,797" y="378,547"/>
      <point x="188,906" y="380,328"/>
      <point x="193,141" y="380,672" type="curve" smooth="yes"/>
      <point x="193,344" y="380,688"/>
      <point x="190,703" y="380,875"/>
      <point x="194,125" y="380,703" type="curve" smooth="yes"/>
      <point x="196,594" y="380,594"/>
      <point x="199,438" y="380,438"/>
      <point x="202,094" y="376,469" type="curve" smooth="yes"/>
      <point x="203,625" y="374,172"/>
      <point x="204,875" y="370,844"/>
      <point x="205,484" y="362,141" type="curve"/>
      <point x="195,516" y="361,422" type="line"/>
      <point x="195,219" y="365,594"/>
      <point x="194,719" y="369,375"/>
      <point x="193,75" y="370,844" type="curve" smooth="yes"/>
      <point x="194,125" y="370,703" type="line"/>
      <point x="194,203" y="370,703"/>
      <point x="193,953" y="370,703"/>
      <point x="193,938" y="370,703" type="curve" smooth="yes"/>
      <point x="191,531" y="370,5"/>
      <point x="188,531" y="368,875"/>
      <point x="179,859" y="365,359" type="curve" smooth="yes"/>
      <point x="172,656" y="362,438"/>
      <point x="166,234" y="358,938"/>
      <point x="160,656" y="354,953" type="curve"/>
      <point x="154,828" y="363,078" type="line"/>
      <point x="161,094" y="367,562"/>
      <point x="168,234" y="371,438"/>
    </contour>
    <contour>
      <point x="280" y="121,5" type="line"/>
      <point x="284,938" y="119,328"/>
      <point x="292,188" y="115,125"/>
      <point x="296,734" y="112,188" type="curve" smooth="yes"/>
      <point x="305,25" y="106,656"/>
      <point x="312,469" y="101,75"/>
      <point x="318,547" y="96,8594" type="curve"/>
      <point x="312,281" y="89,0625" type="line"/>
      <point x="306,625" y="93,625"/>
      <point x="299,578" y="98,375"/>
      <point x="291,266" y="103,812" type="curve" smooth="yes"/>
      <point x="281,906" y="109,938"/>
      <point x="274,875" y="112,875"/>
      <point x="274,031" y="113,109" type="curve"/>
      <point x="274,141" y="113,078"/>
      <point x="275,281" y="112,938"/>
      <point x="275" y="113" type="curve" smooth="yes"/>
      <point x="270" y="113" type="line"/>
      <point x="270" y="118" type="line" smooth="yes"/>
      <point x="270" y="218" type="line"/>
      <point x="280" y="218" type="line"/>
    </contour>
  </outline>
</glyph>
<glyph name="uni0025" format="1">
  <advance width="570"/>
  <unicode hex="0025"/>
  <outline>
    <contour>
      <point x="269,797" y="327,703" type="curve" smooth="yes"/>
      <point x="437,266" y="590" type="line"/>
      <point x="472,922" y="590" type="line" smooth="yes"/>
      <point x="480,453" y="590,25"/>
      <point x="486,219" y="590,406"/>
      <point x="490,781" y="590,375" type="curve" smooth="yes"/>
      <point x="498,5" y="590,328"/>
      <point x="501,156" y="590,125"/>
      <point x="503,625" y="589,531" type="curve" smooth="yes"/>
      <point x="506,422" y="588,859"/>
      <point x="509,484" y="587"/>
      <point x="509,484" y="583,219" type="curve" smooth="yes"/>
      <point x="509,484" y="583,031"/>
      <point x="509,141" y="582,078"/>
      <point x="508,891" y="581,109" type="curve" smooth="yes"/>
      <point x="508,766" y="580,609"/>
      <point x="508,734" y="580,188"/>
      <point x="508,203" y="579,141" type="curve" smooth="yes"/>
      <point x="502,703" y="568,562"/>
      <point x="419,531" y="439,953"/>
      <point x="319,203" y="283,297" type="curve" smooth="yes"/>
      <point x="130,734" y="-11" type="line"/>
      <point x="51,875" y="-11" type="line"/>
      <point x="79,8281" y="32,75" type="line" smooth="yes"/>
      <point x="92,6562" y="51,5156"/>
      <point x="177,812" y="184,75"/>
    </contour>
    <contour>
      <point x="16,3906" y="453,578" type="curve" smooth="yes"/>
      <point x="16,3906" y="514,141"/>
      <point x="59,125" y="570,984"/>
      <point x="121,891" y="584,875" type="curve" smooth="yes"/>
      <point x="131,406" y="586,984"/>
      <point x="140,797" y="588,172"/>
      <point x="150,094" y="588,172" type="curve" smooth="yes"/>
      <point x="221,781" y="588,172"/>
      <point x="283,516" y="525,547"/>
      <point x="283,516" y="453,75" type="curve" smooth="yes"/>
      <point x="283,516" y="443,891"/>
      <point x="282,391" y="433,828"/>
      <point x="279,844" y="423,781" type="curve" smooth="yes"/>
      <point x="262,438" y="354,938"/>
      <point x="205,875" y="319,562"/>
      <point x="149,609" y="319,562" type="curve" smooth="yes"/>
      <point x="96,125" y="319,562"/>
      <point x="42,375" y="351,547"/>
      <point x="22,2344" y="415,5" type="curve" smooth="yes"/>
      <point x="18,2656" y="428,094"/>
      <point x="16,3906" y="440,922"/>
    </contour>
    <contour>
      <point x="172,938" y="399,562" type="curve" smooth="yes"/>
      <point x="196,484" y="410,312"/>
      <point x="207,891" y="432,531"/>
      <point x="207,891" y="454,516" type="curve" smooth="yes"/>
      <point x="207,891" y="477,594"/>
      <point x="195,297" y="499,734"/>
      <point x="170,375" y="508,281" type="curve" smooth="yes"/>
      <point x="161,641" y="511,266"/>
      <point x="153,469" y="512,781"/>
      <point x="145,922" y="512,781" type="curve" smooth="yes"/>
      <point x="123,062" y="512,781"/>
      <point x="104,938" y="500,141"/>
      <point x="93,5625" y="474,969" type="curve" smooth="yes"/>
      <point x="90,3438" y="467,812"/>
      <point x="89,0938" y="460,609"/>
      <point x="89,0938" y="453,609" type="curve" smooth="yes"/>
      <point x="89,0938" y="423,172"/>
      <point x="116,234" y="394,547"/>
      <point x="149,578" y="394,547" type="curve" smooth="yes"/>
      <point x="157,25" y="394,547"/>
      <point x="165,125" y="395,984"/>
    </contour>
    <contour>
      <point x="286,281" y="122,031" type="curve" smooth="yes"/>
      <point x="286,281" y="180,234"/>
      <point x="327,672" y="236"/>
      <point x="388,672" y="252,812" type="curve" smooth="yes"/>
      <point x="399,578" y="255,828"/>
      <point x="410,469" y="257,266"/>
      <point x="421,188" y="257,266" type="curve" smooth="yes"/>
      <point x="492,578" y="257,266"/>
      <point x="554,672" y="194,484"/>
      <point x="554,672" y="122,406" type="curve" smooth="yes"/>
      <point x="554,672" y="112,312"/>
      <point x="553,469" y="102,047"/>
      <point x="550,844" y="91,7656" type="curve" smooth="yes"/>
      <point x="533,781" y="24,9531"/>
      <point x="477,156" y="-8,75"/>
      <point x="420,875" y="-8,75" type="curve" smooth="yes"/>
      <point x="364,594" y="-8,75"/>
      <point x="307,75" y="24,9375"/>
      <point x="290,156" y="91,7344" type="curve" smooth="yes"/>
      <point x="287,531" y="101,766"/>
      <point x="286,281" y="111,938"/>
    </contour>
    <contour>
      <point x="440,25" y="66,6875" type="curve" smooth="yes"/>
      <point x="466,234" y="76,4531"/>
      <point x="479,625" y="100,125"/>
      <point x="479,625" y="123,5" type="curve" smooth="yes"/>
      <point x="479,625" y="144,328"/>
      <point x="468,906" y="164,234"/>
      <point x="446,859" y="174,484" type="curve" smooth="yes"/>
      <point x="437,797" y="178,703"/>
      <point x="428,641" y="181,078"/>
      <point x="419,75" y="181,078" type="curve" smooth="yes"/>
      <point x="399,031" y="181,078"/>
      <point x="379,953" y="169,672"/>
      <point x="369,406" y="149,656" type="curve" smooth="yes"/>
      <point x="364,5" y="140,312"/>
      <point x="362,062" y="130,922"/>
      <point x="362,062" y="121,797" type="curve" smooth="yes"/>
      <point x="362,062" y="90,6875"/>
      <point x="388,578" y="63"/>
      <point x="420,188" y="63" type="curve" smooth="yes"/>
      <point x="426,688" y="63"/>
      <point x="433,406" y="64,1094"/>
    </contour>
    <contour>
      <point x="454" y="79" type="line"/>
      <point x="444" y="79" type="line"/>
      <point x="444" y="179" type="line"/>
      <point x="454" y="179" type="line"/>
    </contour>
    <contour>
      <point x="370" y="91,5156" type="line"/>
      <point x="360" y="91,5156" type="line"/>
      <point x="360" y="152" type="line"/>
      <point x="370" y="152" type="line"/>
    </contour>
    <contour>
      <point x="177" y="413" type="line"/>
      <point x="167" y="413" type="line"/>
      <point x="167" y="513" type="line"/>
      <point x="177" y="513" type="line"/>
    </contour>
    <contour>
      <point x="94" y="430,094" type="line"/>
      <point x="84" y="430,094" type="line"/>
      <point x="84" y="477" type="line"/>
      <point x="94" y="477" type="line"/>
    </contour>
    <contour>
      <point x="280" y="326,562" type="line"/>
      <point x="270" y="326,562" type="line"/>
      <point x="270" y="425" type="line"/>
      <point x="280" y="425" type="line"/>
    </contour>
    <contour>
      <point x="32" y="317" type="line"/>
      <point x="22" y="317" type="line"/>
      <point x="22" y="417" type="line"/>
      <point x="32" y="417" type="line"/>
    </contour>
    <contour>
      <point x="320" y="195" type="line"/>
      <point x="310" y="195" type="line"/>
      <point x="310" y="286" type="line"/>
      <point x="320" y="286" type="line"/>
    </contour>
    <contour>
      <point x="133" y="-106" type="line"/>
      <point x="123" y="-106" type="line"/>
      <point x="123" y="-6" type="line"/>
      <point x="133" y="-6" type="line"/>
    </contour>
    <contour>
      <point x="99" y="-106" type="line"/>
      <point x="89" y="-106" type="line"/>
      <point x="89" y="-6" type="line"/>
      <point x="99" y="-6" type="line"/>
    </contour>
    <contour>
      <point x="66" y="-101" type="line"/>
      <point x="125,266" y="-101" type="line"/>
      <point x="292,312" y="159,859" type="line"/>
      <point x="300,734" y="154,469" type="line"/>
      <point x="130,734" y="-111" type="line"/>
      <point x="128" y="-111" type="line" smooth="yes"/>
      <point x="94" y="-111" type="line" smooth="yes"/>
      <point x="56" y="-111" type="line"/>
      <point x="56" y="-106" type="line" smooth="yes"/>
      <point x="56" y="-6" type="line"/>
      <point x="66" y="-6" type="line"/>
    </contour>
    <contour>
      <point x="499" y="482" type="curve" smooth="yes"/>
      <point x="499" y="582" type="line"/>
      <point x="509" y="582" type="line"/>
      <point x="509" y="482" type="line" smooth="yes"/>
      <point x="509" y="480,875"/>
      <point x="508,625" y="479,953"/>
      <point x="508,219" y="479,188" type="curve" smooth="yes"/>
      <point x="502,594" y="468,25"/>
      <point x="416,781" y="334,516"/>
      <point x="340,25" y="215,906" type="curve"/>
      <point x="331,859" y="221,328" type="line"/>
      <point x="408,125" y="339,547"/>
      <point x="494,656" y="474,688"/>
      <point x="499,328" y="483,766" type="curve" smooth="yes"/>
      <point x="499,594" y="484,281"/>
      <point x="499" y="482"/>
    </contour>
    <contour>
      <point x="26,3906" y="353,578" type="line" smooth="yes"/>
      <point x="26,3906" y="341,906"/>
      <point x="28,1094" y="330,109"/>
      <point x="31,7656" y="318,5" type="curve" smooth="yes"/>
      <point x="50,6094" y="258,656"/>
      <point x="99,9844" y="229,562"/>
      <point x="149,609" y="229,562" type="curve" smooth="yes"/>
      <point x="175,219" y="229,562"/>
      <point x="200,812" y="237,406"/>
      <point x="222,125" y="252,922" type="curve"/>
      <point x="228,016" y="244,844" type="line"/>
      <point x="204,906" y="228,016"/>
      <point x="177,25" y="219,562"/>
      <point x="149,609" y="219,562" type="curve" smooth="yes"/>
      <point x="96,125" y="219,562"/>
      <point x="42,375" y="251,547"/>
      <point x="22,2344" y="315,5" type="curve" smooth="yes"/>
      <point x="18,2656" y="328,094"/>
      <point x="16,3906" y="340,922"/>
      <point x="16,3906" y="353,578" type="curve" smooth="yes"/>
      <point x="16,3906" y="453,578" type="line"/>
      <point x="26,3906" y="453,578" type="line"/>
    </contour>
    <contour>
      <point x="145,922" y="422,781" type="curve" smooth="yes"/>
      <point x="154,75" y="422,781"/>
      <point x="164" y="421,062"/>
      <point x="173,625" y="417,719" type="curve" smooth="yes"/>
      <point x="180,656" y="415,297"/>
      <point x="186,891" y="411,984"/>
      <point x="192,312" y="407,875" type="curve"/>
      <point x="186,266" y="399,906" type="line"/>
      <point x="181,703" y="403,359"/>
      <point x="176,391" y="406,188"/>
      <point x="170,375" y="408,281" type="curve" smooth="yes"/>
      <point x="161,656" y="411,297"/>
      <point x="153,469" y="412,781"/>
      <point x="145,922" y="412,781" type="curve" smooth="yes"/>
      <point x="132,859" y="412,781"/>
      <point x="121,594" y="408,578"/>
      <point x="112,031" y="400,453" type="curve"/>
      <point x="105,562" y="408,078" type="line"/>
      <point x="117,828" y="418,516"/>
      <point x="131,781" y="422,781"/>
    </contour>
    <contour>
      <point x="300" y="-6,34375" type="line"/>
      <point x="316,578" y="-68,1406"/>
      <point x="368,578" y="-98,75"/>
      <point x="420,875" y="-98,75" type="curve" smooth="yes"/>
      <point x="473,172" y="-98,75"/>
      <point x="524,906" y="-68,1406"/>
      <point x="541" y="-6,35938" type="curve"/>
      <point x="541" y="93" type="line"/>
      <point x="551" y="93" type="line"/>
      <point x="551" y="-7" type="line" smooth="yes"/>
      <point x="551" y="-7,625" type="line"/>
      <point x="550,844" y="-8,23438" type="line" smooth="yes"/>
      <point x="533,75" y="-75,0469"/>
      <point x="477,156" y="-108,75"/>
      <point x="420,875" y="-108,75" type="curve" smooth="yes"/>
      <point x="364,594" y="-108,75"/>
      <point x="307,766" y="-75,0781"/>
      <point x="290,172" y="-8,28125" type="curve" smooth="yes"/>
      <point x="290" y="-7,64062" type="line"/>
      <point x="290" y="-7" type="line" smooth="yes"/>
      <point x="290" y="93" type="line"/>
      <point x="300" y="93" type="line"/>
    </contour>
    <contour>
      <point x="419,75" y="91,0781" type="curve" smooth="yes"/>
      <point x="430,219" y="91,0781"/>
      <point x="440,812" y="88,5312"/>
      <point x="451,141" y="83,5156" type="curve" smooth="yes"/>
      <point x="455,547" y="81,375"/>
      <point x="459,609" y="79,1562"/>
      <point x="463,297" y="76,4531" type="curve"/>
      <point x="457,406" y="68,375" type="line"/>
      <point x="454,281" y="70,6719"/>
      <point x="450,656" y="72,6406"/>
      <point x="446,859" y="74,4844" type="curve" smooth="yes"/>
      <point x="437,875" y="78,8438"/>
      <point x="428,641" y="81,0781"/>
      <point x="419,75" y="81,0781" type="curve" smooth="yes"/>
      <point x="406,734" y="81,0781"/>
      <point x="394,328" y="76,6094"/>
      <point x="384,328" y="68,3281" type="curve"/>
      <point x="377,953" y="76,0312" type="line"/>
      <point x="389,734" y="85,7812"/>
      <point x="404,422" y="91,0781"/>
    </contour>
  </outline>
</glyph>
<glyph name="uni0026" format="1">
  <advance width="528"/>
  <unicode hex="0026"/>
  <outline>
    <contour>
      <point x="29,5156" y="28,0156" type="line" smooth="yes"/>
      <point x="29,5156" y="-42,5625"/>
      <point x="87,2812" y="-101"/>
      <point x="169" y="-101" type="curve" smooth="yes"/>
      <point x="221,956" y="-101"/>
      <point x="276,225" y="-79,0958"/>
      <point x="329" y="-35,6495" type="curve"/>
      <point x="329" y="51,5025" type="line"/>
      <point x="276,845" y="10,2992"/>
      <point x="222,626" y="-11"/>
      <point x="169" y="-11" type="curve" smooth="yes"/>
      <point x="102,85" y="-11"/>
      <point x="50,5315" y="25,6099"/>
      <point x="29,5156" y="76,9019" type="curve"/>
    </contour>
    <contour>
      <point x="297,031" y="429,5" type="curve" smooth="yes"/>
      <point x="297,188" y="430,938"/>
      <point x="297,219" y="432,344"/>
      <point x="297,219" y="433,797" type="curve" smooth="yes"/>
      <point x="297,219" y="449,547"/>
      <point x="289,64" y="465,711"/>
      <point x="277" y="475,767" type="curve"/>
      <point x="277" y="389,439" type="line"/>
      <point x="290,627" y="405,59"/>
      <point x="295,957" y="419,718"/>
    </contour>
    <contour>
      <point x="208,047" y="567,906" type="curve" smooth="yes"/>
      <point x="217,938" y="569,891"/>
      <point x="228,109" y="570,656"/>
      <point x="238,188" y="570,656" type="curve" smooth="yes"/>
      <point x="286,375" y="570,656"/>
      <point x="340,187" y="549,5"/>
      <point x="366,219" y="508,688" type="curve" smooth="yes"/>
      <point x="380,062" y="486,984"/>
      <point x="387,109" y="464,062"/>
      <point x="387,109" y="440,656" type="curve" smooth="yes"/>
      <point x="387,109" y="340,656" type="line" smooth="yes"/>
      <point x="387,109" y="303,059"/>
      <point x="369,149" y="264,828"/>
      <point x="334,659" y="228,194" type="curve"/>
      <point x="356,25" y="203,328" type="line"/>
      <point x="360,297" y="207,344" type="line"/>
      <point x="368,312" y="217,156"/>
      <point x="399,078" y="263,328"/>
      <point x="406,625" y="278,406" type="curve"/>
      <point x="414,172" y="291" type="line"/>
      <point x="509,219" y="291" type="line"/>
      <point x="504" y="277,074" type="line"/>
      <point x="504" y="178" type="line"/>
      <point x="504" y="177" type="line"/>
      <point x="503,609" y="176,078" type="line" smooth="yes"/>
      <point x="493,379" y="151,935"/>
      <point x="475,294" y="119,352"/>
      <point x="455,64" y="89,7563" type="curve"/>
      <point x="470,781" y="72,2656" type="line" smooth="yes"/>
      <point x="497,562" y="41,2969"/>
      <point x="524,673" y="10,3493"/>
      <point x="528,844" y="4,3125" type="curve" smooth="yes"/>
      <point x="529,233" y="3,74906"/>
      <point x="530" y="2,65625"/>
      <point x="530" y="1" type="curve" smooth="yes"/>
      <point x="530" y="-99" type="line"/>
      <point x="525,203" y="-104" type="line" smooth="yes"/>
      <point x="525,156" y="-104"/>
      <point x="500,062" y="-105,203"/>
      <point x="469,953" y="-105" type="curve" smooth="yes"/>
      <point x="451,953" y="-104,875"/>
      <point x="433,906" y="-104,328"/>
      <point x="415,906" y="-104" type="curve" smooth="yes"/>
      <point x="413,656" y="-103,953" type="line"/>
      <point x="412,203" y="-102,25" type="line" smooth="yes"/>
      <point x="401,797" y="-90,125"/>
      <point x="396,25" y="-83,5781"/>
      <point x="388,219" y="-74,2656" type="curve" smooth="yes"/>
      <point x="375,25" y="-59,2344"/>
      <point x="361" y="-42,0625"/>
      <point x="356,469" y="-37,5312" type="curve" smooth="yes"/>
      <point x="355" y="-36,0781" type="line"/>
      <point x="355" y="-34" type="line"/>
      <point x="355" y="-28,0017" type="line"/>
      <point x="347,243" y="-34,0319"/>
      <point x="342,972" y="-37,0636"/>
      <point x="337,141" y="-41,8906" type="curve" smooth="yes"/>
      <point x="282,344" y="-87,25"/>
      <point x="225,422" y="-111"/>
      <point x="169" y="-111" type="curve" smooth="yes"/>
      <point x="82,4062" y="-111"/>
      <point x="19,5156" y="-48,2656"/>
      <point x="19,5156" y="28,0156" type="curve" smooth="yes"/>
      <point x="19,5156" y="128,016" type="line" smooth="yes"/>
      <point x="19,5156" y="144,156"/>
      <point x="22,4531" y="160,812"/>
      <point x="28,2812" y="177,641" type="curve" smooth="yes"/>
      <point x="38,1468" y="206,12"/>
      <point x="67,6712" y="241,089"/>
      <point x="104,546" y="270,097" type="curve"/>
      <point x="94,5499" y="292,775"/>
      <point x="89,2031" y="315,331"/>
      <point x="89,2031" y="336,266" type="curve" smooth="yes"/>
      <point x="89,2031" y="436,266" type="line" smooth="yes"/>
      <point x="89,2031" y="443,359"/>
      <point x="89,7687" y="450,312"/>
      <point x="91,0938" y="456,953" type="curve" smooth="yes"/>
      <point x="103,404" y="518,651"/>
      <point x="141,953" y="554,625"/>
    </contour>
    <contour>
      <point x="206,442" y="134,686" type="line"/>
      <point x="203,213" y="133,273"/>
      <point x="193,442" y="126,365"/>
      <point x="185,906" y="120,938" type="curve" smooth="yes"/>
      <point x="169,339" y="108,992"/>
      <point x="155,721" y="97,4198"/>
      <point x="144,957" y="86,4214" type="curve"/>
      <point x="154,518" y="81,59"/>
      <point x="165,433" y="79,2031"/>
      <point x="177,422" y="79,2031" type="curve" smooth="yes"/>
      <point x="196,248" y="79,2031"/>
      <point x="217,646" y="85,2631"/>
      <point x="239,622" y="97,1899" type="curve"/>
      <point x="220,737" y="119,725"/>
      <point x="208,658" y="132,551"/>
      <point x="208,219" y="132,844" type="curve" smooth="yes"/>
      <point x="207,578" y="133,266" type="line"/>
      <point x="207,094" y="133,875" type="line"/>
    </contour>
    <contour>
      <point x="339" y="-27,7813" type="line"/>
      <point x="347" y="-21,5625" type="line"/>
      <point x="347" y="65,7839" type="line"/>
      <point x="339" y="59,5567" type="line"/>
    </contour>
    <contour>
      <point x="397" y="-69,1557" type="line"/>
      <point x="411" y="-85,4826" type="line"/>
      <point x="411" y="-0,853079" type="line"/>
      <point x="397" y="15,486" type="line"/>
    </contour>
    <contour>
      <point x="387" y="-57,491" type="curve"/>
      <point x="387" y="27,1429" type="line"/>
      <point x="365" y="52,9005" type="line"/>
      <point x="365" y="-31,9844" type="line"/>
      <point x="369,687" y="-36,9783"/>
      <point x="378,04" y="-46,9589"/>
    </contour>
    <contour>
      <point x="421" y="-94,0958" type="line"/>
      <point x="465" y="-94,907" type="line"/>
      <point x="465" y="-4,9079" type="line"/>
      <point x="421" y="-4,08969" type="line"/>
    </contour>
    <contour>
      <point x="475" y="-94,9908" type="line"/>
      <point x="492,369" y="-94,9271"/>
      <point x="509,182" y="-94,5443"/>
      <point x="520" y="-94,1875" type="curve"/>
      <point x="520" y="-4,18199" type="line"/>
      <point x="511,81" y="-4,448"/>
      <point x="494,79" y="-4,9193"/>
      <point x="475" y="-4,9908" type="curve"/>
    </contour>
    <contour>
      <point x="267" y="392,73" type="curve"/>
      <point x="267" y="481,921" type="line"/>
      <point x="257,135" y="486,616"/>
      <point x="247,355" y="488,391"/>
      <point x="238,297" y="488,391" type="curve" smooth="yes"/>
      <point x="208,375" y="488,391"/>
      <point x="185,375" y="466,641"/>
      <point x="185,375" y="436,203" type="curve" smooth="yes"/>
      <point x="185,375" y="429,719"/>
      <point x="186,672" y="422,766"/>
      <point x="188,781" y="415,438" type="curve" smooth="yes"/>
      <point x="191,277" y="406,81"/>
      <point x="196,102" y="396,85"/>
      <point x="201,643" y="387,332" type="curve"/>
      <point x="211,95" y="394,395"/>
      <point x="224,609" y="398,391"/>
      <point x="238,297" y="398,391" type="curve" smooth="yes"/>
      <point x="247,505" y="398,391"/>
      <point x="257,244" y="396,602"/>
    </contour>
    <contour>
      <point x="188" y="134,706" type="line"/>
      <point x="199,013" y="142,496"/>
      <point x="202,171" y="144,266"/>
      <point x="205,719" y="144,797" type="curve" smooth="yes"/>
      <point x="205,786" y="144,807"/>
      <point x="205,882" y="144,831"/>
      <point x="206" y="144,857" type="curve" smooth="yes"/>
      <point x="206" y="234,483" type="line"/>
      <point x="202,744" y="232,875"/>
      <point x="194,825" y="227,357"/>
      <point x="188" y="222,448" type="curve"/>
    </contour>
    <contour>
      <point x="178" y="127,551" type="curve"/>
      <point x="178" y="215,083" type="line"/>
      <point x="125,151" y="175,032"/>
      <point x="114,297" y="147,307"/>
      <point x="114,297" y="129,938" type="curve" smooth="yes"/>
      <point x="114,297" y="118,016"/>
      <point x="119,334" y="107,131"/>
      <point x="130,438" y="96,6406" type="curve" smooth="yes"/>
      <point x="132,291" y="94,8899"/>
      <point x="134,225" y="93,2725"/>
      <point x="136,238" y="91,7879" type="curve"/>
      <point x="147,316" y="103,346"/>
      <point x="161,197" y="115,34"/>
    </contour>
    <contour>
      <point x="216" y="139,183" type="line"/>
      <point x="222,789" y="132,454"/>
      <point x="240,092" y="112,174"/>
      <point x="248,419" y="102,261" type="curve"/>
      <point x="252" y="104,496" type="line"/>
      <point x="252" y="182,236" type="line"/>
      <point x="236,432" y="201,277"/>
      <point x="223,657" y="215,941"/>
      <point x="216" y="224,472" type="curve"/>
    </contour>
    <contour>
      <point x="262" y="111,267" type="line"/>
      <point x="269,247" y="116,46"/>
      <point x="276,484" y="122,274"/>
      <point x="283,641" y="128,703" type="curve" smooth="yes"/>
      <point x="292,016" y="136,391" type="line"/>
      <point x="262" y="170,706" type="line"/>
    </contour>
    <contour>
      <point x="269,127" y="380,851" type="curve"/>
      <point x="258,442" y="386,155"/>
      <point x="248,007" y="388,391"/>
      <point x="238,297" y="388,391" type="curve" smooth="yes"/>
      <point x="226,348" y="388,391"/>
      <point x="215,559" y="384,878"/>
      <point x="206,872" y="378,786" type="curve"/>
      <point x="216,045" y="364,486"/>
      <point x="225,769" y="352,621"/>
      <point x="229,75" y="350,109" type="curve"/>
      <point x="246,517" y="360,601"/>
      <point x="259,37" y="371,005"/>
    </contour>
    <contour>
      <point x="99,2031" y="383,478" type="curve"/>
      <point x="99,2031" y="336,266" type="line" smooth="yes"/>
      <point x="99,2031" y="313,111"/>
      <point x="106,296" y="291,431"/>
      <point x="112,732" y="276,348" type="curve"/>
      <point x="121,343" y="282,729"/>
      <point x="130,288" y="288,756"/>
      <point x="139,422" y="294,281" type="curve" smooth="yes"/>
      <point x="142" y="295,845" type="line"/>
      <point x="142" y="310,206" type="line"/>
      <point x="122,622" y="333,922"/>
      <point x="108,07" y="358,954"/>
    </contour>
    <contour>
      <point x="448,841" y="97,6102" type="line"/>
      <point x="467,365" y="125,727"/>
      <point x="484,492" y="156,463"/>
      <point x="494" y="179" type="curve"/>
      <point x="494" y="255,271" type="line"/>
      <point x="476,819" y="220,945"/>
      <point x="449,993" y="178,477"/>
      <point x="426" y="149,209" type="curve"/>
      <point x="426" y="123,996" type="line"/>
    </contour>
    <contour>
      <point x="416" y="135,547" type="line"/>
      <point x="416" y="136,75" type="line"/>
      <point x="415,5" y="136,125" type="line"/>
    </contour>
    <contour>
      <point x="328,068" y="235,783" type="line"/>
      <point x="360,949" y="270,948"/>
      <point x="377,109" y="306,601"/>
      <point x="377,109" y="340,656" type="curve" smooth="yes"/>
      <point x="377,109" y="391,601" type="line"/>
      <point x="364,423" y="360,322"/>
      <point x="339,8" y="329,266"/>
      <point x="304" y="299,645" type="curve"/>
      <point x="304" y="263,858" type="line"/>
      <point x="326,781" y="237,266" type="line"/>
    </contour>
    <contour>
      <point x="294" y="275,395" type="curve"/>
      <point x="294" y="291,906" type="line"/>
      <point x="285,25" y="285,234" type="line"/>
      <point x="287,672" y="282,391" type="line" smooth="yes"/>
      <point x="288,805" y="281,253"/>
      <point x="291,038" y="278,771"/>
    </contour>
  </outline>
</glyph>
<glyph name="uni0027" format="1">
  <advance width="161"/>
  <unicode hex="0027"/>
  <outline>
    <contour>
      <point x="33" y="551" type="curve" smooth="yes"/>
      <point x="33" y="610" type="line"/>
      <point x="128" y="610" type="line"/>
      <point x="128" y="555" type="line" smooth="yes"/>
      <point x="128" y="505,594"/>
      <point x="121,984" y="449,328"/>
      <point x="109,891" y="393,969" type="curve" smooth="yes"/>
      <point x="109,078" y="390,266"/>
      <point x="107,828" y="387,219"/>
      <point x="102,547" y="385,922" type="curve" smooth="yes"/>
      <point x="98,0625" y="384,828"/>
      <point x="88,5938" y="385"/>
      <point x="79" y="385" type="curve" smooth="yes"/>
      <point x="70,1094" y="385"/>
      <point x="61,0469" y="384,875"/>
      <point x="56,7812" y="385,828" type="curve" smooth="yes"/>
      <point x="51,3438" y="387,031"/>
      <point x="49,9531" y="390,234"/>
      <point x="49,1094" y="393,953" type="curve" smooth="yes"/>
      <point x="39,0781" y="438,484"/>
      <point x="33" y="497,625"/>
    </contour>
    <contour>
      <point x="110" y="295" type="line"/>
      <point x="100" y="295" type="line"/>
      <point x="100" y="395" type="line"/>
      <point x="110" y="395" type="line"/>
    </contour>
    <contour>
      <point x="84" y="290" type="line"/>
      <point x="74" y="290" type="line"/>
      <point x="74" y="390" type="line"/>
      <point x="84" y="390" type="line"/>
    </contour>
    <contour>
      <point x="59" y="295" type="line"/>
      <point x="49" y="295" type="line"/>
      <point x="49" y="395" type="line"/>
      <point x="59" y="395" type="line"/>
    </contour>
    <contour>
      <point x="43" y="451" type="line" smooth="yes"/>
      <point x="43" y="398,375"/>
      <point x="49" y="339,531"/>
      <point x="58,8906" y="296,047" type="curve" smooth="yes"/>
      <point x="59,0938" y="295,156"/>
      <point x="58,8125" y="295,609"/>
      <point x="58,9531" y="295,578" type="curve" smooth="yes"/>
      <point x="60,9062" y="295,141"/>
      <point x="65,1406" y="295"/>
      <point x="79" y="295" type="curve" smooth="yes"/>
      <point x="81,2188" y="295"/>
      <point x="96,0312" y="294,703"/>
      <point x="100,031" y="295,688" type="curve" smooth="yes"/>
      <point x="100,078" y="295,688"/>
      <point x="99,9062" y="295,094"/>
      <point x="100,109" y="296,031" type="curve" smooth="yes"/>
      <point x="112,016" y="350,672"/>
      <point x="118" y="406,406"/>
      <point x="118" y="455" type="curve" smooth="yes"/>
      <point x="118" y="555" type="line"/>
      <point x="128" y="555" type="line"/>
      <point x="128" y="455" type="line" smooth="yes"/>
      <point x="128" y="405,594"/>
      <point x="121,906" y="349,344"/>
      <point x="109,891" y="293,969" type="curve" smooth="yes"/>
      <point x="109,094" y="290,312"/>
      <point x="107,828" y="287,219"/>
      <point x="102,547" y="285,922" type="curve" smooth="yes"/>
      <point x="98,0625" y="284,828"/>
      <point x="88,4219" y="285"/>
      <point x="79" y="285" type="curve" smooth="yes"/>
      <point x="69,7969" y="285"/>
      <point x="61,0469" y="284,875"/>
      <point x="56,7812" y="285,828" type="curve" smooth="yes"/>
      <point x="51,3438" y="287,031"/>
      <point x="49,9688" y="290,172"/>
      <point x="49,1094" y="293,953" type="curve" smooth="yes"/>
      <point x="39" y="338,469"/>
      <point x="33" y="397,625"/>
      <point x="33" y="451" type="curve" smooth="yes"/>
      <point x="33" y="551" type="line"/>
      <point x="43" y="551" type="line"/>
    </contour>
  </outline>
</glyph>
<glyph name="uni0029" format="1">
  <advance width="273"/>
  <unicode hex="0029"/>
  <outline>
    <contour>
      <point x="5" y="582" type="curve" smooth="yes"/>
      <point x="7,5625" y="584,953"/>
      <point x="5,46875" y="586,578"/>
      <point x="10,2969" y="587,406" type="curve" smooth="yes"/>
      <point x="14,5469" y="588,125"/>
      <point x="25,6875" y="588"/>
      <point x="34" y="588" type="curve" smooth="yes"/>
      <point x="60,375" y="588" type="line"/>
      <point x="83,875" y="559,172" type="line" smooth="yes"/>
      <point x="134,719" y="496,766"/>
      <point x="158,422" y="458,219"/>
      <point x="182,625" y="398,891" type="curve" smooth="yes"/>
      <point x="207,25" y="338,547"/>
      <point x="223,578" y="255,969"/>
      <point x="223,578" y="194,047" type="curve" smooth="yes"/>
      <point x="223,578" y="187,328"/>
      <point x="223,375" y="180,859"/>
      <point x="222,984" y="174,688" type="curve" smooth="yes"/>
      <point x="214,938" y="45,9062"/>
      <point x="180,938" y="-38,7656"/>
      <point x="89,0156" y="-159,969" type="curve"/>
      <point x="61,5625" y="-198" type="line"/>
      <point x="34" y="-198" type="line" smooth="yes"/>
      <point x="19,1875" y="-198"/>
      <point x="13,3906" y="-197,922"/>
      <point x="10,2969" y="-197,406" type="curve" smooth="yes"/>
      <point x="5,46875" y="-196,578"/>
      <point x="4,85938" y="-193,062"/>
      <point x="5" y="-192" type="curve" smooth="yes"/>
      <point x="5,15625" y="-190,766"/>
      <point x="4,96875" y="-190,922"/>
      <point x="5,54688" y="-189,562" type="curve" smooth="yes"/>
      <point x="7,0625" y="-185,906"/>
      <point x="14,8281" y="-172,828"/>
      <point x="20,75" y="-163,359" type="curve" smooth="yes"/>
      <point x="57,5625" y="-104,516"/>
      <point x="78,5156" y="-61,9844"/>
      <point x="91,2344" y="-22,4688" type="curve" smooth="yes"/>
      <point x="113,812" y="47,625"/>
      <point x="124,609" y="121,422"/>
      <point x="124,609" y="194,359" type="curve" smooth="yes"/>
      <point x="124,609" y="331,031"/>
      <point x="86,1406" y="464,781"/>
      <point x="13,8906" y="566,156" type="curve" smooth="yes"/>
      <point x="12,9531" y="567,453"/>
      <point x="6,6875" y="576,719"/>
      <point x="5,51562" y="579,594" type="curve" smooth="yes"/>
      <point x="5,15625" y="580,484"/>
      <point x="4,53125" y="581,453"/>
    </contour>
    <contour>
      <point x="23" y="469" type="line"/>
      <point x="13" y="469" type="line"/>
      <point x="13" y="569" type="line"/>
      <point x="23" y="569" type="line"/>
    </contour>
    <contour>
      <point x="90" y="-257" type="line"/>
      <point x="80" y="-257" type="line"/>
      <point x="80" y="-157" type="line"/>
      <point x="90" y="-157" type="line"/>
    </contour>
    <contour>
      <point x="64" y="-293" type="line"/>
      <point x="54" y="-293" type="line"/>
      <point x="54" y="-193" type="line"/>
      <point x="64" y="-193" type="line"/>
    </contour>
    <contour>
      <point x="39" y="-293" type="line"/>
      <point x="29" y="-293" type="line"/>
      <point x="29" y="-193" type="line"/>
      <point x="39" y="-193" type="line"/>
    </contour>
    <contour>
      <point x="15" y="-292" type="curve" smooth="yes"/>
      <point x="15" y="-292,078"/>
      <point x="11,1406" y="-287,406"/>
      <point x="11,9688" y="-287,547" type="curve" smooth="yes"/>
      <point x="13,9688" y="-287,875"/>
      <point x="21,4375" y="-288"/>
      <point x="34" y="-288" type="curve" smooth="yes"/>
      <point x="56,4375" y="-288" type="line"/>
      <point x="80,9844" y="-254,031" type="line"/>
      <point x="171,078" y="-135,219"/>
      <point x="205,047" y="-52,0781"/>
      <point x="213" y="75,1562" type="curve"/>
      <point x="213" y="175" type="line"/>
      <point x="223" y="175" type="line"/>
      <point x="223" y="74,8438" type="line"/>
      <point x="214,953" y="-53,9219"/>
      <point x="180,688" y="-138,578"/>
      <point x="89,0156" y="-259,969" type="curve" smooth="yes"/>
      <point x="80,0938" y="-271,781"/>
      <point x="71,7188" y="-283,922"/>
      <point x="63,0469" y="-295,922" type="curve" smooth="yes"/>
      <point x="61,5625" y="-298" type="line"/>
      <point x="59" y="-298" type="line" smooth="yes"/>
      <point x="34" y="-298" type="line" smooth="yes"/>
      <point x="25,6875" y="-298"/>
      <point x="14,5469" y="-298,125"/>
      <point x="10,2969" y="-297,406" type="curve" smooth="yes"/>
      <point x="5,46875" y="-296,578"/>
      <point x="7,9375" y="-294,594"/>
      <point x="5" y="-292" type="curve"/>
      <point x="5" y="-192" type="line"/>
      <point x="15" y="-192" type="line"/>
      <point x="15" y="-225,328"/>
      <point x="14,9375" y="-258,672"/>
    </contour>
    <contour>
      <point x="15" y="482" type="line"/>
      <point x="14,8281" y="482,594"/>
      <point x="14,6719" y="483,609"/>
      <point x="14,7656" y="483,391" type="curve" smooth="yes"/>
      <point x="15,2812" y="482,156"/>
      <point x="18,9219" y="476,328"/>
      <point x="22,1094" y="471,844" type="curve" smooth="yes"/>
      <point x="86,7656" y="380,922"/>
      <point x="124,656" y="265,375"/>
      <point x="132,906" y="144,688" type="curve"/>
      <point x="122,922" y="144" type="line"/>
      <point x="114,797" y="263,062"/>
      <point x="77,3594" y="377,094"/>
      <point x="13,8906" y="466,156" type="curve" smooth="yes"/>
      <point x="12,9531" y="467,453"/>
      <point x="6,6875" y="476,719"/>
      <point x="5,51562" y="479,594" type="curve" smooth="yes"/>
      <point x="5,42188" y="479,812"/>
      <point x="5" y="481,281"/>
      <point x="5" y="482" type="curve" smooth="yes"/>
      <point x="4,8125" y="515,328"/>
      <point x="5" y="548,672"/>
      <point x="5" y="582" type="curve"/>
      <point x="15" y="582" type="line"/>
    </contour>
  </outline>
</glyph>
<glyph name="uni002A" format="1">
  <advance width="352"/>
  <unicode hex="002A"/>
  <outline>
    <contour>
      <point x="165,594" y="615,812" type="curve" smooth="yes"/>
      <point x="170,516" y="617,203"/>
      <point x="175,031" y="618,5"/>
      <point x="179,469" y="618,5" type="curve" smooth="yes"/>
      <point x="187,719" y="618,5"/>
      <point x="198,453" y="615,453"/>
      <point x="206,391" y="600,375" type="curve" smooth="yes"/>
      <point x="210,219" y="593,125"/>
      <point x="211,031" y="585,781"/>
      <point x="211,031" y="579,531" type="curve" smooth="yes"/>
      <point x="211,031" y="564,922"/>
      <point x="207,344" y="543,109"/>
      <point x="199,906" y="504,031" type="curve" smooth="yes"/>
      <point x="190,719" y="458,984" type="line"/>
      <point x="193,812" y="457,672" type="line" smooth="yes"/>
      <point x="197,297" y="456,562"/>
      <point x="198,969" y="455,875"/>
      <point x="199,828" y="455,453" type="curve" smooth="yes"/>
      <point x="203,234" y="457,953"/>
      <point x="211,422" y="465,047"/>
      <point x="223,562" y="476,641" type="curve" smooth="yes"/>
      <point x="274,984" y="525,75"/>
      <point x="290,969" y="540"/>
      <point x="311" y="540" type="curve" smooth="yes"/>
      <point x="330,031" y="540"/>
      <point x="342,578" y="523,469"/>
      <point x="342,578" y="505,578" type="curve" smooth="yes"/>
      <point x="342,578" y="499,734"/>
      <point x="341,344" y="493,578"/>
      <point x="338,5" y="487,812" type="curve" smooth="yes"/>
      <point x="330,844" y="472,312"/>
      <point x="328,188" y="470,188"/>
      <point x="264,672" y="447,297" type="curve" smooth="yes"/>
      <point x="264,094" y="447,078"/>
      <point x="221,406" y="432,516"/>
      <point x="215,156" y="428,219" type="curve" smooth="yes"/>
      <point x="213,688" y="427,203"/>
      <point x="213,391" y="426,812"/>
      <point x="213,141" y="424,859" type="curve" smooth="yes"/>
      <point x="213,078" y="424,453"/>
      <point x="213,031" y="423,984"/>
      <point x="212,969" y="423,453" type="curve" smooth="yes"/>
      <point x="212,812" y="422"/>
      <point x="212,734" y="421,359"/>
      <point x="212,75" y="420,844" type="curve" smooth="yes"/>
      <point x="212,781" y="419,672"/>
      <point x="213,266" y="419,531"/>
      <point x="214,641" y="418,672" type="curve" smooth="yes"/>
      <point x="218,688" y="416,141"/>
      <point x="225,938" y="413,422"/>
      <point x="251,766" y="403,688" type="curve" smooth="yes"/>
      <point x="294,469" y="387,578"/>
      <point x="321,844" y="376,188"/>
      <point x="329,25" y="369,797" type="curve" smooth="yes"/>
      <point x="338,641" y="361,703"/>
      <point x="342,906" y="351,109"/>
      <point x="342,906" y="341,203" type="curve" smooth="yes"/>
      <point x="342,906" y="323,531"/>
      <point x="329,219" y="307,391"/>
      <point x="309,375" y="307,391" type="curve" smooth="yes"/>
      <point x="305,594" y="307,391"/>
      <point x="301,531" y="307,906"/>
      <point x="297,484" y="309,234" type="curve" smooth="yes"/>
      <point x="281,156" y="314,578"/>
      <point x="268,641" y="324,672"/>
      <point x="230,484" y="362,438" type="curve" smooth="yes"/>
      <point x="211,562" y="381,188"/>
      <point x="203,938" y="388,438"/>
      <point x="199,031" y="391,234" type="curve" smooth="yes"/>
      <point x="198,109" y="391,75"/>
      <point x="198,469" y="391,828"/>
      <point x="197,734" y="391,797" type="curve" smooth="yes"/>
      <point x="197,562" y="391,797"/>
      <point x="197,547" y="391,75"/>
      <point x="197,391" y="391,688" type="curve" smooth="yes"/>
      <point x="197" y="391,516"/>
      <point x="196,484" y="391,234"/>
      <point x="195,359" y="390,594" type="curve" smooth="yes"/>
      <point x="190,688" y="388,25" type="line"/>
      <point x="199,906" y="343,969" type="line" smooth="yes"/>
      <point x="205,578" y="313,516"/>
      <point x="208,547" y="290,031"/>
      <point x="208,547" y="272,281" type="curve" smooth="yes"/>
      <point x="208,547" y="240,922"/>
      <point x="198,719" y="226,641"/>
      <point x="178,422" y="226,641" type="curve" smooth="yes"/>
      <point x="176,469" y="226,641"/>
      <point x="174,406" y="226,75"/>
      <point x="172,344" y="227,047" type="curve" smooth="yes"/>
      <point x="151,375" y="230"/>
      <point x="142,641" y="243,844"/>
      <point x="142,641" y="269,031" type="curve" smooth="yes"/>
      <point x="142,641" y="285,094"/>
      <point x="146,094" y="306,312"/>
      <point x="152,109" y="335,016" type="curve" smooth="yes"/>
      <point x="156,297" y="355,016"/>
      <point x="161,844" y="383,188"/>
      <point x="163,172" y="387,281" type="curve" smooth="yes"/>
      <point x="163,094" y="387,547"/>
      <point x="162,797" y="387,859"/>
      <point x="162,562" y="388,281" type="curve" smooth="yes"/>
      <point x="161,078" y="390,984"/>
      <point x="158,266" y="393,047"/>
      <point x="156,234" y="393,75" type="curve"/>
      <point x="150,266" y="388,734"/>
      <point x="128,938" y="368,281"/>
      <point x="122,391" y="362,328" type="curve" smooth="yes"/>
      <point x="84,0938" y="327,5"/>
      <point x="62,125" y="310,344"/>
      <point x="45,5625" y="308,031" type="curve" smooth="yes"/>
      <point x="44,4688" y="307,875"/>
      <point x="43,1875" y="307,875"/>
      <point x="42,1094" y="307,875" type="curve" smooth="yes"/>
      <point x="23,2969" y="307,875"/>
      <point x="9,3125" y="322,312"/>
      <point x="9,3125" y="339,672" type="curve" smooth="yes"/>
      <point x="9,3125" y="344,672"/>
      <point x="10,5312" y="350,312"/>
      <point x="13,5469" y="356,281" type="curve" smooth="yes"/>
      <point x="22,875" y="374,703"/>
      <point x="41,5156" y="383,812"/>
      <point x="101,375" y="404,719" type="curve" smooth="yes"/>
      <point x="105,875" y="406,297"/>
      <point x="132,859" y="414,906"/>
      <point x="139,797" y="419,031" type="curve" smooth="yes"/>
      <point x="141,656" y="420,141"/>
      <point x="141,969" y="419,859"/>
      <point x="142" y="423,094" type="curve" smooth="yes"/>
      <point x="142" y="424" type="line"/>
      <point x="142" y="424,766" type="line" smooth="yes"/>
      <point x="141,984" y="428,062"/>
      <point x="141,625" y="427,656"/>
      <point x="139,828" y="428,812" type="curve" smooth="yes"/>
      <point x="135,219" y="431,734"/>
      <point x="126,484" y="434,672"/>
      <point x="92,2656" y="447,312" type="curve" smooth="yes"/>
      <point x="64,0625" y="457,719"/>
      <point x="36,8125" y="468,938"/>
      <point x="28,9219" y="475,062" type="curve" smooth="yes"/>
      <point x="17,7188" y="483,75"/>
      <point x="11,0781" y="493,891"/>
      <point x="11,0781" y="505,172" type="curve" smooth="yes"/>
      <point x="11,0781" y="514,047"/>
      <point x="15,0469" y="522,906"/>
      <point x="22,4062" y="530,484" type="curve" smooth="yes"/>
      <point x="31,625" y="539,953"/>
      <point x="39,3281" y="540,625"/>
      <point x="43,5312" y="540,625" type="curve" smooth="yes"/>
      <point x="59,125" y="540,625"/>
      <point x="78,0312" y="526,844"/>
      <point x="121,422" y="485,641" type="curve" smooth="yes"/>
      <point x="142,609" y="465,531"/>
      <point x="151,156" y="458,109"/>
      <point x="156,125" y="455,641" type="curve" smooth="yes"/>
      <point x="156,938" y="455,234"/>
      <point x="156,484" y="455,188"/>
      <point x="157,281" y="455,219" type="curve" smooth="yes"/>
      <point x="157,453" y="455,219"/>
      <point x="157,484" y="455,266"/>
      <point x="157,641" y="455,344" type="curve" smooth="yes"/>
      <point x="158,031" y="455,5"/>
      <point x="158,312" y="455,672"/>
      <point x="159,438" y="456,297" type="curve" smooth="yes"/>
      <point x="161,438" y="457,406"/>
      <point x="162,438" y="457,828"/>
      <point x="162,75" y="458,031" type="curve" smooth="yes"/>
      <point x="162,844" y="458,516"/>
      <point x="162,922" y="458,047"/>
      <point x="162,922" y="459,25" type="curve" smooth="yes"/>
      <point x="162,922" y="464,188"/>
      <point x="161,094" y="473,375"/>
      <point x="153,094" y="514,031" type="curve" smooth="yes"/>
      <point x="146,828" y="545,859"/>
      <point x="143,016" y="565,453"/>
      <point x="143,016" y="578,312" type="curve" smooth="yes"/>
      <point x="143,016" y="587,969"/>
      <point x="144,703" y="594,312"/>
      <point x="149,734" y="602,609" type="curve" smooth="yes"/>
      <point x="153,609" y="608,984"/>
      <point x="158,766" y="613,875"/>
    </contour>
    <contour>
      <point x="200" y="452,031" type="line"/>
      <point x="190" y="452,031" type="line"/>
      <point x="190" y="505" type="line"/>
      <point x="200" y="505" type="line"/>
    </contour>
    <contour>
      <point x="268" y="394,031" type="line"/>
      <point x="258" y="394,031" type="line"/>
      <point x="258" y="452" type="line"/>
      <point x="268" y="452" type="line"/>
    </contour>
    <contour>
      <point x="213" y="418,844" type="line"/>
      <point x="203" y="418,844" type="line"/>
      <point x="203" y="424" type="line"/>
      <point x="213" y="424" type="line"/>
    </contour>
    <contour>
      <point x="304" y="214" type="line"/>
      <point x="294" y="214" type="line"/>
      <point x="294" y="314" type="line"/>
      <point x="304" y="314" type="line"/>
    </contour>
    <contour>
      <point x="239" y="266" type="line"/>
      <point x="229" y="266" type="line"/>
      <point x="229" y="366" type="line"/>
      <point x="239" y="366" type="line"/>
    </contour>
    <contour>
      <point x="198" y="352,594" type="line"/>
      <point x="188" y="352,594" type="line"/>
      <point x="188" y="395" type="line"/>
      <point x="198" y="395" type="line"/>
    </contour>
    <contour>
      <point x="178" y="132" type="line"/>
      <point x="168" y="132" type="line"/>
      <point x="168" y="232" type="line"/>
      <point x="178" y="232" type="line"/>
    </contour>
    <contour>
      <point x="160" y="324,5" type="line"/>
      <point x="150" y="324,5" type="line"/>
      <point x="150" y="399" type="line"/>
      <point x="160" y="399" type="line"/>
    </contour>
    <contour>
      <point x="124" y="266" type="line"/>
      <point x="114" y="266" type="line"/>
      <point x="114" y="366" type="line"/>
      <point x="124" y="366" type="line"/>
    </contour>
    <contour>
      <point x="50" y="213" type="line"/>
      <point x="40" y="213" type="line"/>
      <point x="40" y="313" type="line"/>
      <point x="50" y="313" type="line"/>
    </contour>
    <contour>
      <point x="99" y="396,828" type="line"/>
      <point x="89" y="396,828" type="line"/>
      <point x="89" y="452" type="line"/>
      <point x="99" y="452" type="line"/>
    </contour>
    <contour>
      <point x="163" y="450,266" type="line"/>
      <point x="153" y="450,266" type="line"/>
      <point x="153" y="515" type="line"/>
      <point x="163" y="515" type="line"/>
    </contour>
    <contour>
      <point x="153,016" y="478,312" type="line" smooth="yes"/>
      <point x="153,016" y="472,609"/>
      <point x="153,891" y="464,938"/>
      <point x="155,766" y="453,875" type="curve"/>
      <point x="145,906" y="452,203" type="line"/>
      <point x="144" y="463,5"/>
      <point x="143,016" y="471,609"/>
      <point x="143,016" y="478,312" type="curve" smooth="yes"/>
      <point x="143,016" y="578,312" type="line"/>
      <point x="153,016" y="578,312" type="line"/>
    </contour>
    <contour>
      <point x="37" y="381,562" type="line"/>
      <point x="38,1875" y="380,812"/>
      <point x="39,7812" y="379,922"/>
      <point x="41,9062" y="378,844" type="curve"/>
      <point x="37,3906" y="369,922" type="line"/>
      <point x="32,9062" y="372,203"/>
      <point x="30,3281" y="373,891"/>
      <point x="28,7969" y="375,156" type="curve" smooth="yes"/>
      <point x="27" y="376,656" type="line"/>
      <point x="27" y="379" type="line" smooth="yes"/>
      <point x="27" y="479" type="line"/>
      <point x="37" y="479" type="line"/>
    </contour>
    <contour>
      <point x="19,3125" y="239,672" type="line" smooth="yes"/>
      <point x="19,3125" y="227,719"/>
      <point x="28,4844" y="217,875"/>
      <point x="42,1094" y="217,875" type="curve" smooth="yes"/>
      <point x="42,8906" y="217,875"/>
      <point x="43,6094" y="217,844"/>
      <point x="44,4375" y="217,969" type="curve" smooth="yes"/>
      <point x="55,75" y="219,547"/>
      <point x="71,8281" y="230,172"/>
      <point x="115,625" y="269,688" type="curve"/>
      <point x="146,328" y="298,359" type="line"/>
      <point x="153,156" y="291,062" type="line"/>
      <point x="122,375" y="262,312" type="line" smooth="yes"/>
      <point x="83,9531" y="227,641"/>
      <point x="62,125" y="210,344"/>
      <point x="45,5625" y="208,031" type="curve" smooth="yes"/>
      <point x="44,4844" y="207,875"/>
      <point x="43,1562" y="207,875"/>
      <point x="42,1094" y="207,875" type="curve" smooth="yes"/>
      <point x="23,2969" y="207,875"/>
      <point x="9,3125" y="222,312"/>
      <point x="9,3125" y="239,672" type="curve" smooth="yes"/>
      <point x="9,3125" y="339,672" type="line"/>
      <point x="19,3125" y="339,672" type="line"/>
    </contour>
    <contour>
      <point x="152,641" y="169,031" type="line" smooth="yes"/>
      <point x="152,641" y="147,891"/>
      <point x="158,516" y="139,094"/>
      <point x="173,656" y="136,953" type="curve" smooth="yes"/>
      <point x="175,375" y="136,719"/>
      <point x="176,938" y="136,641"/>
      <point x="178,422" y="136,641" type="curve" smooth="yes"/>
      <point x="190,5" y="136,641"/>
      <point x="198,547" y="143,766"/>
      <point x="198,547" y="172,281" type="curve" smooth="yes"/>
      <point x="198,547" y="272,281" type="line"/>
      <point x="208,547" y="272,281" type="line"/>
      <point x="208,547" y="172,281" type="line" smooth="yes"/>
      <point x="208,547" y="140,922"/>
      <point x="198,75" y="126,641"/>
      <point x="178,422" y="126,641" type="curve" smooth="yes"/>
      <point x="176,469" y="126,641"/>
      <point x="174,406" y="126,75"/>
      <point x="172,344" y="127,047" type="curve" smooth="yes"/>
      <point x="151,375" y="130"/>
      <point x="142,641" y="143,844"/>
      <point x="142,641" y="169,031" type="curve" smooth="yes"/>
      <point x="142,641" y="269,031" type="line"/>
      <point x="152,641" y="269,031" type="line"/>
    </contour>
    <contour>
      <point x="237,516" y="269,562" type="curve" smooth="yes"/>
      <point x="275,719" y="231,672"/>
      <point x="286,797" y="223,266"/>
      <point x="300,516" y="218,766" type="curve" smooth="yes"/>
      <point x="303,688" y="217,719"/>
      <point x="306,625" y="217,391"/>
      <point x="309,375" y="217,391" type="curve" smooth="yes"/>
      <point x="323,484" y="217,391"/>
      <point x="332,906" y="228,516"/>
      <point x="332,906" y="241,203" type="curve" smooth="yes"/>
      <point x="332,906" y="341,203" type="line"/>
      <point x="342,906" y="341,203" type="line"/>
      <point x="342,906" y="241,203" type="line" smooth="yes"/>
      <point x="342,906" y="223,531"/>
      <point x="329,219" y="207,391"/>
      <point x="309,375" y="207,391" type="curve" smooth="yes"/>
      <point x="305,594" y="207,391"/>
      <point x="301,531" y="207,906"/>
      <point x="297,484" y="209,234" type="curve" smooth="yes"/>
      <point x="281,156" y="214,578"/>
      <point x="268,641" y="224,688"/>
      <point x="230,484" y="262,438" type="curve" smooth="yes"/>
      <point x="209,453" y="283,25"/>
      <point x="203,531" y="288,406"/>
      <point x="199,562" y="290,906" type="curve"/>
      <point x="204,906" y="299,375" type="line"/>
      <point x="210,922" y="295,562"/>
      <point x="222,406" y="284,547"/>
    </contour>
    <contour>
      <point x="329" y="391,188" type="curve"/>
      <point x="329" y="490" type="line"/>
      <point x="339" y="490" type="line"/>
      <point x="339" y="390" type="line" smooth="yes"/>
      <point x="339" y="388,812" type="line"/>
      <point x="338,469" y="387,766" type="line" smooth="yes"/>
      <point x="334,797" y="380,422"/>
      <point x="332,406" y="374,984"/>
      <point x="317,531" y="367,766" type="curve"/>
      <point x="313,156" y="376,766" type="line"/>
      <point x="324,109" y="382,078"/>
      <point x="326,391" y="385,984"/>
    </contour>
  </outline>
</glyph>
<glyph name="uni002D" format="1">
  <advance width="274"/>
  <unicode hex="002D"/>
  <outline>
    <contour>
      <point x="29" y="141" type="line"/>
      <point x="29" y="234" type="line"/>
      <point x="246" y="234" type="line"/>
      <point x="246" y="141" type="line"/>
    </contour>
    <contour>
      <point x="142" y="46" type="line"/>
      <point x="132" y="46" type="line"/>
      <point x="132" y="146" type="line"/>
      <point x="142" y="146" type="line"/>
    </contour>
    <contour>
      <point x="39" y="51" type="line"/>
      <point x="236" y="51" type="line"/>
      <point x="236" y="146" type="line"/>
      <point x="246" y="146" type="line"/>
      <point x="246" y="46" type="line" smooth="yes"/>
      <point x="246" y="41" type="line"/>
      <point x="241" y="41" type="line" smooth="yes"/>
      <point x="137" y="41" type="line" smooth="yes"/>
      <point x="34" y="41" type="line" smooth="yes"/>
      <point x="29" y="41" type="line"/>
      <point x="29" y="46" type="line" smooth="yes"/>
      <point x="29" y="146" type="line"/>
      <point x="39" y="146" type="line"/>
    </contour>
  </outline>
</glyph>
<glyph name="uni002E" format="1">
  <advance width="187"/>
  <unicode hex="002E"/>
  <outline>
    <contour>
      <point x="37,6406" y="42,875" type="curve" smooth="yes"/>
      <point x="37,6406" y="65,7188"/>
      <point x="51,3281" y="86,0938"/>
      <point x="73,2188" y="94,6719" type="curve" smooth="yes"/>
      <point x="79,5312" y="97,1562"/>
      <point x="86,0938" y="98,1094"/>
      <point x="92,3281" y="98,1094" type="curve" smooth="yes"/>
      <point x="122,984" y="98,1094"/>
      <point x="148,938" y="72,4375"/>
      <point x="148,938" y="42,6094" type="curve" smooth="yes"/>
      <point x="148,938" y="35,8281"/>
      <point x="147,453" y="28,9531"/>
      <point x="144,609" y="22,0625" type="curve" smooth="yes"/>
      <point x="135,359" y="-0,40625"/>
      <point x="113,828" y="-11,4062"/>
      <point x="92,7656" y="-11,4062" type="curve" smooth="yes"/>
      <point x="70,4375" y="-11,4062"/>
      <point x="47,6094" y="1"/>
      <point x="40,2031" y="25,5625" type="curve" smooth="yes"/>
      <point x="38,4531" y="31,375"/>
      <point x="37,6406" y="37,2188"/>
    </contour>
    <contour>
      <point x="50" y="-72,2344" type="line"/>
      <point x="56,1719" y="-91,5"/>
      <point x="74,0938" y="-101,406"/>
      <point x="92,7656" y="-101,406" type="curve" smooth="yes"/>
      <point x="110,281" y="-101,406"/>
      <point x="127,422" y="-92,6562"/>
      <point x="135" y="-75" type="curve"/>
      <point x="135" y="24" type="line"/>
      <point x="145" y="24" type="line"/>
      <point x="145" y="-76" type="line" smooth="yes"/>
      <point x="145" y="-76,9688" type="line"/>
      <point x="144,641" y="-77,875" type="line" smooth="yes"/>
      <point x="135,516" y="-100,406"/>
      <point x="113,828" y="-111,406"/>
      <point x="92,7656" y="-111,406" type="curve" smooth="yes"/>
      <point x="70,4375" y="-111,406"/>
      <point x="47,6406" y="-99"/>
      <point x="40,2188" y="-74,4531" type="curve" smooth="yes"/>
      <point x="40" y="-73,7344" type="line"/>
      <point x="40" y="-73" type="line" smooth="yes"/>
      <point x="40" y="27" type="line"/>
      <point x="50" y="27" type="line"/>
    </contour>
  </outline>
</glyph>
<glyph name="uni0030" format="1">
  <advance width="421"/>
  <unicode hex="0030"/>
  <outline>
    <contour>
      <point x="191,359" y="586,953" type="curve" smooth="yes"/>
      <point x="197,984" y="587,812"/>
      <point x="204,531" y="588,219"/>
      <point x="210,969" y="588,219" type="curve" smooth="yes"/>
      <point x="322,625" y="588,219"/>
      <point x="400,984" y="464"/>
      <point x="401" y="291,016" type="curve" smooth="yes"/>
      <point x="401" y="289,594"/>
      <point x="401,016" y="288,203"/>
      <point x="401,016" y="286,781" type="curve" smooth="yes"/>
      <point x="401,016" y="139,031"/>
      <point x="348,719" y="32,1875"/>
      <point x="255,766" y="-2,67188" type="curve" smooth="yes"/>
      <point x="241,906" y="-7,875"/>
      <point x="227,328" y="-10,4688"/>
      <point x="212,5" y="-10,4688" type="curve" smooth="yes"/>
      <point x="154,312" y="-10,4688"/>
      <point x="93,0312" y="27,4219"/>
      <point x="63,5312" y="85,75" type="curve" smooth="yes"/>
      <point x="34,875" y="142,406"/>
      <point x="20,875" y="214,734"/>
      <point x="20,875" y="286,703" type="curve" smooth="yes"/>
      <point x="20,875" y="358,031"/>
      <point x="34,9844" y="428,875"/>
      <point x="62,5312" y="484,219" type="curve" smooth="yes"/>
      <point x="88,1875" y="535,797"/>
      <point x="142,906" y="580,656"/>
    </contour>
    <contour>
      <point x="301,047" y="357,328" type="curve" smooth="yes"/>
      <point x="291,078" y="431,812"/>
      <point x="269,156" y="475,734"/>
      <point x="235,734" y="492,547" type="curve" smooth="yes"/>
      <point x="227,516" y="496,672"/>
      <point x="219,609" y="498,172"/>
      <point x="212,703" y="498,172" type="curve" smooth="yes"/>
      <point x="190,391" y="498,172"/>
      <point x="166,375" y="483,328"/>
      <point x="149,219" y="456,312" type="curve" smooth="yes"/>
      <point x="132" y="429,188"/>
      <point x="114,906" y="371,156"/>
      <point x="114,906" y="287,594" type="curve" smooth="yes"/>
      <point x="114,906" y="245,719"/>
      <point x="119,266" y="202,969"/>
      <point x="128,844" y="166,25" type="curve" smooth="yes"/>
      <point x="143,875" y="108,578"/>
      <point x="177,125" y="77,6094"/>
      <point x="209,688" y="77,6094" type="curve" smooth="yes"/>
      <point x="225,469" y="77,6094"/>
      <point x="241,906" y="84,6094"/>
      <point x="257,422" y="100,5" type="curve" smooth="yes"/>
      <point x="287,219" y="130,969"/>
      <point x="306,094" y="199,547"/>
      <point x="306,094" y="282,672" type="curve" smooth="yes"/>
      <point x="306,094" y="306,891"/>
      <point x="304,438" y="332,031"/>
    </contour>
    <contour>
      <point x="311" y="258" type="line"/>
      <point x="301" y="258" type="line"/>
      <point x="301" y="358" type="line"/>
      <point x="311" y="358" type="line"/>
    </contour>
    <contour>
      <point x="243" y="397" type="line"/>
      <point x="233" y="397" type="line"/>
      <point x="233" y="497" type="line"/>
      <point x="243" y="497" type="line"/>
    </contour>
    <contour>
      <point x="150" y="359" type="line"/>
      <point x="140" y="359" type="line"/>
      <point x="140" y="459" type="line"/>
      <point x="150" y="459" type="line"/>
    </contour>
    <contour>
      <point x="259" y="-98" type="line"/>
      <point x="249" y="-98" type="line"/>
      <point x="249" y="2" type="line"/>
      <point x="259" y="2" type="line"/>
    </contour>
    <contour>
      <point x="73" y="-12" type="line"/>
      <point x="63" y="-12" type="line"/>
      <point x="63" y="88" type="line"/>
      <point x="73" y="88" type="line"/>
    </contour>
    <contour>
      <point x="30,875" y="186,703" type="line" smooth="yes"/>
      <point x="30,875" y="116,047"/>
      <point x="44,75" y="45,0469"/>
      <point x="72,4688" y="-9,75" type="curve" smooth="yes"/>
      <point x="99,2969" y="-62,7969"/>
      <point x="156,484" y="-100,469"/>
      <point x="212,5" y="-100,469" type="curve" smooth="yes"/>
      <point x="226,219" y="-100,469"/>
      <point x="239,609" y="-98,0625"/>
      <point x="252,234" y="-93,3281" type="curve" smooth="yes"/>
      <point x="339,469" y="-60,6094"/>
      <point x="391,016" y="40,9844"/>
      <point x="391,016" y="186,781" type="curve" smooth="yes"/>
      <point x="391,016" y="286,781" type="line"/>
      <point x="401,016" y="286,781" type="line"/>
      <point x="401,016" y="186,781" type="line" smooth="yes"/>
      <point x="401,016" y="39,0312"/>
      <point x="348,719" y="-67,8125"/>
      <point x="255,766" y="-102,672" type="curve" smooth="yes"/>
      <point x="241,906" y="-107,875"/>
      <point x="227,328" y="-110,469"/>
      <point x="212,5" y="-110,469" type="curve" smooth="yes"/>
      <point x="154,312" y="-110,469"/>
      <point x="93,0312" y="-72,5781"/>
      <point x="63,5312" y="-14,25" type="curve" smooth="yes"/>
      <point x="34,875" y="42,4062"/>
      <point x="20,875" y="114,734"/>
      <point x="20,875" y="186,703" type="curve" smooth="yes"/>
      <point x="20,875" y="286,703" type="line"/>
      <point x="30,875" y="286,703" type="line"/>
    </contour>
    <contour>
      <point x="140,781" y="361,688" type="curve" smooth="yes"/>
      <point x="159,266" y="390,781"/>
      <point x="185,891" y="408,172"/>
      <point x="212,703" y="408,172" type="curve" smooth="yes"/>
      <point x="222,141" y="408,172"/>
      <point x="231,438" y="405,891"/>
      <point x="240,266" y="401,453" type="curve" smooth="yes"/>
      <point x="285,703" y="378,625"/>
      <point x="303,172" y="316,922"/>
      <point x="310,953" y="258,672" type="curve" smooth="yes"/>
      <point x="312,062" y="250,391"/>
      <point x="313" y="242,156"/>
      <point x="313,75" y="233,938" type="curve"/>
      <point x="303,797" y="233,031" type="line"/>
      <point x="303,062" y="241,094"/>
      <point x="302,125" y="249,203"/>
      <point x="301,047" y="257,328" type="curve" smooth="yes"/>
      <point x="291,094" y="331,812"/>
      <point x="269,156" y="375,734"/>
      <point x="235,734" y="392,547" type="curve" smooth="yes"/>
      <point x="227,516" y="396,672"/>
      <point x="219,609" y="398,172"/>
      <point x="212,703" y="398,172" type="curve" smooth="yes"/>
      <point x="190,391" y="398,172"/>
      <point x="166,359" y="383,344"/>
      <point x="149,219" y="356,312" type="curve" smooth="yes"/>
      <point x="136,594" y="336,406"/>
      <point x="122,5" y="297,984"/>
      <point x="117,062" y="237" type="curve"/>
      <point x="107,094" y="237,891" type="line"/>
      <point x="108,25" y="250,844"/>
      <point x="114,5" y="320,328"/>
    </contour>
  </outline>
</glyph>
<glyph name="uni0035" format="1">
  <advance width="424"/>
  <unicode hex="0035"/>
  <outline>
    <contour>
      <point x="89,9531" y="270,859" type="curve" smooth="yes"/>
      <point x="85,1562" y="271,062"/>
      <point x="83,6719" y="274,469"/>
      <point x="82,9531" y="277,75" type="curve" smooth="yes"/>
      <point x="80,75" y="287,812"/>
      <point x="81" y="332,156"/>
      <point x="81" y="426" type="curve" smooth="yes"/>
      <point x="81" y="582" type="line"/>
      <point x="349" y="582" type="line"/>
      <point x="349" y="497" type="line"/>
      <point x="168" y="497" type="line"/>
      <point x="168" y="364" type="line"/>
      <point x="176" y="364" type="line" smooth="yes"/>
      <point x="234,594" y="364"/>
      <point x="302,703" y="337,203"/>
      <point x="332,875" y="300,156" type="curve" smooth="yes"/>
      <point x="362,031" y="264,359"/>
      <point x="376,5" y="220,219"/>
      <point x="376,5" y="176,172" type="curve" smooth="yes"/>
      <point x="376,5" y="138,781"/>
      <point x="365,75" y="101,312"/>
      <point x="344,188" y="68,2656" type="curve" smooth="yes"/>
      <point x="310,688" y="16,9062"/>
      <point x="246,219" y="-10,3281"/>
      <point x="175,516" y="-10,3281" type="curve" smooth="yes"/>
      <point x="136,328" y="-10,3281"/>
      <point x="95,2344" y="-1,75"/>
      <point x="55,9844" y="15,4219" type="curve" smooth="yes"/>
      <point x="37" y="23,7344" type="line"/>
      <point x="37" y="71" type="line" smooth="yes"/>
      <point x="37" y="105,969"/>
      <point x="38,4219" y="110,422"/>
      <point x="39,0469" y="114,719" type="curve" smooth="yes"/>
      <point x="39,6719" y="119" type="line"/>
      <point x="44" y="119" type="line" smooth="yes"/>
      <point x="45,5938" y="118,656"/>
      <point x="45,6875" y="118,75"/>
      <point x="45,8594" y="118,688" type="curve" smooth="yes"/>
      <point x="49,2812" y="117,609"/>
      <point x="59,9375" y="111,766"/>
      <point x="68,3281" y="107,422" type="curve" smooth="yes"/>
      <point x="90,75" y="95,8281"/>
      <point x="128,156" y="80,3438"/>
      <point x="168,094" y="80,3438" type="curve" smooth="yes"/>
      <point x="200,188" y="80,3438"/>
      <point x="227,891" y="90,375"/>
      <point x="249,594" y="110,656" type="curve" smooth="yes"/>
      <point x="271,047" y="130,703"/>
      <point x="280,703" y="154,094"/>
      <point x="280,703" y="176,969" type="curve" smooth="yes"/>
      <point x="280,703" y="218,609"/>
      <point x="248,219" y="259,766"/>
      <point x="189,812" y="274,141" type="curve" smooth="yes"/>
      <point x="179,766" y="276,625"/>
      <point x="164,875" y="277,859"/>
      <point x="149,328" y="277,859" type="curve" smooth="yes"/>
      <point x="128,609" y="277,859"/>
      <point x="106,469" y="275,531"/>
      <point x="92,4688" y="271,219" type="curve" smooth="yes"/>
      <point x="92,2344" y="271,141" type="line"/>
      <point x="91,9844" y="271,094" type="line" smooth="yes"/>
      <point x="92,2812" y="271,156"/>
      <point x="90,2188" y="270,859"/>
    </contour>
    <contour>
      <point x="196" y="179" type="line"/>
      <point x="186" y="179" type="line"/>
      <point x="186" y="279" type="line"/>
      <point x="196" y="279" type="line"/>
    </contour>
    <contour>
      <point x="258" y="402" type="line"/>
      <point x="248" y="402" type="line"/>
      <point x="248" y="502" type="line"/>
      <point x="258" y="502" type="line"/>
    </contour>
    <contour>
      <point x="63" y="-80" type="line"/>
      <point x="53" y="-80" type="line"/>
      <point x="53" y="20" type="line"/>
      <point x="63" y="20" type="line"/>
    </contour>
    <contour>
      <point x="47" y="-69,7344" type="line"/>
      <point x="60,0156" y="-75,4219" type="line" smooth="yes"/>
      <point x="97,875" y="-92,25"/>
      <point x="137,734" y="-100,328"/>
      <point x="175,516" y="-100,328" type="curve" smooth="yes"/>
      <point x="243,781" y="-100,328"/>
      <point x="304,75" y="-73,875"/>
      <point x="335,812" y="-26,2656" type="curve" smooth="yes"/>
      <point x="356,297" y="5,125"/>
      <point x="366,5" y="40,6719"/>
      <point x="366,5" y="76,1719" type="curve" smooth="yes"/>
      <point x="366,5" y="176,172" type="line"/>
      <point x="376,5" y="176,172" type="line"/>
      <point x="376,5" y="76,1719" type="line" smooth="yes"/>
      <point x="376,5" y="38,7812"/>
      <point x="365,75" y="1,3125"/>
      <point x="344,188" y="-31,7344" type="curve" smooth="yes"/>
      <point x="310,688" y="-83,0938"/>
      <point x="246,219" y="-110,328"/>
      <point x="175,516" y="-110,328" type="curve" smooth="yes"/>
      <point x="136,328" y="-110,328"/>
      <point x="95,1406" y="-101,953"/>
      <point x="55,9844" y="-84,5781" type="curve" smooth="yes"/>
      <point x="50,6562" y="-82,2188"/>
      <point x="45,3281" y="-79,9062"/>
      <point x="40" y="-77,5781" type="curve" smooth="yes"/>
      <point x="37" y="-76,2656" type="line"/>
      <point x="37" y="-73" type="line" smooth="yes"/>
      <point x="37" y="27" type="line"/>
      <point x="47" y="27" type="line"/>
    </contour>
    <contour>
      <point x="163" y="407" type="line"/>
      <point x="339" y="407" type="line"/>
      <point x="339" y="502" type="line"/>
      <point x="349" y="502" type="line"/>
      <point x="349" y="402" type="line" smooth="yes"/>
      <point x="349" y="397" type="line"/>
      <point x="344" y="397" type="line" smooth="yes"/>
      <point x="253" y="397" type="line" smooth="yes"/>
      <point x="163" y="397" type="line"/>
    </contour>
    <contour>
      <point x="91" y="326" type="line" smooth="yes"/>
      <point x="91" y="225,359"/>
      <point x="90,6562" y="189,484"/>
      <point x="92,75" y="179,938" type="curve" smooth="yes"/>
      <point x="92,7656" y="179,859"/>
      <point x="89,9531" y="180,859"/>
      <point x="89,9531" y="180,859" type="curve" smooth="yes"/>
      <point x="90,2812" y="180,859"/>
      <point x="89,4062" y="180,734"/>
      <point x="89,7812" y="180,844" type="curve" smooth="yes"/>
      <point x="105,5" y="185,641"/>
      <point x="127,844" y="187,859"/>
      <point x="149,328" y="187,859" type="curve" smooth="yes"/>
      <point x="153,641" y="187,859"/>
      <point x="175,641" y="187,906"/>
      <point x="192,188" y="183,859" type="curve" smooth="yes"/>
      <point x="229,656" y="174,672"/>
      <point x="257,859" y="154,656"/>
      <point x="274,297" y="129,828" type="curve"/>
      <point x="265,969" y="124,312" type="line"/>
      <point x="251,078" y="146,797"/>
      <point x="225,188" y="165,453"/>
      <point x="189,812" y="174,141" type="curve" smooth="yes"/>
      <point x="179,766" y="176,609"/>
      <point x="164,875" y="177,859"/>
      <point x="149,328" y="177,859" type="curve" smooth="yes"/>
      <point x="128,609" y="177,859"/>
      <point x="106,469" y="175,531"/>
      <point x="92,4688" y="171,219" type="curve" smooth="yes"/>
      <point x="92,2344" y="171,141" type="line"/>
      <point x="91,9844" y="171,094" type="line" smooth="yes"/>
      <point x="92,2812" y="171,156"/>
      <point x="90,2188" y="170,859"/>
      <point x="89,9531" y="170,859" type="curve" smooth="yes"/>
      <point x="88,5469" y="170,859"/>
      <point x="84,3594" y="171,312"/>
      <point x="82,9531" y="177,75" type="curve" smooth="yes"/>
      <point x="80,0938" y="190,781"/>
      <point x="81" y="283,109"/>
      <point x="81" y="326" type="curve" smooth="yes"/>
      <point x="81" y="426" type="line"/>
      <point x="91" y="426" type="line"/>
    </contour>
  </outline>
</glyph>
<glyph name="uni0036" format="1">
  <advance width="423"/>
  <unicode hex="0036"/>
  <outline>
    <contour>
      <point x="247,016" y="576,016" type="curve" smooth="yes"/>
      <point x="252,391" y="579,969"/>
      <point x="261,828" y="586,156"/>
      <point x="265,922" y="587,609" type="curve" smooth="yes"/>
      <point x="266,906" y="587,953"/>
      <point x="267,578" y="588"/>
      <point x="268" y="588" type="curve" smooth="yes"/>
      <point x="268,812" y="588" type="line"/>
      <point x="269,578" y="587,75" type="line" smooth="yes"/>
      <point x="270,594" y="587,156"/>
      <point x="270,703" y="587,375"/>
      <point x="271,938" y="586,297" type="curve" smooth="yes"/>
      <point x="277,938" y="581,047"/>
      <point x="318,938" y="530,109"/>
      <point x="323,047" y="523,109" type="curve" smooth="yes"/>
      <point x="323,531" y="522,281"/>
      <point x="324,391" y="521,188"/>
      <point x="324" y="520" type="curve" smooth="yes"/>
      <point x="322,922" y="516,734"/>
      <point x="323,844" y="517,5"/>
      <point x="321,859" y="515,531" type="curve" smooth="yes"/>
      <point x="319,141" y="512,828"/>
      <point x="311,828" y="508,281"/>
      <point x="306,734" y="504,812" type="curve" smooth="yes"/>
      <point x="243,188" y="461,422"/>
      <point x="195,109" y="407,891"/>
      <point x="165,5" y="346,812" type="curve" smooth="yes"/>
      <point x="159,312" y="334,062"/>
      <point x="155,344" y="326,422"/>
      <point x="153,484" y="321,734" type="curve"/>
      <point x="157,344" y="322,906"/>
      <point x="163,344" y="325,031"/>
      <point x="168,391" y="326,734" type="curve" smooth="yes"/>
      <point x="190,641" y="334,281"/>
      <point x="212,688" y="337,906"/>
      <point x="233,781" y="337,906" type="curve" smooth="yes"/>
      <point x="295,938" y="337,906"/>
      <point x="350" y="305,812"/>
      <point x="378,484" y="248,219" type="curve" smooth="yes"/>
      <point x="392,562" y="219,75"/>
      <point x="399" y="191,328"/>
      <point x="399" y="164,281" type="curve" smooth="yes"/>
      <point x="399" y="67,2812"/>
      <point x="317,141" y="-11,0625"/>
      <point x="219,844" y="-11,0625" type="curve" smooth="yes"/>
      <point x="188,875" y="-11,0625"/>
      <point x="156,453" y="-2,95312"/>
      <point x="124,578" y="14,625" type="curve" smooth="yes"/>
      <point x="65,0156" y="47,4844"/>
      <point x="33,3125" y="124,828"/>
      <point x="33,3125" y="201,844" type="curve" smooth="yes"/>
      <point x="33,3125" y="212,312"/>
      <point x="33,9062" y="222,891"/>
      <point x="35,0312" y="233,531" type="curve" smooth="yes"/>
      <point x="50,25" y="377,859"/>
      <point x="129,391" y="489,219"/>
    </contour>
    <contour>
      <point x="304" y="162" type="curve" smooth="yes"/>
      <point x="304" y="204,625"/>
      <point x="288,016" y="229"/>
      <point x="248,234" y="244,328" type="curve" smooth="yes"/>
      <point x="237,219" y="248,562"/>
      <point x="225,578" y="250,422"/>
      <point x="213,562" y="250,422" type="curve" smooth="yes"/>
      <point x="194,562" y="250,422"/>
      <point x="174,531" y="245,344"/>
      <point x="154,344" y="234,594" type="curve" smooth="yes"/>
      <point x="128,484" y="220,797"/>
      <point x="129,969" y="224,031"/>
      <point x="127,984" y="200,531" type="curve" smooth="yes"/>
      <point x="127,531" y="195,25"/>
      <point x="127,141" y="189,953"/>
      <point x="127,141" y="184,781" type="curve" smooth="yes"/>
      <point x="127,141" y="145,391"/>
      <point x="143,156" y="110,453"/>
      <point x="168,797" y="93,1406" type="curve" smooth="yes"/>
      <point x="186" y="81,5312"/>
      <point x="204,219" y="76,375"/>
      <point x="221,516" y="76,375" type="curve" smooth="yes"/>
      <point x="265,625" y="76,375"/>
      <point x="304" y="110,031"/>
    </contour>
    <contour>
      <point x="255" y="149" type="line"/>
      <point x="245" y="149" type="line"/>
      <point x="245" y="249" type="line"/>
      <point x="255" y="249" type="line"/>
    </contour>
    <contour>
      <point x="157" y="139" type="line"/>
      <point x="147" y="139" type="line"/>
      <point x="147" y="239" type="line"/>
      <point x="157" y="239" type="line"/>
    </contour>
    <contour>
      <point x="128" y="168,766" type="line"/>
      <point x="118" y="168,766" type="line"/>
      <point x="118" y="201" type="line"/>
      <point x="128" y="201" type="line"/>
    </contour>
    <contour>
      <point x="309" y="409" type="line"/>
      <point x="299" y="409" type="line"/>
      <point x="299" y="509" type="line"/>
      <point x="309" y="509" type="line"/>
    </contour>
    <contour>
      <point x="166" y="318,859" type="line"/>
      <point x="156" y="318,859" type="line"/>
      <point x="156" y="349" type="line"/>
      <point x="166" y="349" type="line"/>
    </contour>
    <contour>
      <point x="132" y="-81" type="line"/>
      <point x="122" y="-81" type="line"/>
      <point x="122" y="19" type="line"/>
      <point x="132" y="19" type="line"/>
    </contour>
    <contour>
      <point x="43,3125" y="101,844" type="line" smooth="yes"/>
      <point x="43,3125" y="28,9531"/>
      <point x="72,9219" y="-45,4531"/>
      <point x="129,422" y="-76,625" type="curve" smooth="yes"/>
      <point x="159,875" y="-93,4219"/>
      <point x="190,594" y="-101,062"/>
      <point x="219,844" y="-101,062" type="curve" smooth="yes"/>
      <point x="311,766" y="-101,062"/>
      <point x="389" y="-26,9219"/>
      <point x="389" y="64,2812" type="curve" smooth="yes"/>
      <point x="389" y="164,281" type="line"/>
      <point x="399" y="164,281" type="line"/>
      <point x="399" y="64,2812" type="line" smooth="yes"/>
      <point x="399" y="-32,7188"/>
      <point x="317,141" y="-111,062"/>
      <point x="219,844" y="-111,062" type="curve" smooth="yes"/>
      <point x="188,875" y="-111,062"/>
      <point x="156,453" y="-102,953"/>
      <point x="124,578" y="-85,375" type="curve" smooth="yes"/>
      <point x="65,0156" y="-52,5156"/>
      <point x="33,3125" y="24,8281"/>
      <point x="33,3125" y="101,844" type="curve" smooth="yes"/>
      <point x="33,3125" y="201,844" type="line"/>
      <point x="43,3125" y="201,844" type="line"/>
    </contour>
    <contour>
      <point x="301,266" y="413,188" type="curve" smooth="yes"/>
      <point x="303,969" y="415,031"/>
      <point x="312,516" y="420,359"/>
      <point x="314,812" y="422,641" type="curve" smooth="yes"/>
      <point x="315,078" y="422,906"/>
      <point x="314" y="420"/>
      <point x="314" y="420" type="curve" smooth="yes"/>
      <point x="314" y="520" type="line"/>
      <point x="324" y="520" type="line"/>
      <point x="324" y="420" type="line" smooth="yes"/>
      <point x="324" y="418,219"/>
      <point x="323,188" y="416,844"/>
      <point x="321,859" y="415,531" type="curve" smooth="yes"/>
      <point x="319,25" y="412,938"/>
      <point x="312,906" y="409"/>
      <point x="306,734" y="404,812" type="curve" smooth="yes"/>
      <point x="273,453" y="382,234"/>
      <point x="244,641" y="356,625"/>
      <point x="220,266" y="328,781" type="curve"/>
      <point x="212,734" y="335,375" type="line"/>
      <point x="237,719" y="363,906"/>
      <point x="267,422" y="390,062"/>
    </contour>
    <contour>
      <point x="149,656" y="143,406" type="curve" smooth="yes"/>
      <point x="171,078" y="154,797"/>
      <point x="192,734" y="160,422"/>
      <point x="213,562" y="160,422" type="curve" smooth="yes"/>
      <point x="226,719" y="160,422"/>
      <point x="239,656" y="158,297"/>
      <point x="251,766" y="153,672" type="curve" smooth="yes"/>
      <point x="274,141" y="145,125"/>
      <point x="290,469" y="133,047"/>
      <point x="300,734" y="116,531" type="curve"/>
      <point x="292,25" y="111,25" type="line"/>
      <point x="283,391" y="125,5"/>
      <point x="269,344" y="136,25"/>
      <point x="248,234" y="144,328" type="curve" smooth="yes"/>
      <point x="237,219" y="148,531"/>
      <point x="225,578" y="150,422"/>
      <point x="213,562" y="150,422" type="curve" smooth="yes"/>
      <point x="194,562" y="150,422"/>
      <point x="174,547" y="145,312"/>
      <point x="154,344" y="134,594" type="curve" smooth="yes"/>
      <point x="144,031" y="129,109"/>
      <point x="140,078" y="127,047"/>
      <point x="136,406" y="124,656" type="curve"/>
      <point x="130,938" y="133,031" type="line"/>
      <point x="135,375" y="135,922"/>
      <point x="141,203" y="138,922"/>
    </contour>
  </outline>
</glyph>
<glyph name="uni0039" format="1">
  <advance width="421"/>
  <unicode hex="0039"/>
  <outline>
    <contour>
      <point x="25,2969" y="411,906" type="curve" smooth="yes"/>
      <point x="25,2969" y="492,375"/>
      <point x="80,8906" y="565,422"/>
      <point x="166,953" y="584,891" type="curve" smooth="yes"/>
      <point x="174,562" y="586,609"/>
      <point x="183,438" y="587,391"/>
      <point x="194,75" y="587,391" type="curve" smooth="yes"/>
      <point x="198,891" y="587,391"/>
      <point x="203,297" y="587,141"/>
      <point x="208,203" y="587" type="curve" smooth="yes"/>
      <point x="323,078" y="583,672"/>
      <point x="393,797" y="494,328"/>
      <point x="393,797" y="373,281" type="curve" smooth="yes"/>
      <point x="393,797" y="338,516"/>
      <point x="387,953" y="301,188"/>
      <point x="375,766" y="262,5" type="curve" smooth="yes"/>
      <point x="353,531" y="191,875"/>
      <point x="321" y="136,969"/>
      <point x="265,688" y="75,6094" type="curve"/>
      <point x="232" y="39,9219"/>
      <point x="172,219" y="-8,70312"/>
      <point x="159,5" y="-10,875" type="curve" smooth="yes"/>
      <point x="159,031" y="-10,9531"/>
      <point x="158,516" y="-11,1719"/>
      <point x="158" y="-11" type="curve" smooth="yes"/>
      <point x="155,75" y="-10,2656"/>
      <point x="156,094" y="-10,9844"/>
      <point x="154,328" y="-9,57812" type="curve" smooth="yes"/>
      <point x="148,219" y="-4,70312"/>
      <point x="106,656" y="43,1562"/>
      <point x="102,922" y="49,8438" type="curve" smooth="yes"/>
      <point x="102,453" y="50,6875"/>
      <point x="101,672" y="51,7812"/>
      <point x="102" y="53" type="curve" smooth="yes"/>
      <point x="102,688" y="55,5469"/>
      <point x="102,062" y="55,1406"/>
      <point x="103,703" y="57,0625" type="curve" smooth="yes"/>
      <point x="106,688" y="60,5625"/>
      <point x="114,625" y="65,75"/>
      <point x="122,234" y="71,1562" type="curve" smooth="yes"/>
      <point x="170,188" y="105,234"/>
      <point x="213,562" y="150,188"/>
      <point x="238,781" y="189,688" type="curve" smooth="yes"/>
      <point x="250,969" y="208,781"/>
      <point x="266,781" y="241,922"/>
      <point x="272,406" y="256,781" type="curve"/>
      <point x="270,281" y="255,984"/>
      <point x="267,516" y="254,875"/>
      <point x="263,953" y="253,391" type="curve" smooth="yes"/>
      <point x="240,609" y="243,688"/>
      <point x="216,719" y="239,422"/>
      <point x="193,797" y="239,422" type="curve" smooth="yes"/>
      <point x="124,531" y="239,422"/>
      <point x="62,3594" y="280,719"/>
      <point x="36,3125" y="350,266" type="curve" smooth="yes"/>
      <point x="28,6562" y="370,688"/>
      <point x="25,2969" y="391,594"/>
    </contour>
    <contour>
      <point x="296" y="391,078" type="curve"/>
      <point x="296" y="429,312"/>
      <point x="285,109" y="478,391"/>
      <point x="232,453" y="495,25" type="curve" smooth="yes"/>
      <point x="222,375" y="498,469"/>
      <point x="212,672" y="500,078"/>
      <point x="203,438" y="500,078" type="curve" smooth="yes"/>
      <point x="155,359" y="500,078"/>
      <point x="119,203" y="458,828"/>
      <point x="119,203" y="414,375" type="curve" smooth="yes"/>
      <point x="119,203" y="393,922"/>
      <point x="126,75" y="372,844"/>
      <point x="144,594" y="354,484" type="curve" smooth="yes"/>
      <point x="161,328" y="337,234"/>
      <point x="184,656" y="328,359"/>
      <point x="210,891" y="328,359" type="curve" smooth="yes"/>
      <point x="233,312" y="328,359"/>
      <point x="257,844" y="334,672"/>
      <point x="281,484" y="348,312" type="curve" smooth="yes"/>
      <point x="293,453" y="355,234"/>
      <point x="294,969" y="354,75"/>
    </contour>
    <contour>
      <point x="239" y="400" type="line"/>
      <point x="229" y="400" type="line"/>
      <point x="229" y="500" type="line"/>
      <point x="239" y="500" type="line"/>
    </contour>
    <contour>
      <point x="284" y="260,797" type="line"/>
      <point x="274" y="260,797" type="line"/>
      <point x="274" y="264" type="line"/>
      <point x="284" y="264" type="line"/>
    </contour>
    <contour>
      <point x="267" y="221,844" type="line"/>
      <point x="257" y="221,844" type="line"/>
      <point x="257" y="258" type="line"/>
      <point x="267" y="258" type="line"/>
    </contour>
    <contour>
      <point x="46" y="252" type="line"/>
      <point x="36" y="252" type="line"/>
      <point x="36" y="352" type="line"/>
      <point x="46" y="352" type="line"/>
    </contour>
    <contour>
      <point x="376" y="164" type="line"/>
      <point x="366" y="164" type="line"/>
      <point x="366" y="264" type="line"/>
      <point x="376" y="264" type="line"/>
    </contour>
    <contour>
      <point x="267" y="-21" type="line"/>
      <point x="257" y="-21" type="line"/>
      <point x="257" y="79" type="line"/>
      <point x="267" y="79" type="line"/>
    </contour>
    <contour>
      <point x="163" y="-106" type="line"/>
      <point x="153" y="-106" type="line"/>
      <point x="153" y="-6" type="line"/>
      <point x="163" y="-6" type="line"/>
    </contour>
    <contour>
      <point x="112" y="-47" type="line" smooth="yes"/>
      <point x="112" y="-47"/>
      <point x="111,531" y="-45,0625"/>
      <point x="111,656" y="-45,2812" type="curve" smooth="yes"/>
      <point x="114,312" y="-50,0469"/>
      <point x="153,953" y="-96,4688"/>
      <point x="160,578" y="-101,75" type="curve" smooth="yes"/>
      <point x="158" y="-101" type="line" smooth="yes"/>
      <point x="158" y="-101"/>
      <point x="157,797" y="-101,016"/>
      <point x="157,812" y="-101,016" type="curve" smooth="yes"/>
      <point x="167,344" y="-99,3906"/>
      <point x="229,375" y="-49,2812"/>
      <point x="258,312" y="-17,6094" type="curve" smooth="yes"/>
      <point x="313,406" y="42,6562"/>
      <point x="344,391" y="96,1406"/>
      <point x="366,234" y="165,5" type="curve" smooth="yes"/>
      <point x="378,125" y="203,312"/>
      <point x="383,797" y="239,641"/>
      <point x="383,797" y="273,281" type="curve" smooth="yes"/>
      <point x="383,797" y="373,281" type="line"/>
      <point x="393,797" y="373,281" type="line"/>
      <point x="393,797" y="273,281" type="line" smooth="yes"/>
      <point x="393,797" y="238,516"/>
      <point x="387,953" y="201,188"/>
      <point x="375,766" y="162,5" type="curve" smooth="yes"/>
      <point x="353,531" y="91,875"/>
      <point x="321,438" y="36,5781"/>
      <point x="265,688" y="-24,3906" type="curve" smooth="yes"/>
      <point x="234,078" y="-58,9375"/>
      <point x="172,547" y="-108,641"/>
      <point x="159,5" y="-110,875" type="curve" smooth="yes"/>
      <point x="158,312" y="-111,062"/>
      <point x="159,984" y="-110,906"/>
      <point x="158" y="-111" type="curve" smooth="yes"/>
      <point x="157,266" y="-111,031"/>
      <point x="156,094" y="-110,984"/>
      <point x="154,328" y="-109,578" type="curve" smooth="yes"/>
      <point x="148,219" y="-104,703"/>
      <point x="106,656" y="-56,8438"/>
      <point x="102,922" y="-50,1562" type="curve" smooth="yes"/>
      <point x="101,984" y="-48,4688"/>
      <point x="102,016" y="-48,3906"/>
      <point x="102" y="-47" type="curve" smooth="yes"/>
      <point x="101,656" y="-13,6719"/>
      <point x="102" y="19,6719"/>
      <point x="102" y="53" type="curve"/>
      <point x="112" y="53" type="line"/>
    </contour>
    <contour>
      <point x="35,2969" y="311,906" type="line" smooth="yes"/>
      <point x="35,2969" y="292,75"/>
      <point x="38,4375" y="273,094"/>
      <point x="45,6875" y="253,734" type="curve" smooth="yes"/>
      <point x="70,3438" y="187,891"/>
      <point x="128,531" y="149,422"/>
      <point x="193,797" y="149,422" type="curve" smooth="yes"/>
      <point x="199,312" y="149,422"/>
      <point x="204,891" y="149,703"/>
      <point x="210,5" y="150,266" type="curve"/>
      <point x="211,5" y="140,312" type="line"/>
      <point x="205,547" y="139,719"/>
      <point x="199,641" y="139,422"/>
      <point x="193,797" y="139,422" type="curve" smooth="yes"/>
      <point x="124,531" y="139,422"/>
      <point x="62,3594" y="180,719"/>
      <point x="36,3125" y="250,266" type="curve" smooth="yes"/>
      <point x="28,6562" y="270,688"/>
      <point x="25,2969" y="291,594"/>
      <point x="25,2969" y="311,906" type="curve" smooth="yes"/>
      <point x="25,2969" y="411,906" type="line"/>
      <point x="35,2969" y="411,906" type="line"/>
    </contour>
    <contour>
      <point x="203,438" y="410,078" type="curve" smooth="yes"/>
      <point x="213,766" y="410,078"/>
      <point x="224,5" y="408,312"/>
      <point x="235,547" y="404,75" type="curve" smooth="yes"/>
      <point x="263,531" y="395,766"/>
      <point x="283,938" y="377,422"/>
      <point x="295,344" y="350,375" type="curve"/>
      <point x="286,141" y="346,484" type="line"/>
      <point x="275,906" y="370,734"/>
      <point x="257,562" y="387,172"/>
      <point x="232,453" y="395,25" type="curve" smooth="yes"/>
      <point x="222,375" y="398,484"/>
      <point x="212,672" y="400,078"/>
      <point x="203,438" y="400,078" type="curve" smooth="yes"/>
      <point x="173,812" y="400,078"/>
      <point x="148,797" y="384,531"/>
      <point x="133,844" y="362,078" type="curve"/>
      <point x="125,531" y="367,625" type="line"/>
      <point x="142,109" y="392,547"/>
      <point x="170,203" y="410,078"/>
    </contour>
  </outline>
</glyph>
<glyph name="uni003A" format="1">
  <advance width="186"/>
  <unicode hex="003A"/>
  <outline>
    <contour>
      <point x="41,2344" y="335,641" type="curve" smooth="yes"/>
      <point x="41,2344" y="355,344"/>
      <point x="50,7969" y="375,828"/>
      <point x="70,6719" y="386,422" type="curve" smooth="yes"/>
      <point x="78,7031" y="390,703"/>
      <point x="87,375" y="392,578"/>
      <point x="95,7656" y="392,578" type="curve" smooth="yes"/>
      <point x="122,609" y="392,578"/>
      <point x="147,594" y="372,609"/>
      <point x="150,969" y="342,594" type="curve" smooth="yes"/>
      <point x="151,25" y="340,094"/>
      <point x="151,438" y="337,688"/>
      <point x="151,438" y="335,266" type="curve" smooth="yes"/>
      <point x="151,438" y="304"/>
      <point x="125,516" y="280,891"/>
      <point x="95,7188" y="280,891" type="curve" smooth="yes"/>
      <point x="88,3125" y="280,891"/>
      <point x="80,6562" y="282,312"/>
      <point x="73,125" y="285,359" type="curve" smooth="yes"/>
      <point x="51,9375" y="293,953"/>
      <point x="41,2344" y="314,859"/>
    </contour>
    <contour>
      <point x="33,8438" y="42,9219" type="curve" smooth="yes"/>
      <point x="33,8438" y="67,0312"/>
      <point x="48,4844" y="91,5"/>
      <point x="73,7812" y="97,8438" type="curve" smooth="yes"/>
      <point x="78,8594" y="99,125"/>
      <point x="83,8281" y="99,75"/>
      <point x="88,6719" y="99,75" type="curve" smooth="yes"/>
      <point x="120,969" y="99,75"/>
      <point x="145,281" y="72,6406"/>
      <point x="145,281" y="42,5156" type="curve" smooth="yes"/>
      <point x="145,281" y="31,7188"/>
      <point x="142,125" y="20,4844"/>
      <point x="135,141" y="10,1875" type="curve" smooth="yes"/>
      <point x="125,5" y="-4"/>
      <point x="107,375" y="-10,9688"/>
      <point x="89,5" y="-10,9688" type="curve" smooth="yes"/>
      <point x="75,375" y="-10,9688"/>
      <point x="61,0625" y="-6,5"/>
      <point x="50,5781" y="3,35938" type="curve" smooth="yes"/>
      <point x="39,1094" y="14,1406"/>
      <point x="33,8438" y="28,6094"/>
    </contour>
    <contour>
      <point x="136" y="-87" type="line"/>
      <point x="126" y="-87" type="line"/>
      <point x="126" y="13" type="line"/>
      <point x="136" y="13" type="line"/>
    </contour>
    <contour>
      <point x="59" y="-93" type="line"/>
      <point x="49" y="-93" type="line"/>
      <point x="49" y="7" type="line"/>
      <point x="59" y="7" type="line"/>
    </contour>
    <contour>
      <point x="80" y="190" type="line"/>
      <point x="70" y="190" type="line"/>
      <point x="70" y="290" type="line"/>
      <point x="80" y="290" type="line"/>
    </contour>
    <contour>
      <point x="51,2344" y="235,641" type="line" smooth="yes"/>
      <point x="51,2344" y="218,094"/>
      <point x="60,0625" y="201,453"/>
      <point x="76,875" y="194,641" type="curve" smooth="yes"/>
      <point x="83,2188" y="192,062"/>
      <point x="89,5781" y="190,891"/>
      <point x="95,7188" y="190,891" type="curve" smooth="yes"/>
      <point x="120,406" y="190,891"/>
      <point x="141,438" y="209,828"/>
      <point x="141,438" y="235,266" type="curve" smooth="yes"/>
      <point x="141,438" y="335,266" type="line"/>
      <point x="151,438" y="335,266" type="line"/>
      <point x="151,438" y="235,266" type="line" smooth="yes"/>
      <point x="151,438" y="204"/>
      <point x="125,516" y="180,891"/>
      <point x="95,7188" y="180,891" type="curve" smooth="yes"/>
      <point x="88,3125" y="180,891"/>
      <point x="80,6562" y="182,312"/>
      <point x="73,125" y="185,359" type="curve" smooth="yes"/>
      <point x="51,9375" y="193,953"/>
      <point x="41,2344" y="214,859"/>
      <point x="41,2344" y="235,641" type="curve" smooth="yes"/>
      <point x="41,2344" y="335,641" type="line"/>
      <point x="51,2344" y="335,641" type="line"/>
    </contour>
    <contour>
      <point x="43,8438" y="-57,0781" type="line" smooth="yes"/>
      <point x="43,8438" y="-69,0312"/>
      <point x="48,1875" y="-80,6719"/>
      <point x="57,4219" y="-89,3594" type="curve" smooth="yes"/>
      <point x="65,5625" y="-97,0156"/>
      <point x="77,4375" y="-100,969"/>
      <point x="89,5" y="-100,969" type="curve" smooth="yes"/>
      <point x="104,828" y="-100,969"/>
      <point x="119,781" y="-94,625"/>
      <point x="126,859" y="-84,1875" type="curve" smooth="yes"/>
      <point x="132,75" y="-75,5156"/>
      <point x="135,281" y="-66,3438"/>
      <point x="135,281" y="-57,4844" type="curve" smooth="yes"/>
      <point x="135,281" y="42,5156" type="line"/>
      <point x="145,281" y="42,5156" type="line"/>
      <point x="145,281" y="-57,4844" type="line" smooth="yes"/>
      <point x="145,281" y="-68,2812"/>
      <point x="142,125" y="-79,5156"/>
      <point x="135,141" y="-89,8125" type="curve" smooth="yes"/>
      <point x="125,5" y="-104"/>
      <point x="107,375" y="-110,969"/>
      <point x="89,5" y="-110,969" type="curve" smooth="yes"/>
      <point x="75,375" y="-110,969"/>
      <point x="61,0625" y="-106,5"/>
      <point x="50,5781" y="-96,6406" type="curve" smooth="yes"/>
      <point x="39,1094" y="-85,8594"/>
      <point x="33,8438" y="-71,3906"/>
      <point x="33,8438" y="-57,0781" type="curve" smooth="yes"/>
      <point x="33,8438" y="42,9219" type="line"/>
      <point x="43,8438" y="42,9219" type="line"/>
    </contour>
  </outline>
</glyph>
<glyph name="uni003C" format="1">
  <advance width="496"/>
  <unicode hex="003C"/>
  <outline>
    <contour>
      <point x="245,047" y="424,609" type="line" smooth="yes"/>
      <point x="245,266" y="424,703"/>
      <point x="435,875" y="505,094"/>
      <point x="446,094" y="508,641" type="curve" smooth="yes"/>
      <point x="446,641" y="508,828"/>
      <point x="447,234" y="509"/>
      <point x="448" y="509" type="curve" smooth="yes"/>
      <point x="455,5" y="506,641" type="line"/>
      <point x="452,984" y="504,297" type="line" smooth="yes"/>
      <point x="453" y="504,234"/>
      <point x="454" y="487,156"/>
      <point x="454" y="466" type="curve" smooth="yes"/>
      <point x="454" y="424,656" type="line"/>
      <point x="293,906" y="358,375" type="line" smooth="yes"/>
      <point x="217,859" y="326,891"/>
      <point x="168,062" y="306,438"/>
      <point x="149,219" y="297,734" type="curve"/>
      <point x="296,922" y="236,609" type="line"/>
      <point x="452,906" y="171,359" type="line"/>
      <point x="454" y="130,062" type="line" smooth="yes"/>
      <point x="453,953" y="116,469"/>
      <point x="453,859" y="102,734"/>
      <point x="452,203" y="96,3438" type="curve" smooth="yes"/>
      <point x="451,438" y="93,4062"/>
      <point x="449,219" y="91,9688"/>
      <point x="449,828" y="91,3594" type="curve"/>
      <point x="449,797" y="91,375"/>
      <point x="449,75" y="91,25"/>
      <point x="449,719" y="91,2031" type="curve" smooth="yes"/>
      <point x="449,609" y="91,0469"/>
      <point x="449,578" y="91"/>
      <point x="449,547" y="90,9219" type="curve" smooth="yes"/>
      <point x="447,391" y="86,2188" type="line"/>
      <point x="442,812" y="88,5" type="line" smooth="yes"/>
      <point x="439,734" y="89,9375"/>
      <point x="350" y="127,844"/>
      <point x="242,031" y="174,406" type="curve" smooth="yes"/>
      <point x="40,9062" y="259,734" type="line"/>
      <point x="43,0938" y="338,344" type="line"/>
    </contour>
    <contour>
      <point x="297" y="263" type="line"/>
      <point x="287" y="263" type="line"/>
      <point x="287" y="363" type="line"/>
      <point x="297" y="363" type="line"/>
    </contour>
    <contour>
      <point x="249" y="79" type="line"/>
      <point x="239" y="79" type="line"/>
      <point x="239" y="179" type="line"/>
      <point x="249" y="179" type="line"/>
    </contour>
    <contour>
      <point x="51" y="166,312" type="line"/>
      <point x="245,969" y="83,5938" type="line" smooth="yes"/>
      <point x="377,766" y="26,7812"/>
      <point x="441,797" y="0,015625"/>
      <point x="447,031" y="-2,4375" type="curve" smooth="yes"/>
      <point x="447,203" y="-2,5"/>
      <point x="446,844" y="-2,32812"/>
      <point x="447,234" y="-2,53125" type="curve" smooth="yes"/>
      <point x="442,766" y="-11,4688" type="line" smooth="yes"/>
      <point x="442,734" y="-11,4531"/>
      <point x="442,844" y="-11,5156"/>
      <point x="442,812" y="-11,5" type="curve" smooth="yes"/>
      <point x="438,375" y="-9,42188"/>
      <point x="353,672" y="26,5625"/>
      <point x="242,031" y="74,4062" type="curve" smooth="yes"/>
      <point x="176,141" y="102,641"/>
      <point x="110,047" y="130,391"/>
      <point x="44,0469" y="158,391" type="curve" smooth="yes"/>
      <point x="41" y="159,688" type="line"/>
      <point x="41" y="163" type="line" smooth="yes"/>
      <point x="41" y="263" type="line"/>
      <point x="51" y="263" type="line"/>
    </contour>
    <contour>
      <point x="290,094" y="267,625" type="line"/>
      <point x="444" y="331,344" type="line"/>
      <point x="444" y="428" type="line"/>
      <point x="454" y="428" type="line"/>
      <point x="454" y="328" type="line" smooth="yes"/>
      <point x="454" y="324,656" type="line"/>
      <point x="450,906" y="323,375" type="line" smooth="yes"/>
      <point x="398,578" y="301,719"/>
      <point x="346,234" y="280,047"/>
      <point x="293,906" y="258,375" type="curve" smooth="yes"/>
      <point x="257,906" y="243,578" type="line"/>
      <point x="254,094" y="252,828" type="line"/>
    </contour>
  </outline>
</glyph>
<glyph name="uni003D" format="1">
  <advance width="494"/>
  <unicode hex="003D"/>
  <outline>
    <contour>
      <point x="42" y="350" type="line"/>
      <point x="42" y="430" type="line"/>
      <point x="453" y="430" type="line"/>
      <point x="453" y="350" type="line"/>
    </contour>
    <contour>
      <point x="52" y="177" type="move"/>
      <point x="443" y="177" type="line"/>
    </contour>
    <contour>
      <point x="42" y="167" type="line"/>
      <point x="42" y="247" type="line"/>
      <point x="453" y="247" type="line"/>
      <point x="453" y="167" type="line"/>
    </contour>
    <contour>
      <point x="252" y="72" type="line"/>
      <point x="242" y="72" type="line"/>
      <point x="242" y="172" type="line"/>
      <point x="252" y="172" type="line"/>
    </contour>
    <contour>
      <point x="252" y="255" type="line"/>
      <point x="242" y="255" type="line"/>
      <point x="242" y="355" type="line"/>
      <point x="252" y="355" type="line"/>
    </contour>
    <contour>
      <point x="52" y="260" type="line"/>
      <point x="443" y="260" type="line"/>
      <point x="443" y="355" type="line"/>
      <point x="453" y="355" type="line"/>
      <point x="453" y="255" type="line" smooth="yes"/>
      <point x="453" y="250" type="line"/>
      <point x="247" y="250" type="line" smooth="yes"/>
      <point x="47" y="250" type="line" smooth="yes"/>
      <point x="42" y="250" type="line"/>
      <point x="42" y="255" type="line" smooth="yes"/>
      <point x="42" y="355" type="line"/>
      <point x="52" y="355" type="line"/>
    </contour>
    <contour>
      <point x="52" y="77" type="line"/>
      <point x="443" y="77" type="line"/>
      <point x="443" y="172" type="line"/>
      <point x="453" y="172" type="line"/>
      <point x="453" y="72" type="line" smooth="yes"/>
      <point x="453" y="67" type="line"/>
      <point x="247" y="67" type="line" smooth="yes"/>
      <point x="47" y="67" type="line" smooth="yes"/>
      <point x="42" y="67" type="line"/>
      <point x="42" y="72" type="line" smooth="yes"/>
      <point x="42" y="172" type="line"/>
      <point x="52" y="172" type="line"/>
    </contour>
  </outline>
</glyph>
<glyph name="uni003F" format="1">
  <advance width="281"/>
  <unicode hex="003F"/>
  <outline>
    <contour>
      <point x="49,5469" y="493,5" type="curve" smooth="yes"/>
      <point x="49,5469" y="493,75"/>
      <point x="49,5469" y="494,594"/>
      <point x="49,9531" y="495,859" type="curve" smooth="yes"/>
      <point x="51,5781" y="501,062"/>
      <point x="66,2656" y="525,891"/>
      <point x="77,7031" y="545,547" type="curve" smooth="yes"/>
      <point x="105,469" y="591,484" type="line"/>
      <point x="120,688" y="588,953" type="line"/>
      <point x="193,938" y="580,953"/>
      <point x="223,75" y="545,219"/>
      <point x="236,5" y="519,188" type="curve" smooth="yes"/>
      <point x="244,469" y="502,906"/>
      <point x="250,188" y="482,906"/>
      <point x="250,188" y="458,734" type="curve" smooth="yes"/>
      <point x="250,188" y="416,578"/>
      <point x="231,969" y="369,828"/>
      <point x="196,297" y="311,438" type="curve" smooth="yes"/>
      <point x="187,797" y="297,516"/>
      <point x="176,094" y="278,469"/>
      <point x="169,234" y="267,359" type="curve" smooth="yes"/>
      <point x="139,984" y="219,906"/>
      <point x="125,031" y="183,078"/>
      <point x="125" y="162" type="curve" smooth="yes"/>
      <point x="124,984" y="155,281"/>
      <point x="124,812" y="152,984"/>
      <point x="124,375" y="150,812" type="curve" smooth="yes"/>
      <point x="123" y="144,031"/>
      <point x="118,234" y="143,547"/>
      <point x="116,703" y="143,547" type="curve" smooth="yes"/>
      <point x="116,703" y="143,547"/>
      <point x="115,125" y="143,688"/>
      <point x="114,906" y="143,734" type="curve" smooth="yes"/>
      <point x="111,516" y="144,422"/>
      <point x="108,078" y="146,656"/>
      <point x="99,125" y="152,906" type="curve" smooth="yes"/>
      <point x="75,6406" y="169,312"/>
      <point x="67,3125" y="182,234"/>
      <point x="63,0469" y="212,312" type="curve" smooth="yes"/>
      <point x="62,1719" y="218,531"/>
      <point x="61,7344" y="224,594"/>
      <point x="61,7344" y="230,594" type="curve" smooth="yes"/>
      <point x="61,7344" y="261,562"/>
      <point x="74,1406" y="290,609"/>
      <point x="106,766" y="342,656" type="curve" smooth="yes"/>
      <point x="140,891" y="397,094"/>
      <point x="152,719" y="429,203"/>
      <point x="152,719" y="450,844" type="curve" smooth="yes"/>
      <point x="152,719" y="456,625"/>
      <point x="151,828" y="461,75"/>
      <point x="150,266" y="466,391" type="curve" smooth="yes"/>
      <point x="145,016" y="482"/>
      <point x="131,141" y="500,188"/>
      <point x="102,453" y="500,188" type="curve" smooth="yes"/>
      <point x="93,5938" y="500,188"/>
      <point x="83,8906" y="498,031"/>
      <point x="73,7031" y="494,297" type="curve" smooth="yes"/>
      <point x="62,7812" y="490,297"/>
      <point x="58,9219" y="488,844"/>
      <point x="56,8125" y="488,266" type="curve" smooth="yes"/>
      <point x="56,1094" y="488,078"/>
      <point x="55,5469" y="488"/>
      <point x="55" y="488" type="curve" smooth="yes"/>
      <point x="54,7188" y="488"/>
      <point x="49,5469" y="493,141"/>
    </contour>
    <contour>
      <point x="103,75" y="5,17188" type="curve" smooth="yes"/>
      <point x="110,422" y="0,765625"/>
      <point x="119,156" y="-1,35938"/>
      <point x="128,125" y="-1,35938" type="curve" smooth="yes"/>
      <point x="142,406" y="-1,35938"/>
      <point x="156,828" y="4,4375"/>
      <point x="164,172" y="13,2031" type="curve" smooth="yes"/>
      <point x="172,188" y="22,7969"/>
      <point x="175,672" y="33,2031"/>
      <point x="175,672" y="43,3594" type="curve" smooth="yes"/>
      <point x="175,672" y="67,6406"/>
      <point x="155,797" y="90"/>
      <point x="130,953" y="90" type="curve" smooth="yes"/>
      <point x="126,078" y="90"/>
      <point x="120,969" y="89,1875"/>
      <point x="115,688" y="87,2969" type="curve" smooth="yes"/>
      <point x="95,7188" y="80,1406"/>
      <point x="84,9844" y="61"/>
      <point x="84,9844" y="41,9219" type="curve" smooth="yes"/>
      <point x="84,9844" y="27,4844"/>
      <point x="91,0312" y="13,5781"/>
    </contour>
    <contour>
      <point x="74,9844" y="41,9219" type="curve" smooth="yes"/>
      <point x="74,9844" y="64,6094"/>
      <point x="87,8906" y="87,9688"/>
      <point x="112,312" y="96,7031" type="curve" smooth="yes"/>
      <point x="118,641" y="98,9688"/>
      <point x="124,922" y="100"/>
      <point x="130,953" y="100" type="curve" smooth="yes"/>
      <point x="161,953" y="100"/>
      <point x="185,672" y="72,9062"/>
      <point x="185,672" y="43,3594" type="curve" smooth="yes"/>
      <point x="185,672" y="30,9375"/>
      <point x="181,312" y="18,125"/>
      <point x="171,828" y="6,79688" type="curve" smooth="yes"/>
      <point x="161,812" y="-5,1875"/>
      <point x="144,875" y="-11,3594"/>
      <point x="128,125" y="-11,3594" type="curve" smooth="yes"/>
      <point x="117,594" y="-11,3594"/>
      <point x="106,938" y="-8,92188"/>
      <point x="98,25" y="-3,17188" type="curve" smooth="yes"/>
      <point x="82,4375" y="7,28125"/>
      <point x="74,9844" y="24,7188"/>
    </contour>
    <contour>
      <point x="173" y="-90" type="line"/>
      <point x="163" y="-90" type="line"/>
      <point x="163" y="10" type="line"/>
      <point x="173" y="10" type="line"/>
    </contour>
    <contour>
      <point x="106" y="-99" type="line"/>
      <point x="96" y="-99" type="line"/>
      <point x="96" y="1" type="line"/>
      <point x="106" y="1" type="line"/>
    </contour>
    <contour>
      <point x="197" y="214" type="line"/>
      <point x="187" y="214" type="line"/>
      <point x="187" y="314" type="line"/>
      <point x="197" y="314" type="line"/>
    </contour>
    <contour>
      <point x="170" y="170" type="line"/>
      <point x="160" y="170" type="line"/>
      <point x="160" y="270" type="line"/>
      <point x="170" y="270" type="line"/>
    </contour>
    <contour>
      <point x="125" y="93,75" type="line"/>
      <point x="115" y="93,75" type="line"/>
      <point x="115" y="162" type="line"/>
      <point x="125" y="162" type="line"/>
    </contour>
    <contour>
      <point x="107" y="85,7812" type="line"/>
      <point x="97" y="85,7812" type="line"/>
      <point x="97" y="157" type="line"/>
      <point x="107" y="157" type="line"/>
    </contour>
    <contour>
      <point x="160" y="430,469" type="line"/>
      <point x="150" y="430,469" type="line"/>
      <point x="150" y="468" type="line"/>
      <point x="160" y="468" type="line"/>
    </contour>
    <contour>
      <point x="77" y="399" type="line"/>
      <point x="67" y="399" type="line"/>
      <point x="67" y="499" type="line"/>
      <point x="77" y="499" type="line"/>
    </contour>
    <contour>
      <point x="60" y="400,031" type="line"/>
      <point x="63,1562" y="401,188"/>
      <point x="67" y="402,438"/>
      <point x="70,2969" y="403,703" type="curve" smooth="yes"/>
      <point x="81,4688" y="407,953"/>
      <point x="92,1875" y="410,188"/>
      <point x="102,453" y="410,188" type="curve" smooth="yes"/>
      <point x="118,312" y="410,188"/>
      <point x="132,672" y="405"/>
      <point x="143,469" y="395,156" type="curve"/>
      <point x="136,719" y="387,766" type="line"/>
      <point x="127,906" y="395,812"/>
      <point x="116,172" y="400,188"/>
      <point x="102,453" y="400,188" type="curve" smooth="yes"/>
      <point x="93,5938" y="400,188"/>
      <point x="83,8906" y="398,016"/>
      <point x="73,7031" y="394,297" type="curve" smooth="yes"/>
      <point x="64,1094" y="390,812"/>
      <point x="59,6875" y="389,047"/>
      <point x="56,8125" y="388,266" type="curve"/>
      <point x="57,0156" y="388,328"/>
      <point x="55,5312" y="388,094"/>
      <point x="55" y="388" type="curve" smooth="yes"/>
      <point x="50" y="388" type="line"/>
      <point x="50" y="393" type="line" smooth="yes"/>
      <point x="50" y="493" type="line"/>
      <point x="60" y="493" type="line"/>
    </contour>
    <contour>
      <point x="73" y="113,359" type="line"/>
      <point x="75,4375" y="96,4531"/>
      <point x="78,8281" y="84,1406"/>
      <point x="90,5312" y="72,625" type="curve"/>
      <point x="83,5156" y="65,5" type="line"/>
      <point x="70" y="78,7969"/>
      <point x="65,8281" y="92,8125"/>
      <point x="63,0469" y="112,297" type="curve" smooth="yes"/>
      <point x="63" y="112,641" type="line"/>
      <point x="63" y="113" type="line" smooth="yes"/>
      <point x="63" y="213" type="line"/>
      <point x="73" y="213" type="line"/>
    </contour>
    <contour>
      <point x="160,766" y="172,641" type="curve" smooth="yes"/>
      <point x="167,609" y="183,703"/>
      <point x="179,391" y="202,953"/>
      <point x="187,703" y="216,562" type="curve" smooth="yes"/>
      <point x="222,922" y="274,188"/>
      <point x="240,188" y="319,516"/>
      <point x="240,188" y="358,734" type="curve" smooth="yes"/>
      <point x="240,188" y="458,734" type="line"/>
      <point x="250,188" y="458,734" type="line"/>
      <point x="250,188" y="358,734" type="line" smooth="yes"/>
      <point x="250,188" y="316,578"/>
      <point x="231,969" y="269,828"/>
      <point x="196,297" y="211,438" type="curve" smooth="yes"/>
      <point x="187,797" y="197,516"/>
      <point x="176,125" y="178,469"/>
      <point x="169,234" y="167,359" type="curve" smooth="yes"/>
      <point x="151,047" y="137,953"/>
      <point x="138,688" y="112,875"/>
      <point x="131,703" y="93,1719" type="curve"/>
      <point x="122,281" y="96,5156" type="line"/>
      <point x="129,625" y="117,219"/>
      <point x="142,328" y="142,859"/>
    </contour>
    <contour>
      <point x="84,9844" y="-58,0781" type="line" smooth="yes"/>
      <point x="84,9844" y="-72,5156"/>
      <point x="91,0312" y="-86,4219"/>
      <point x="103,75" y="-94,8281" type="curve" smooth="yes"/>
      <point x="110,422" y="-99,2344"/>
      <point x="119,156" y="-101,359"/>
      <point x="128,125" y="-101,359" type="curve" smooth="yes"/>
      <point x="142,406" y="-101,359"/>
      <point x="156,828" y="-95,5625"/>
      <point x="164,172" y="-86,7969" type="curve" smooth="yes"/>
      <point x="172,188" y="-77,2031"/>
      <point x="175,672" y="-66,7969"/>
      <point x="175,672" y="-56,6406" type="curve" smooth="yes"/>
      <point x="175,672" y="43,3594" type="line"/>
      <point x="185,672" y="43,3594" type="line"/>
      <point x="185,672" y="-56,6406" type="line" smooth="yes"/>
      <point x="185,672" y="-69,0625"/>
      <point x="181,312" y="-81,875"/>
      <point x="171,828" y="-93,2031" type="curve" smooth="yes"/>
      <point x="161,812" y="-105,188"/>
      <point x="144,875" y="-111,359"/>
      <point x="128,125" y="-111,359" type="curve" smooth="yes"/>
      <point x="117,594" y="-111,359"/>
      <point x="106,938" y="-108,922"/>
      <point x="98,25" y="-103,172" type="curve" smooth="yes"/>
      <point x="82,4375" y="-92,7188"/>
      <point x="74,9844" y="-75,2812"/>
      <point x="74,9844" y="-58,0781" type="curve" smooth="yes"/>
      <point x="74,9844" y="41,9219" type="line"/>
      <point x="84,9844" y="41,9219" type="line"/>
    </contour>
  </outline>
</glyph>
<glyph name="uni0040" format="1">
  <advance width="848"/>
  <unicode hex="0040"/>
  <outline>
    <contour>
      <point x="390,234" y="615,938" type="curve" smooth="yes"/>
      <point x="408,281" y="618,75"/>
      <point x="426,906" y="619,953"/>
      <point x="445,688" y="619,953" type="curve" smooth="yes"/>
      <point x="552,75" y="619,953"/>
      <point x="668,406" y="577,609"/>
      <point x="726,781" y="510,281" type="curve" smooth="yes"/>
      <point x="782,125" y="446,438"/>
      <point x="809,547" y="369,953"/>
      <point x="809,547" y="294,125" type="curve" smooth="yes"/>
      <point x="809,547" y="211,25"/>
      <point x="776,781" y="128,922"/>
      <point x="711,516" y="64,4375" type="curve" smooth="yes"/>
      <point x="667,547" y="21,0156"/>
      <point x="605,609" y="-5,10938"/>
      <point x="553,984" y="-5,10938" type="curve" smooth="yes"/>
      <point x="538,578" y="-5,10938"/>
      <point x="524,078" y="-2,71875"/>
      <point x="511,172" y="2,34375" type="curve" smooth="yes"/>
      <point x="491,188" y="10,1719"/>
      <point x="477,234" y="29,8281"/>
      <point x="474,062" y="55,25" type="curve"/>
      <point x="473,781" y="56,7188" type="line"/>
      <point x="467,5" y="50,4375" type="line" smooth="yes"/>
      <point x="430,359" y="14,5156"/>
      <point x="390,453" y="-4,0625"/>
      <point x="350,828" y="-4,0625" type="curve" smooth="yes"/>
      <point x="324,266" y="-4,0625"/>
      <point x="297,969" y="4,25"/>
      <point x="273,219" y="20,8438" type="curve" smooth="yes"/>
      <point x="226,453" y="52,2188"/>
      <point x="197,734" y="118,047"/>
      <point x="197,734" y="185,891" type="curve" smooth="yes"/>
      <point x="197,734" y="196,812"/>
      <point x="198,453" y="207,812"/>
      <point x="200,047" y="218,719" type="curve" smooth="yes"/>
      <point x="220,172" y="356,312"/>
      <point x="321,672" y="450,078"/>
      <point x="417,359" y="450,078" type="curve" smooth="yes"/>
      <point x="460,688" y="450,078"/>
      <point x="502,578" y="430,516"/>
      <point x="534,016" y="387,984" type="curve" smooth="yes"/>
      <point x="535,125" y="386,484"/>
      <point x="536,25" y="385"/>
      <point x="537,344" y="383,656" type="curve"/>
      <point x="538,734" y="389,766"/>
      <point x="540,609" y="399,062"/>
      <point x="542,094" y="406,984" type="curve" smooth="yes"/>
      <point x="548,953" y="439" type="line"/>
      <point x="591" y="439" type="line" smooth="yes"/>
      <point x="617,047" y="439"/>
      <point x="621,531" y="438,875"/>
      <point x="625,391" y="438,078" type="curve" smooth="yes"/>
      <point x="631,797" y="436,766"/>
      <point x="632,266" y="432,281"/>
      <point x="632,266" y="430,828" type="curve" smooth="yes"/>
      <point x="632,266" y="429,797"/>
      <point x="632,047" y="428,641"/>
      <point x="631,875" y="427,922" type="curve" smooth="yes"/>
      <point x="615,672" y="360,719"/>
      <point x="563,281" y="107,641"/>
      <point x="562,984" y="93,375" type="curve"/>
      <point x="562,984" y="93,3438" type="line"/>
      <point x="563,984" y="79,7656"/>
      <point x="570,766" y="72,8125"/>
      <point x="583,031" y="72,8125" type="curve" smooth="yes"/>
      <point x="613,938" y="72,8125"/>
      <point x="674,875" y="115,328"/>
      <point x="708,594" y="178,359" type="curve" smooth="yes"/>
      <point x="727,578" y="213,844"/>
      <point x="736,672" y="252,938"/>
      <point x="736,672" y="291,844" type="curve" smooth="yes"/>
      <point x="736,672" y="371,078"/>
      <point x="699,031" y="449,203"/>
      <point x="632,219" y="493,844" type="curve" smooth="yes"/>
      <point x="577,297" y="530,547"/>
      <point x="515,344" y="549,188"/>
      <point x="451,234" y="549,188" type="curve" smooth="yes"/>
      <point x="396,75" y="549,188"/>
      <point x="340,719" y="535,766"/>
      <point x="286,234" y="508,531" type="curve" smooth="yes"/>
      <point x="176,141" y="453,484"/>
      <point x="112,094" y="327,328"/>
      <point x="112,094" y="200,984" type="curve" smooth="yes"/>
      <point x="112,094" y="135,906"/>
      <point x="129,203" y="71,0312"/>
      <point x="165,188" y="15,7344" type="curve" smooth="yes"/>
      <point x="216,406" y="-62,9688"/>
      <point x="339,812" y="-109,734"/>
      <point x="464,297" y="-109,734" type="curve" smooth="yes"/>
      <point x="531,094" y="-109,734"/>
      <point x="597,594" y="-96,4375"/>
      <point x="651,641" y="-67,5938" type="curve" smooth="yes"/>
      <point x="691,797" y="-46,1562"/>
      <point x="729,422" y="-13,6562"/>
      <point x="741,75" y="4,625" type="curve" smooth="yes"/>
      <point x="742,281" y="5,40625"/>
      <point x="742,578" y="6,15625"/>
      <point x="744,688" y="7,375" type="curve" smooth="yes"/>
      <point x="752,031" y="11,625"/>
      <point x="776,5" y="12,8281"/>
      <point x="790,625" y="12,7812" type="curve" smooth="yes"/>
      <point x="808,312" y="12,7188"/>
      <point x="818,031" y="11,4844"/>
      <point x="822,406" y="9,59375" type="curve" smooth="yes"/>
      <point x="825,562" y="8,21875"/>
      <point x="827,094" y="5,875"/>
      <point x="827,094" y="3,40625" type="curve" smooth="yes"/>
      <point x="827,094" y="2,92188"/>
      <point x="826,812" y="1,60938"/>
      <point x="826,641" y="1,15625" type="curve" smooth="yes"/>
      <point x="821,844" y="-11,9844"/>
      <point x="796,25" y="-42,8281"/>
      <point x="775,531" y="-63,5312" type="curve" smooth="yes"/>
      <point x="699,25" y="-139,828"/>
      <point x="590,344" y="-180,016"/>
      <point x="468,531" y="-180,016" type="curve" smooth="yes"/>
      <point x="420,266" y="-180,016"/>
      <point x="369,891" y="-173,875"/>
      <point x="318,766" y="-160,844" type="curve" smooth="yes"/>
      <point x="196,156" y="-129,609"/>
      <point x="129,141" y="-78,25"/>
      <point x="79,5312" y="20,75" type="curve" smooth="yes"/>
      <point x="52,8125" y="74,0781"/>
      <point x="40,0312" y="134,328"/>
      <point x="40,0312" y="195,531" type="curve" smooth="yes"/>
      <point x="40,0312" y="317,391"/>
      <point x="90,2969" y="442,969"/>
      <point x="180,641" y="524,703" type="curve" smooth="yes"/>
      <point x="235,531" y="574,359"/>
      <point x="300,656" y="601,953"/>
    </contour>
    <contour>
      <point x="552,984" y="93,3438" type="line"/>
    </contour>
    <contour>
      <point x="484,484" y="161,141" type="curve" smooth="yes"/>
      <point x="501,75" y="197,625"/>
      <point x="509,812" y="234,516"/>
      <point x="509,812" y="267,234" type="curve" smooth="yes"/>
      <point x="509,812" y="324,562"/>
      <point x="485,359" y="368,188"/>
      <point x="441,922" y="378,125" type="curve" smooth="yes"/>
      <point x="433,219" y="380,109"/>
      <point x="426,344" y="380,875"/>
      <point x="419,969" y="380,875" type="curve" smooth="yes"/>
      <point x="409,219" y="380,875"/>
      <point x="399,453" y="378,531"/>
      <point x="384,062" y="371,438" type="curve" smooth="yes"/>
      <point x="328,562" y="345,922"/>
      <point x="284" y="265,328"/>
      <point x="284" y="181,984" type="curve"/>
      <point x="284" y="182,484"/>
      <point x="284" y="180,969"/>
      <point x="284" y="180,453" type="curve" smooth="yes"/>
      <point x="284" y="104,734"/>
      <point x="322,594" y="66,2812"/>
      <point x="367,281" y="66,2812" type="curve" smooth="yes"/>
      <point x="406,969" y="66,2812"/>
      <point x="453,812" y="96,375"/>
    </contour>
    <contour>
      <point x="448" y="283" type="line"/>
      <point x="438" y="283" type="line"/>
      <point x="438" y="383" type="line"/>
      <point x="448" y="383" type="line"/>
    </contour>
    <contour>
      <point x="387" y="276" type="line"/>
      <point x="377" y="276" type="line"/>
      <point x="377" y="376" type="line"/>
      <point x="387" y="376" type="line"/>
    </contour>
    <contour>
      <point x="284" y="178,922" type="line"/>
      <point x="274" y="178,922" type="line"/>
      <point x="274" y="182" type="line"/>
      <point x="284" y="182" type="line"/>
    </contour>
    <contour>
      <point x="713" y="-32" type="line"/>
      <point x="703" y="-32" type="line"/>
      <point x="703" y="68" type="line"/>
      <point x="713" y="68" type="line"/>
    </contour>
    <contour>
      <point x="518" y="-93" type="line"/>
      <point x="508" y="-93" type="line"/>
      <point x="508" y="7" type="line"/>
      <point x="518" y="7" type="line"/>
    </contour>
    <contour>
      <point x="469" y="-46" type="line"/>
      <point x="459" y="-46" type="line"/>
      <point x="459" y="54" type="line"/>
      <point x="469" y="54" type="line"/>
    </contour>
    <contour>
      <point x="281" y="-75" type="line"/>
      <point x="271" y="-75" type="line"/>
      <point x="271" y="25" type="line"/>
      <point x="281" y="25" type="line"/>
    </contour>
    <contour>
      <point x="640" y="398" type="line"/>
      <point x="630" y="398" type="line"/>
      <point x="630" y="498" type="line"/>
      <point x="640" y="498" type="line"/>
    </contour>
    <contour>
      <point x="289" y="413" type="line"/>
      <point x="279" y="413" type="line"/>
      <point x="279" y="513" type="line"/>
      <point x="289" y="513" type="line"/>
    </contour>
    <contour>
      <point x="777" y="-160" type="line"/>
      <point x="767" y="-160" type="line"/>
      <point x="767" y="-60" type="line"/>
      <point x="777" y="-60" type="line"/>
    </contour>
    <contour>
      <point x="325" y="-256" type="line"/>
      <point x="315" y="-256" type="line"/>
      <point x="315" y="-156" type="line"/>
      <point x="325" y="-156" type="line"/>
    </contour>
    <contour>
      <point x="89" y="-77" type="line"/>
      <point x="79" y="-77" type="line"/>
      <point x="79" y="23" type="line"/>
      <point x="89" y="23" type="line"/>
    </contour>
    <contour>
      <point x="50,0312" y="95,5312" type="line" smooth="yes"/>
      <point x="50,0312" y="35,7031"/>
      <point x="62,5469" y="-23,0156"/>
      <point x="88,4688" y="-74,75" type="curve" smooth="yes"/>
      <point x="137,031" y="-171,672"/>
      <point x="201,734" y="-220,703"/>
      <point x="321,234" y="-251,156" type="curve" smooth="yes"/>
      <point x="371,609" y="-263,984"/>
      <point x="421,125" y="-270,016"/>
      <point x="468,531" y="-270,016" type="curve" smooth="yes"/>
      <point x="588,188" y="-270,016"/>
      <point x="694,344" y="-230,594"/>
      <point x="768,469" y="-156,469" type="curve" smooth="yes"/>
      <point x="792,922" y="-132,016"/>
      <point x="812,969" y="-105,625"/>
      <point x="817" y="-96,0625" type="curve"/>
      <point x="817" y="3" type="line"/>
      <point x="827" y="3" type="line"/>
      <point x="827" y="-97" type="line" smooth="yes"/>
      <point x="827" y="-97,875" type="line"/>
      <point x="826,703" y="-98,7031" type="line" smooth="yes"/>
      <point x="821,922" y="-111,859"/>
      <point x="796,25" y="-142,812"/>
      <point x="775,531" y="-163,531" type="curve" smooth="yes"/>
      <point x="699,25" y="-239,828"/>
      <point x="590,344" y="-280,016"/>
      <point x="468,531" y="-280,016" type="curve" smooth="yes"/>
      <point x="420,266" y="-280,016"/>
      <point x="369,891" y="-273,875"/>
      <point x="318,766" y="-260,844" type="curve" smooth="yes"/>
      <point x="196,156" y="-229,609"/>
      <point x="129,141" y="-178,25"/>
      <point x="79,5312" y="-79,25" type="curve" smooth="yes"/>
      <point x="52,8125" y="-25,9219"/>
      <point x="40,0312" y="34,3281"/>
      <point x="40,0312" y="95,5312" type="curve" smooth="yes"/>
      <point x="40,0312" y="195,531" type="line"/>
      <point x="50,0312" y="195,531" type="line"/>
    </contour>
    <contour>
      <point x="281,766" y="417,469" type="curve" smooth="yes"/>
      <point x="337,516" y="445,344"/>
      <point x="395,109" y="459,188"/>
      <point x="451,234" y="459,188" type="curve" smooth="yes"/>
      <point x="490,766" y="459,188"/>
      <point x="529,562" y="452,328"/>
      <point x="566,453" y="438,688" type="curve"/>
      <point x="562,984" y="429,312" type="line"/>
      <point x="527,203" y="442,531"/>
      <point x="489,609" y="449,188"/>
      <point x="451,234" y="449,188" type="curve" smooth="yes"/>
      <point x="396,75" y="449,188"/>
      <point x="340,719" y="435,766"/>
      <point x="286,234" y="408,531" type="curve" smooth="yes"/>
      <point x="190,594" y="360,719"/>
      <point x="129,688" y="259,312"/>
      <point x="115,359" y="150,609" type="curve"/>
      <point x="105,453" y="151,906" type="line"/>
      <point x="120,188" y="263,75"/>
      <point x="182,859" y="368,016"/>
    </contour>
    <contour>
      <point x="637,75" y="402,172" type="line" smooth="yes"/>
      <point x="693,062" y="365,297"/>
      <point x="729,016" y="306,656"/>
      <point x="741,625" y="243,047" type="curve"/>
      <point x="731,828" y="241,109" type="line"/>
      <point x="719,688" y="302,328"/>
      <point x="685,125" y="358,578"/>
      <point x="632,25" y="393,828" type="curve" smooth="yes"/>
      <point x="624,281" y="399,016" type="line"/>
      <point x="629,719" y="407,391" type="line"/>
    </contour>
    <contour>
      <point x="622" y="329,594" type="curve"/>
      <point x="622" y="429" type="line"/>
      <point x="632" y="429" type="line"/>
      <point x="632" y="329" type="line" smooth="yes"/>
      <point x="632" y="328,406" type="line"/>
      <point x="631,859" y="327,828" type="line" smooth="yes"/>
      <point x="621,234" y="284"/>
      <point x="593,656" y="153,656"/>
      <point x="576,781" y="68,8438" type="curve"/>
      <point x="566,969" y="70,7969" type="line"/>
      <point x="583,797" y="155,391"/>
      <point x="611,188" y="284,844"/>
    </contour>
    <contour>
      <point x="207,734" y="85,8906" type="line" smooth="yes"/>
      <point x="207,734" y="20,8125"/>
      <point x="235,906" y="-42,0156"/>
      <point x="278,781" y="-70,8438" type="curve" smooth="yes"/>
      <point x="282,609" y="-73,4219"/>
      <point x="286,469" y="-75,7344"/>
      <point x="290,344" y="-77,8594" type="curve"/>
      <point x="285,516" y="-86,625" type="line"/>
      <point x="281,391" y="-84,3594"/>
      <point x="277,266" y="-81,875"/>
      <point x="273,219" y="-79,1562" type="curve" smooth="yes"/>
      <point x="226,484" y="-47,7188"/>
      <point x="197,734" y="18,0469"/>
      <point x="197,734" y="85,8906" type="curve" smooth="yes"/>
      <point x="197,734" y="185,891" type="line"/>
      <point x="207,734" y="185,891" type="line"/>
    </contour>
    <contour>
      <point x="350,828" y="-94,0625" type="curve" smooth="yes"/>
      <point x="387,234" y="-94,0625"/>
      <point x="424,625" y="-77,125"/>
      <point x="460,5" y="-42,4375" type="curve" smooth="yes"/>
      <point x="472" y="-30,9219" type="line"/>
      <point x="472" y="67" type="line"/>
      <point x="482" y="67" type="line"/>
      <point x="482" y="-33" type="line" smooth="yes"/>
      <point x="482" y="-35,0781" type="line"/>
      <point x="480,531" y="-36,5312" type="line" smooth="yes"/>
      <point x="476,203" y="-40,875"/>
      <point x="471,906" y="-45,2969"/>
      <point x="467,5" y="-49,5625" type="curve" smooth="yes"/>
      <point x="430,438" y="-85,5469"/>
      <point x="390,453" y="-104,062"/>
      <point x="350,828" y="-104,062" type="curve" smooth="yes"/>
      <point x="345,766" y="-104,062"/>
      <point x="340,719" y="-103,766"/>
      <point x="335,688" y="-103,156" type="curve"/>
      <point x="336,875" y="-93,2344" type="line"/>
      <point x="341,516" y="-93,7812"/>
      <point x="346,172" y="-94,0625"/>
    </contour>
    <contour>
      <point x="484" y="-43,6875" type="line"/>
      <point x="486,891" y="-66,1094"/>
      <point x="498,922" y="-82,1094"/>
      <point x="514,828" y="-88,3438" type="curve" smooth="yes"/>
      <point x="526,312" y="-92,8438"/>
      <point x="539,609" y="-95,1094"/>
      <point x="553,984" y="-95,1094" type="curve" smooth="yes"/>
      <point x="575,469" y="-95,1094"/>
      <point x="599,344" y="-90,1562"/>
      <point x="622,906" y="-80,9375" type="curve"/>
      <point x="626,547" y="-90,25" type="line"/>
      <point x="601,984" y="-99,8594"/>
      <point x="577" y="-105,109"/>
      <point x="553,984" y="-105,109" type="curve" smooth="yes"/>
      <point x="538,578" y="-105,109"/>
      <point x="524,078" y="-102,719"/>
      <point x="511,172" y="-97,6562" type="curve" smooth="yes"/>
      <point x="491,188" y="-89,8281"/>
      <point x="477,219" y="-70,0312"/>
      <point x="474,031" y="-44,625" type="curve" smooth="yes"/>
      <point x="474" y="-44,3125" type="line"/>
      <point x="474" y="-44" type="line" smooth="yes"/>
      <point x="474" y="56" type="line"/>
      <point x="484" y="56" type="line"/>
    </contour>
    <contour>
      <point x="704,484" y="-28,4375" type="curve" smooth="yes"/>
      <point x="767,875" y="34,2969"/>
      <point x="799,547" y="113,906"/>
      <point x="799,547" y="194,125" type="curve" smooth="yes"/>
      <point x="799,547" y="294,125" type="line"/>
      <point x="809,547" y="294,125" type="line"/>
      <point x="809,547" y="194,125" type="line" smooth="yes"/>
      <point x="809,547" y="111,25"/>
      <point x="776,719" y="28,9688"/>
      <point x="711,516" y="-35,5625" type="curve" smooth="yes"/>
      <point x="693,297" y="-53,5938"/>
      <point x="671,875" y="-68,5156"/>
      <point x="649,484" y="-79,9375" type="curve"/>
      <point x="644,938" y="-71,0312" type="line"/>
      <point x="666,469" y="-60,0469"/>
      <point x="687,062" y="-45,6875"/>
    </contour>
    <contour>
      <point x="379,938" y="280,562" type="curve" smooth="yes"/>
      <point x="395,781" y="287,828"/>
      <point x="407,406" y="290,875"/>
      <point x="419,969" y="290,875" type="curve" smooth="yes"/>
      <point x="427,359" y="290,875"/>
      <point x="435,047" y="289,938"/>
      <point x="444,078" y="287,875" type="curve" smooth="yes"/>
      <point x="479,078" y="279,906"/>
      <point x="502,75" y="252,328"/>
      <point x="513,297" y="216" type="curve"/>
      <point x="503,688" y="213,219" type="line"/>
      <point x="499,766" y="226,703"/>
      <point x="485,75" y="268,094"/>
      <point x="441,922" y="278,125" type="curve" smooth="yes"/>
      <point x="433,219" y="280,109"/>
      <point x="426,344" y="280,875"/>
      <point x="419,969" y="280,875" type="curve" smooth="yes"/>
      <point x="409,219" y="280,875"/>
      <point x="399,469" y="278,516"/>
      <point x="384,062" y="271,438" type="curve" smooth="yes"/>
      <point x="340,156" y="251,297"/>
      <point x="302,969" y="195,938"/>
      <point x="289,469" y="132,891" type="curve"/>
      <point x="279,688" y="134,984" type="line"/>
      <point x="293,703" y="200,438"/>
      <point x="331,812" y="258,453"/>
    </contour>
  </outline>
</glyph>
<glyph name="uni0044" format="1">
  <advance width="633"/>
  <unicode hex="0044"/>
  <outline>
    <contour>
      <point x="67" y="-12" type="line"/>
      <point x="67" y="575,047" type="line"/>
      <point x="195,031" y="574" type="line" smooth="yes"/>
      <point x="364,938" y="573"/>
      <point x="418,641" y="564,125"/>
      <point x="474,75" y="527,172" type="curve" smooth="yes"/>
      <point x="563,234" y="468,906"/>
      <point x="606,781" y="375,297"/>
      <point x="606,781" y="282,297" type="curve" smooth="yes"/>
      <point x="606,781" y="182,734"/>
      <point x="556,938" y="83,0312"/>
      <point x="458,453" y="27,6406" type="curve" smooth="yes"/>
      <point x="394,906" y="-8,09375"/>
      <point x="367,625" y="-11"/>
      <point x="192,016" y="-12" type="curve" smooth="yes"/>
    </contour>
    <contour>
      <point x="433,047" y="443,969" type="curve" smooth="yes"/>
      <point x="391,453" y="474,406"/>
      <point x="361,344" y="485,031"/>
      <point x="299,766" y="488" type="curve" smooth="yes"/>
      <point x="278,891" y="489,016"/>
      <point x="238,891" y="490"/>
      <point x="209" y="490" type="curve" smooth="yes"/>
      <point x="161" y="490" type="line"/>
      <point x="161" y="73,0625" type="line"/>
      <point x="234,922" y="74" type="line" smooth="yes"/>
      <point x="348,031" y="76"/>
      <point x="382,891" y="83,2812"/>
      <point x="424,062" y="113,047" type="curve" smooth="yes"/>
      <point x="479,391" y="153,031"/>
      <point x="507,953" y="219,328"/>
      <point x="507,953" y="285,109" type="curve" smooth="yes"/>
      <point x="507,953" y="347,078"/>
      <point x="482,781" y="407,578"/>
    </contour>
    <contour>
      <point x="441" y="348" type="line"/>
      <point x="431" y="348" type="line"/>
      <point x="431" y="448" type="line"/>
      <point x="441" y="448" type="line"/>
    </contour>
    <contour>
      <point x="305" y="393" type="line"/>
      <point x="295" y="393" type="line"/>
      <point x="295" y="493" type="line"/>
      <point x="305" y="493" type="line"/>
    </contour>
    <contour>
      <point x="214" y="395" type="line"/>
      <point x="204" y="395" type="line"/>
      <point x="204" y="495" type="line"/>
      <point x="214" y="495" type="line"/>
    </contour>
    <contour>
      <point x="461" y="-68" type="line"/>
      <point x="451" y="-68" type="line"/>
      <point x="451" y="32" type="line"/>
      <point x="461" y="32" type="line"/>
    </contour>
    <contour>
      <point x="197" y="-107" type="line"/>
      <point x="187" y="-107" type="line"/>
      <point x="187" y="-7" type="line"/>
      <point x="197" y="-7" type="line"/>
    </contour>
    <contour>
      <point x="77" y="-102" type="line"/>
      <point x="191,984" y="-102" type="line"/>
      <point x="372,062" y="-100,969"/>
      <point x="393,688" y="-97,3125"/>
      <point x="453,547" y="-63,6406" type="curve" smooth="yes"/>
      <point x="548,781" y="-10,0781"/>
      <point x="596,781" y="86,0156"/>
      <point x="596,781" y="182,297" type="curve" smooth="yes"/>
      <point x="596,781" y="282,297" type="line"/>
      <point x="606,781" y="282,297" type="line"/>
      <point x="606,781" y="182,297" type="line" smooth="yes"/>
      <point x="606,781" y="82,7344"/>
      <point x="556,938" y="-16,9688"/>
      <point x="458,453" y="-72,3594" type="curve" smooth="yes"/>
      <point x="394,922" y="-108,094"/>
      <point x="367,625" y="-111,188"/>
      <point x="192,016" y="-112" type="curve" smooth="yes"/>
      <point x="152,016" y="-112,188"/>
      <point x="112" y="-112"/>
      <point x="72" y="-112" type="curve" smooth="yes"/>
      <point x="67" y="-112" type="line"/>
      <point x="67" y="-107" type="line" smooth="yes"/>
      <point x="67" y="-7" type="line"/>
      <point x="77" y="-7" type="line"/>
    </contour>
    <contour>
      <point x="209" y="400" type="line" smooth="yes"/>
      <point x="239,109" y="400"/>
      <point x="279,109" y="399,016"/>
      <point x="300,234" y="398" type="curve" smooth="yes"/>
      <point x="359,953" y="395,109"/>
      <point x="394,125" y="384,875"/>
      <point x="438,953" y="352,031" type="curve" smooth="yes"/>
      <point x="477,719" y="323,641"/>
      <point x="502,219" y="281,781"/>
      <point x="512,422" y="235,953" type="curve"/>
      <point x="502,656" y="233,781" type="line"/>
      <point x="492,891" y="277,609"/>
      <point x="469,578" y="317,203"/>
      <point x="433,047" y="343,969" type="curve" smooth="yes"/>
      <point x="391,469" y="374,422"/>
      <point x="361,416" y="388"/>
      <point x="299,766" y="388" type="curve" smooth="yes"/>
      <point x="272" y="388"/>
      <point x="238,891" y="390"/>
      <point x="209" y="390" type="curve" smooth="yes"/>
      <point x="156" y="390" type="line"/>
      <point x="156" y="400" type="line"/>
    </contour>
  </outline>
</glyph>
<glyph name="uni0047" format="1">
  <advance width="626"/>
  <unicode hex="0047"/>
  <outline>
    <contour>
      <point x="314,422" y="585,969" type="curve" smooth="yes"/>
      <point x="329,125" y="587,609"/>
      <point x="343,578" y="588,641"/>
      <point x="358,125" y="588,641" type="curve" smooth="yes"/>
      <point x="409,844" y="588,641"/>
      <point x="462" y="577,219"/>
      <point x="524,766" y="553,672" type="curve" smooth="yes"/>
      <point x="561,922" y="539,469" type="line"/>
      <point x="563" y="492,062" type="line" smooth="yes"/>
      <point x="563" y="475,016"/>
      <point x="562,906" y="453,562"/>
      <point x="562,312" y="449,406" type="curve" smooth="yes"/>
      <point x="561,625" y="444,578"/>
      <point x="558,672" y="444"/>
      <point x="557" y="444" type="curve" smooth="yes"/>
      <point x="555,812" y="444" type="line"/>
      <point x="536,766" y="453,531" type="line" smooth="yes"/>
      <point x="474,906" y="484,453"/>
      <point x="406,141" y="502,641"/>
      <point x="354,609" y="502,641" type="curve" smooth="yes"/>
      <point x="343,469" y="502,641"/>
      <point x="333,125" y="501,641"/>
      <point x="323,859" y="500,078" type="curve" smooth="yes"/>
      <point x="235,859" y="485,25"/>
      <point x="176,984" y="437,875"/>
      <point x="148,703" y="359,312" type="curve" smooth="yes"/>
      <point x="140,203" y="335,703"/>
      <point x="136,422" y="310,922"/>
      <point x="136,422" y="286,422" type="curve" smooth="yes"/>
      <point x="136,422" y="218,891"/>
      <point x="166,531" y="153,266"/>
      <point x="217,875" y="117,094" type="curve" smooth="yes"/>
      <point x="260,531" y="87,0312"/>
      <point x="305,203" y="72,9531"/>
      <point x="356,438" y="72,9531" type="curve" smooth="yes"/>
      <point x="387,703" y="72,9531"/>
      <point x="421,438" y="78,2969"/>
      <point x="458,625" y="88,8125" type="curve" smooth="yes"/>
      <point x="479" y="94,75" type="line"/>
      <point x="479" y="204" type="line"/>
      <point x="369" y="204" type="line"/>
      <point x="369" y="289" type="line"/>
      <point x="575" y="289" type="line"/>
      <point x="575" y="34,4844" type="line"/>
      <point x="546,672" y="24,2812" type="line" smooth="yes"/>
      <point x="479,547" y="0,71875"/>
      <point x="415,797" y="-11,1094"/>
      <point x="356,75" y="-11,1094" type="curve" smooth="yes"/>
      <point x="294,547" y="-11,1094"/>
      <point x="223,469" y="1,9375"/>
      <point x="158,203" y="45,8438" type="curve" smooth="yes"/>
      <point x="87,9375" y="93,1406"/>
      <point x="37,9844" y="194,312"/>
      <point x="37,9844" y="282,828" type="curve" smooth="yes"/>
      <point x="37,9844" y="290,125"/>
      <point x="38,2812" y="297,375"/>
      <point x="39,0312" y="304,5" type="curve" smooth="yes"/>
      <point x="47,0938" y="382,547"/>
      <point x="79,3906" y="455,531"/>
      <point x="127,547" y="500,609" type="curve"/>
      <point x="172,625" y="544,672"/>
      <point x="249,156" y="578,688"/>
    </contour>
    <contour>
      <point x="544" y="358" type="line"/>
      <point x="534" y="358" type="line"/>
      <point x="534" y="458" type="line"/>
      <point x="544" y="458" type="line"/>
    </contour>
    <contour>
      <point x="328" y="405" type="line"/>
      <point x="318" y="405" type="line"/>
      <point x="318" y="505" type="line"/>
      <point x="328" y="505" type="line"/>
    </contour>
    <contour>
      <point x="149" y="261" type="line"/>
      <point x="139" y="261" type="line"/>
      <point x="139" y="361" type="line"/>
      <point x="149" y="361" type="line"/>
    </contour>
    <contour>
      <point x="434" y="109" type="line"/>
      <point x="424" y="109" type="line"/>
      <point x="424" y="209" type="line"/>
      <point x="434" y="209" type="line"/>
    </contour>
    <contour>
      <point x="550" y="-71" type="line"/>
      <point x="540" y="-71" type="line"/>
      <point x="540" y="29" type="line"/>
      <point x="550" y="29" type="line"/>
    </contour>
    <contour>
      <point x="166" y="-50" type="line"/>
      <point x="156" y="-50" type="line"/>
      <point x="156" y="50" type="line"/>
      <point x="166" y="50" type="line"/>
    </contour>
    <contour>
      <point x="47,9844" y="182,828" type="line" smooth="yes"/>
      <point x="47,9844" y="97,2656"/>
      <point x="96,4844" y="-0,5625"/>
      <point x="163,797" y="-45,8438" type="curve" smooth="yes"/>
      <point x="227,203" y="-88,5156"/>
      <point x="296,281" y="-101,109"/>
      <point x="356,75" y="-101,109" type="curve" smooth="yes"/>
      <point x="414,453" y="-101,109"/>
      <point x="477,078" y="-89,5469"/>
      <point x="543,328" y="-66,2812" type="curve" smooth="yes"/>
      <point x="565" y="-58,4844" type="line"/>
      <point x="565" y="38" type="line"/>
      <point x="575" y="38" type="line"/>
      <point x="575" y="-62" type="line" smooth="yes"/>
      <point x="575" y="-65,5156" type="line"/>
      <point x="571,688" y="-66,7031" type="line" smooth="yes"/>
      <point x="563,359" y="-69,7031"/>
      <point x="555,031" y="-72,7656"/>
      <point x="546,672" y="-75,7188" type="curve" smooth="yes"/>
      <point x="479,562" y="-99,3281"/>
      <point x="415,797" y="-111,109"/>
      <point x="356,75" y="-111,109" type="curve" smooth="yes"/>
      <point x="294,547" y="-111,109"/>
      <point x="223,469" y="-98,0625"/>
      <point x="158,203" y="-54,1562" type="curve" smooth="yes"/>
      <point x="87,9375" y="-6,85938"/>
      <point x="37,9844" y="94,3125"/>
      <point x="37,9844" y="182,828" type="curve" smooth="yes"/>
      <point x="37,9844" y="282,828" type="line"/>
      <point x="47,9844" y="282,828" type="line"/>
    </contour>
    <contour>
      <point x="379" y="114" type="line"/>
      <point x="484" y="114" type="line"/>
      <point x="484" y="104" type="line"/>
      <point x="429" y="104" type="line" smooth="yes"/>
      <point x="374" y="104" type="line" smooth="yes"/>
      <point x="369" y="104" type="line"/>
      <point x="369" y="109" type="line" smooth="yes"/>
      <point x="369" y="209" type="line"/>
      <point x="379" y="209" type="line"/>
    </contour>
    <contour>
      <point x="139,297" y="262,688" type="curve" smooth="yes"/>
      <point x="168,766" y="344,219"/>
      <point x="230,156" y="394,422"/>
      <point x="322,141" y="409,922" type="curve" smooth="yes"/>
      <point x="332,125" y="411,609"/>
      <point x="342,969" y="412,641"/>
      <point x="354,609" y="412,641" type="curve" smooth="yes"/>
      <point x="408,406" y="412,641"/>
      <point x="478,125" y="394,031"/>
      <point x="541,234" y="362,469" type="curve" smooth="yes"/>
      <point x="552" y="357,094" type="line"/>
      <point x="552" y="449" type="line"/>
      <point x="562" y="449" type="line"/>
      <point x="562" y="349" type="line" smooth="yes"/>
      <point x="562" y="340,906" type="line"/>
      <point x="562" y="340,906"/>
      <point x="542,766" y="350,531"/>
      <point x="536,766" y="353,531" type="curve" smooth="yes"/>
      <point x="474,906" y="384,453"/>
      <point x="406,141" y="402,641"/>
      <point x="354,609" y="402,641" type="curve" smooth="yes"/>
      <point x="343,469" y="402,641"/>
      <point x="333,125" y="401,641"/>
      <point x="323,859" y="400,078" type="curve" smooth="yes"/>
      <point x="235,859" y="385,25"/>
      <point x="177,094" y="337,828"/>
      <point x="148,703" y="259,312" type="curve" smooth="yes"/>
      <point x="145,828" y="251,375"/>
      <point x="143,609" y="243,266"/>
      <point x="141,766" y="235,109" type="curve"/>
      <point x="132,016" y="237,297" type="line"/>
      <point x="133,938" y="245,828"/>
      <point x="136,281" y="254,359"/>
    </contour>
  </outline>
</glyph>
<glyph name="uni0048" format="1">
  <advance width="615"/>
  <unicode hex="0048"/>
  <outline>
    <contour>
      <point x="58" y="-5" type="line"/>
      <point x="58" y="582" type="line"/>
      <point x="152" y="582" type="line"/>
      <point x="152" y="333" type="line"/>
      <point x="463" y="333" type="line"/>
      <point x="463" y="582" type="line"/>
      <point x="557" y="582" type="line"/>
      <point x="557" y="-5" type="line"/>
      <point x="463" y="-5" type="line"/>
      <point x="463" y="244" type="line"/>
      <point x="152" y="244" type="line"/>
      <point x="152" y="-5" type="line"/>
    </contour>
    <contour>
      <point x="515" y="-100" type="line"/>
      <point x="505" y="-100" type="line"/>
      <point x="505" y="0" type="line"/>
      <point x="515" y="0" type="line"/>
    </contour>
    <contour>
      <point x="110" y="-100" type="line"/>
      <point x="100" y="-100" type="line"/>
      <point x="100" y="0" type="line"/>
      <point x="110" y="0" type="line"/>
    </contour>
    <contour>
      <point x="68" y="-95" type="line"/>
      <point x="142" y="-95" type="line"/>
      <point x="142" y="0" type="line"/>
      <point x="152" y="0" type="line"/>
      <point x="152" y="-100" type="line" smooth="yes"/>
      <point x="152" y="-105" type="line"/>
      <point x="105" y="-105" type="line" smooth="yes"/>
      <point x="58" y="-105" type="line"/>
      <point x="58" y="-100" type="line" smooth="yes"/>
      <point x="58" y="0" type="line"/>
      <point x="68" y="0" type="line"/>
    </contour>
    <contour>
      <point x="152" y="149" type="line"/>
      <point x="142" y="149" type="line"/>
      <point x="142" y="249" type="line"/>
      <point x="152" y="249" type="line"/>
    </contour>
    <contour>
      <point x="313" y="154" type="line"/>
      <point x="468" y="154" type="line"/>
      <point x="468" y="144" type="line"/>
      <point x="303" y="144" type="line"/>
      <point x="303" y="149" type="line" smooth="yes"/>
      <point x="303" y="249" type="line"/>
      <point x="313" y="249" type="line"/>
    </contour>
    <contour>
      <point x="473" y="-95" type="line"/>
      <point x="547" y="-95" type="line"/>
      <point x="547" y="0" type="line"/>
      <point x="557" y="0" type="line"/>
      <point x="557" y="-100" type="line" smooth="yes"/>
      <point x="557" y="-105" type="line"/>
      <point x="510" y="-105" type="line" smooth="yes"/>
      <point x="463" y="-105" type="line"/>
      <point x="463" y="-100" type="line" smooth="yes"/>
      <point x="463" y="0" type="line"/>
      <point x="473" y="0" type="line"/>
    </contour>
  </outline>
</glyph>
<glyph name="uni004A" format="1">
  <advance width="213"/>
  <unicode hex="004A"/>
  <outline>
    <contour>
      <point x="57" y="268,016" type="curve" smooth="yes"/>
      <point x="58,0156" y="582" type="line"/>
      <point x="153" y="582" type="line"/>
      <point x="153" y="270" type="line" smooth="yes"/>
      <point x="152" y="-55,7344"/>
      <point x="151,828" y="-59,375"/>
      <point x="140,797" y="-97,4062" type="curve" smooth="yes"/>
      <point x="123" y="-158,766"/>
      <point x="61,375" y="-199,578"/>
      <point x="-8,6875" y="-199,578" type="curve" smooth="yes"/>
      <point x="-13,5469" y="-199,578"/>
      <point x="-18,4219" y="-199,391"/>
      <point x="-23,375" y="-198,984" type="curve" smooth="yes"/>
      <point x="-42,2188" y="-197,734" type="line"/>
      <point x="-49,9062" y="-155,922" type="line" smooth="yes"/>
      <point x="-51,3594" y="-148,047"/>
      <point x="-56,6406" y="-120,484"/>
      <point x="-56,9688" y="-116,531" type="curve" smooth="yes"/>
      <point x="-56,9844" y="-116,484"/>
      <point x="-57,1094" y="-116,141"/>
      <point x="-57" y="-116" type="curve" smooth="yes"/>
      <point x="-55,5469" y="-114,047"/>
      <point x="-56,8906" y="-111,734"/>
      <point x="-51,8594" y="-110,25" type="curve" smooth="yes"/>
      <point x="-49,6094" y="-109,578"/>
      <point x="-45,9219" y="-109"/>
      <point x="-40" y="-109" type="curve" smooth="yes"/>
      <point x="7,40625" y="-109"/>
      <point x="33,9844" y="-97,3906"/>
      <point x="45,5469" y="-74,7344" type="curve" smooth="yes"/>
      <point x="55,9219" y="-54,4062"/>
      <point x="55,9375" y="-62,4375"/>
    </contour>
    <contour>
      <point x="141" y="-196" type="line"/>
      <point x="131" y="-196" type="line"/>
      <point x="131" y="-96" type="line"/>
      <point x="141" y="-96" type="line"/>
    </contour>
    <contour>
      <point x="-18" y="-294" type="line"/>
      <point x="-28" y="-294" type="line"/>
      <point x="-28" y="-194" type="line"/>
      <point x="-18" y="-194" type="line"/>
    </contour>
    <contour>
      <point x="-33" y="-293" type="line"/>
      <point x="-43" y="-293" type="line"/>
      <point x="-43" y="-193" type="line"/>
      <point x="-33" y="-193" type="line"/>
    </contour>
    <contour>
      <point x="-40" y="-255" type="line"/>
      <point x="-50" y="-255" type="line"/>
      <point x="-50" y="-155" type="line"/>
      <point x="-40" y="-155" type="line"/>
    </contour>
    <contour>
      <point x="-47" y="-216" type="line" smooth="yes"/>
      <point x="-47" y="-216,844"/>
      <point x="-47,2812" y="-216,328"/>
      <point x="-40,0938" y="-254,078" type="curve" smooth="yes"/>
      <point x="-33,7812" y="-288,266" type="line"/>
      <point x="-22,625" y="-289,016" type="line" smooth="yes"/>
      <point x="-17,9531" y="-289,391"/>
      <point x="-13,2812" y="-289,578"/>
      <point x="-8,6875" y="-289,578" type="curve" smooth="yes"/>
      <point x="57,625" y="-289,578"/>
      <point x="114,859" y="-250,906"/>
      <point x="131,203" y="-194,594" type="curve" smooth="yes"/>
      <point x="141,688" y="-158,484"/>
      <point x="142,094" y="-156,266"/>
      <point x="143" y="170" type="curve" smooth="yes"/>
      <point x="143,094" y="203,344"/>
      <point x="143" y="236,672"/>
      <point x="143" y="270" type="curve"/>
      <point x="153" y="270" type="line"/>
      <point x="153" y="236,672"/>
      <point x="153,094" y="203,328"/>
      <point x="153" y="170" type="curve" smooth="yes"/>
      <point x="152,094" y="-155,734"/>
      <point x="151,828" y="-159,375"/>
      <point x="140,797" y="-197,406" type="curve" smooth="yes"/>
      <point x="123" y="-258,766"/>
      <point x="61,375" y="-299,578"/>
      <point x="-8,6875" y="-299,578" type="curve" smooth="yes"/>
      <point x="-13,5469" y="-299,578"/>
      <point x="-18,4219" y="-299,344"/>
      <point x="-23,375" y="-298,984" type="curve" smooth="yes"/>
      <point x="-28,3594" y="-298,625"/>
      <point x="-33,3281" y="-298,328"/>
      <point x="-38,3281" y="-297,984" type="curve" smooth="yes"/>
      <point x="-42,2188" y="-297,734" type="line"/>
      <point x="-42,9219" y="-293,906" type="line" smooth="yes"/>
      <point x="-45,25" y="-281,234"/>
      <point x="-47,5312" y="-268,578"/>
      <point x="-49,9062" y="-255,922" type="curve" smooth="yes"/>
      <point x="-53,2188" y="-238,344"/>
      <point x="-57" y="-218,953"/>
      <point x="-57" y="-216" type="curve" smooth="yes"/>
      <point x="-57" y="-116" type="line"/>
      <point x="-47" y="-116" type="line"/>
    </contour>
  </outline>
</glyph>
<glyph name="uni004B" format="1">
  <advance width="558"/>
  <unicode hex="004B"/>
  <outline>
    <contour>
      <point x="60" y="-5" type="line"/>
      <point x="60" y="582" type="line"/>
      <point x="156" y="582" type="line"/>
      <point x="156" y="447,016" type="line"/>
      <point x="156,906" y="329,766" type="line"/>
      <point x="267,312" y="450,391" type="line"/>
      <point x="388,812" y="582" type="line"/>
      <point x="443" y="582" type="line" smooth="yes"/>
      <point x="478,047" y="581,953"/>
      <point x="491,547" y="580,781"/>
      <point x="494,781" y="579,922" type="curve" smooth="yes"/>
      <point x="497,312" y="579,25"/>
      <point x="500,047" y="577,625"/>
      <point x="500,047" y="574,172" type="curve" smooth="yes"/>
      <point x="500,047" y="573,688"/>
      <point x="499,688" y="572,188"/>
      <point x="499,469" y="571,766" type="curve" smooth="yes"/>
      <point x="499,109" y="571,031" type="line"/>
      <point x="498,531" y="570,469" type="line" smooth="yes"/>
      <point x="497,938" y="569,875"/>
      <point x="454,047" y="522,078"/>
      <point x="373,688" y="434,625" type="curve" smooth="yes"/>
      <point x="253,906" y="303,156" type="line"/>
      <point x="268,453" y="288,625" type="line" smooth="yes"/>
      <point x="279,672" y="278,422"/>
      <point x="344,438" y="215,641"/>
      <point x="413,484" y="147,578" type="curve"/>
      <point x="551,5" y="14,5625" type="line"/>
      <point x="571,078" y="-5" type="line"/>
      <point x="438,984" y="-5" type="line"/>
      <point x="292,516" y="136,406" type="line"/>
      <point x="156,922" y="268,25" type="line"/>
      <point x="156" y="139,984" type="line"/>
      <point x="156" y="-5" type="line"/>
    </contour>
    <contour>
      <point x="375" y="338" type="line"/>
      <point x="365" y="338" type="line"/>
      <point x="365" y="438" type="line"/>
      <point x="375" y="438" type="line"/>
    </contour>
    <contour>
      <point x="505" y="-100" type="line"/>
      <point x="495" y="-100" type="line"/>
      <point x="495" y="0" type="line"/>
      <point x="505" y="0" type="line"/>
    </contour>
    <contour>
      <point x="446" y="-100" type="line"/>
      <point x="436" y="-100" type="line"/>
      <point x="436" y="0" type="line"/>
      <point x="446" y="0" type="line"/>
    </contour>
    <contour>
      <point x="301" y="40" type="line"/>
      <point x="291" y="40" type="line"/>
      <point x="291" y="140" type="line"/>
      <point x="301" y="140" type="line"/>
    </contour>
    <contour>
      <point x="113" y="-100" type="line"/>
      <point x="103" y="-100" type="line"/>
      <point x="103" y="0" type="line"/>
      <point x="113" y="0" type="line"/>
    </contour>
    <contour>
      <point x="70" y="-95" type="line"/>
      <point x="146" y="-95" type="line"/>
      <point x="146" y="0" type="line"/>
      <point x="156" y="0" type="line"/>
      <point x="156" y="-100" type="line" smooth="yes"/>
      <point x="156" y="-105" type="line"/>
      <point x="151" y="-105" type="line" smooth="yes"/>
      <point x="108" y="-105" type="line" smooth="yes"/>
      <point x="65" y="-105" type="line" smooth="yes"/>
      <point x="60" y="-105" type="line"/>
      <point x="60" y="-100" type="line" smooth="yes"/>
      <point x="60" y="0" type="line"/>
      <point x="70" y="0" type="line"/>
    </contour>
    <contour>
      <point x="157" y="182,109" type="line"/>
      <point x="299,484" y="43,5938" type="line"/>
      <point x="443,016" y="-95" type="line"/>
      <point x="554" y="-95" type="line"/>
      <point x="554" y="0" type="line"/>
      <point x="564" y="0" type="line"/>
      <point x="564" y="-100" type="line" smooth="yes"/>
      <point x="564" y="-105" type="line"/>
      <point x="559" y="-105" type="line" smooth="yes"/>
      <point x="500" y="-105" type="line" smooth="yes"/>
      <point x="441" y="-105" type="line" smooth="yes"/>
      <point x="438,984" y="-105" type="line"/>
      <point x="437,531" y="-103,594" type="line" smooth="yes"/>
      <point x="389,188" y="-56,9375"/>
      <point x="340,781" y="-10,3438"/>
      <point x="292,516" y="36,4062" type="curve" smooth="yes"/>
      <point x="244,438" y="83"/>
      <point x="196,516" y="129,75"/>
      <point x="148,516" y="176,422" type="curve" smooth="yes"/>
      <point x="147" y="177,891" type="line"/>
      <point x="147" y="180" type="line" smooth="yes"/>
      <point x="147" y="280" type="line"/>
      <point x="157" y="280" type="line"/>
    </contour>
    <contour>
      <point x="366,312" y="341,375" type="line"/>
      <point x="490" y="475,984" type="line"/>
      <point x="490" y="574" type="line"/>
      <point x="500" y="574" type="line"/>
      <point x="500" y="474" type="line" smooth="yes"/>
      <point x="500" y="471,922" type="line"/>
      <point x="498,531" y="470,469" type="line" smooth="yes"/>
      <point x="498,547" y="470,469"/>
      <point x="498,578" y="470,5"/>
      <point x="498,578" y="470,5" type="curve" smooth="yes"/>
      <point x="496,328" y="468,188"/>
      <point x="443,734" y="410,859"/>
      <point x="373,688" y="334,625" type="curve" smooth="yes"/>
      <point x="299,016" y="252,672" type="line"/>
      <point x="291,625" y="259,406" type="line"/>
    </contour>
  </outline>
</glyph>
<glyph name="uni004C" format="1">
  <advance width="415"/>
  <unicode hex="004C"/>
  <outline>
    <contour>
      <point x="59" y="-5" type="line"/>
      <point x="59" y="582" type="line"/>
      <point x="155" y="582" type="line"/>
      <point x="155" y="82" type="line"/>
      <point x="412" y="82" type="line"/>
      <point x="412" y="-5" type="line"/>
    </contour>
    <contour>
      <point x="240" y="-100" type="line"/>
      <point x="230" y="-100" type="line"/>
      <point x="230" y="0" type="line"/>
      <point x="240" y="0" type="line"/>
    </contour>
    <contour>
      <point x="69" y="-95" type="line"/>
      <point x="402" y="-95" type="line"/>
      <point x="402" y="0" type="line"/>
      <point x="412" y="0" type="line"/>
      <point x="412" y="-100" type="line" smooth="yes"/>
      <point x="412" y="-105" type="line"/>
      <point x="407" y="-105" type="line" smooth="yes"/>
      <point x="235" y="-105" type="line" smooth="yes"/>
      <point x="59" y="-105" type="line"/>
      <point x="59" y="-100" type="line" smooth="yes"/>
      <point x="59" y="0" type="line"/>
      <point x="69" y="0" type="line"/>
    </contour>
  </outline>
</glyph>
<glyph name="uni004E" format="1">
  <advance width="660"/>
  <unicode hex="004E"/>
  <outline>
    <contour>
      <point x="61" y="-5" type="line"/>
      <point x="61" y="582" type="line"/>
      <point x="136,281" y="582" type="line"/>
      <point x="513,062" y="148,312" type="line"/>
      <point x="514" y="356,016" type="line"/>
      <point x="514" y="582" type="line"/>
      <point x="606" y="582" type="line"/>
      <point x="606" y="-5" type="line"/>
      <point x="523,719" y="-5" type="line"/>
      <point x="151" y="424,609" type="line"/>
      <point x="151" y="218,984" type="line"/>
      <point x="149,984" y="-5" type="line"/>
    </contour>
    <contour>
      <point x="568" y="-100" type="line"/>
      <point x="558" y="-100" type="line"/>
      <point x="558" y="0" type="line"/>
      <point x="568" y="0" type="line"/>
    </contour>
    <contour>
      <point x="531" y="-100" type="line"/>
      <point x="521" y="-100" type="line"/>
      <point x="521" y="0" type="line"/>
      <point x="531" y="0" type="line"/>
    </contour>
    <contour>
      <point x="111" y="-100" type="line"/>
      <point x="101" y="-100" type="line"/>
      <point x="101" y="0" type="line"/>
      <point x="111" y="0" type="line"/>
    </contour>
    <contour>
      <point x="71" y="-95" type="line"/>
      <point x="140" y="-95" type="line"/>
      <point x="140" y="0" type="line"/>
      <point x="150" y="0" type="line"/>
      <point x="150" y="-100" type="line" smooth="yes"/>
      <point x="150" y="-105" type="line"/>
      <point x="106" y="-105" type="line" smooth="yes"/>
      <point x="66" y="-105" type="line" smooth="yes"/>
      <point x="61" y="-105" type="line"/>
      <point x="61" y="-100" type="line" smooth="yes"/>
      <point x="61" y="0" type="line"/>
      <point x="71" y="0" type="line"/>
    </contour>
    <contour>
      <point x="151" y="338" type="line"/>
      <point x="141" y="338" type="line"/>
      <point x="141" y="438" type="line"/>
      <point x="151" y="438" type="line"/>
    </contour>
    <contour>
      <point x="341" y="120,859" type="line"/>
      <point x="528,281" y="-95" type="line"/>
      <point x="596" y="-95" type="line"/>
      <point x="596" y="0" type="line"/>
      <point x="606" y="0" type="line"/>
      <point x="606" y="-100" type="line" smooth="yes"/>
      <point x="606" y="-105" type="line"/>
      <point x="601" y="-105" type="line" smooth="yes"/>
      <point x="563" y="-105" type="line" smooth="yes"/>
      <point x="526" y="-105" type="line" smooth="yes"/>
      <point x="523,719" y="-105" type="line"/>
      <point x="522,219" y="-103,281" type="line" smooth="yes"/>
      <point x="458,891" y="-30,2812"/>
      <point x="395,562" y="42,7188"/>
      <point x="332,219" y="115,719" type="curve" smooth="yes"/>
      <point x="331" y="117,141" type="line"/>
      <point x="331" y="119" type="line" smooth="yes"/>
      <point x="331" y="219" type="line"/>
      <point x="341" y="219" type="line"/>
    </contour>
  </outline>
</glyph>
<glyph name="uni004F" format="1">
  <advance width="693"/>
  <unicode hex="004F"/>
  <outline>
    <contour>
      <point x="180,875" y="30,346" type="curve"/>
      <point x="180,875" y="-58,3362" type="line"/>
      <point x="90,0956" y="-9,17109"/>
      <point x="39,4062" y="88,9028"/>
      <point x="39,4062" y="190,525" type="curve" smooth="yes"/>
      <point x="39,4062" y="211,843" type="line"/>
      <point x="59,1988" y="135,494"/>
      <point x="107,866" y="68,0082"/>
    </contour>
    <contour>
      <point x="190,299" y="25,9124" type="curve"/>
      <point x="237,443" y="5,2688"/>
      <point x="289,549" y="-1,1326"/>
      <point x="341,312" y="-7,41211" type="curve"/>
      <point x="430,406" y="-7,41211"/>
      <point x="518,594" y="24,1973"/>
      <point x="577,438" y="83,9004" type="curve" smooth="yes"/>
      <point x="612,249" y="119,228"/>
      <point x="635,775" y="162,349"/>
      <point x="648,031" y="208,585" type="curve"/>
      <point x="648,031" y="186,057" type="line" smooth="yes"/>
      <point x="648,031" y="113,963"/>
      <point x="622,092" y="43,4804"/>
      <point x="570,312" y="-9,06836" type="curve" smooth="yes"/>
      <point x="513,748" y="-66,4726"/>
      <point x="428,078" y="-97,4121"/>
      <point x="341,312" y="-97,4121" type="curve"/>
      <point x="291,422" y="-102,737"/>
      <point x="240,5" y="-94,9749"/>
      <point x="190,757" y="-63,7883" type="curve"/>
      <point x="189,465" y="-33,0604"/>
      <point x="188,276" y="-3,94678"/>
    </contour>
    <contour>
      <point x="578,875" y="-12,584" type="line"/>
      <point x="578,875" y="87,416" type="line"/>
      <point x="568,875" y="87,416" type="line"/>
      <point x="568,875" y="-12,584" type="line"/>
    </contour>
    <contour>
      <point x="569,875" y="262,791" type="line"/>
      <point x="569,875" y="318,416" type="line"/>
      <point x="559,875" y="318,416" type="line"/>
      <point x="559,875" y="262,791" type="line"/>
    </contour>
    <contour>
      <point x="171,875" y="323,416" type="line"/>
      <point x="171,992" y="328,492"/>
      <point x="172,185" y="333,453"/>
      <point x="172,409" y="338,376" type="curve"/>
      <point x="168,996" y="334,493"/>
      <point x="165,791" y="330,479"/>
      <point x="162,812" y="326,338" type="curve" smooth="yes"/>
      <point x="161,875" y="325,025" type="line"/>
      <point x="161,875" y="323,416" type="line"/>
    </contour>
    <contour>
      <point x="405,875" y="398,416" type="line"/>
      <point x="405,875" y="402,245" type="line"/>
      <point x="402,172" y="403,244" type="line" smooth="yes"/>
      <point x="400,082" y="403,793"/>
      <point x="397,983" y="404,313"/>
      <point x="395,875" y="404,802" type="curve"/>
      <point x="395,875" y="398,416" type="line"/>
    </contour>
    <contour>
      <point x="161,875" y="325,025" type="line"/>
      <point x="147,611" y="304,91"/>
      <point x="136,746" y="283,339"/>
      <point x="129,347" y="261,034" type="curve"/>
      <point x="128,167" y="270,168"/>
      <point x="127,578" y="279,364"/>
      <point x="127,578" y="288,572" type="curve" smooth="yes"/>
      <point x="127,578" y="329,302"/>
      <point x="139,078" y="370,227"/>
      <point x="161,875" y="406,95" type="curve"/>
    </contour>
    <contour>
      <point x="555,038" y="240,038" type="curve"/>
      <point x="543,995" y="198,353"/>
      <point x="520,623" y="157,727"/>
      <point x="489,625" y="131,213" type="curve" smooth="yes"/>
      <point x="448,609" y="96,1348"/>
      <point x="396,078" y="79,7285"/>
      <point x="344,156" y="79,7285" type="curve" smooth="yes"/>
      <point x="269,422" y="79,7285"/>
      <point x="196,084" y="114,326"/>
      <point x="158,172" y="177,979" type="curve" smooth="yes"/>
      <point x="146,687" y="197,262"/>
      <point x="138,443" y="217,736"/>
      <point x="133,427" y="238,769" type="curve"/>
      <point x="140,152" y="267,359"/>
      <point x="152,69" y="295,132"/>
      <point x="170,938" y="320,494" type="curve" smooth="yes"/>
      <point x="205,93" y="369,129"/>
      <point x="276,781" y="400,619"/>
      <point x="345,375" y="400,619" type="curve" smooth="yes"/>
      <point x="363,875" y="400,619"/>
      <point x="382,172" y="398,166"/>
      <point x="399,578" y="393,588" type="curve" smooth="yes"/>
      <point x="481,935" y="371,918"/>
      <point x="534,073" y="320,525"/>
    </contour>
    <contour>
      <point x="555,038" y="240,038" type="curve"/>
      <point x="555,359" y="238,769" type="line"/>
      <point x="565,047" y="241,275" type="line"/>
      <point x="563,373" y="247,824"/>
      <point x="561,498" y="254,196"/>
      <point x="559,424" y="260,39" type="curve"/>
      <point x="558,301" y="253,615"/>
      <point x="556,832" y="246,813"/>
    </contour>
    <contour>
      <point x="129,347" y="261,034" type="curve"/>
      <point x="127,025" y="254,033"/>
      <point x="125,044" y="246,961"/>
      <point x="123,406" y="239,838" type="curve"/>
      <point x="133,156" y="237,604" type="line"/>
      <point x="133,427" y="238,769" type="line"/>
      <point x="131,672" y="246,131"/>
      <point x="130,312" y="253,562"/>
    </contour>
    <contour>
      <point x="161,875" y="406,95" type="line"/>
      <point x="164,72" y="411,533"/>
      <point x="167,741" y="416,051"/>
      <point x="170,938" y="420,494" type="curve" smooth="yes"/>
      <point x="172,025" y="421,984" type="line"/>
      <point x="171,875" y="423,416" type="line"/>
      <point x="161,875" y="423,416" type="line"/>
    </contour>
    <contour>
      <point x="395,875" y="494,529" type="line"/>
      <point x="399,578" y="493,588" type="line"/>
      <point x="405,875" y="491,854" type="line"/>
      <point x="405,875" y="498,416" type="line"/>
      <point x="395,875" y="498,416" type="line"/>
    </contour>
    <contour>
      <point x="314,422" y="590,4" type="curve" smooth="yes"/>
      <point x="222,047" y="582,229"/>
      <point x="133,832" y="535,929"/>
      <point x="87,8281" y="472,354" type="curve" smooth="yes"/>
      <point x="48,0503" y="417,382"/>
      <point x="29,4062" y="353,307"/>
      <point x="29,4062" y="290,525" type="curve" smooth="yes"/>
      <point x="29,4062" y="190,525" type="line" smooth="yes"/>
      <point x="29,4062" y="82,9004"/>
      <point x="84,5" y="-21,3496"/>
      <point x="183,625" y="-71,0527" type="curve" smooth="yes"/>
      <point x="232,5" y="-95,5527"/>
      <point x="287,094" y="-107,412"/>
      <point x="341,312" y="-107,412" type="curve" smooth="yes"/>
      <point x="430,406" y="-107,412"/>
      <point x="518,594" y="-75,8027"/>
      <point x="577,438" y="-16,0996" type="curve" smooth="yes"/>
      <point x="631,188" y="38,4473"/>
      <point x="658,031" y="111,572"/>
      <point x="658,031" y="186,057" type="curve" smooth="yes"/>
      <point x="658,031" y="286,057" type="line" smooth="yes"/>
      <point x="658,031" y="357,322"/>
      <point x="633,062" y="429,744"/>
      <point x="583,734" y="489,604" type="curve" smooth="yes"/>
      <point x="533,719" y="550,275"/>
      <point x="431,734" y="591,604"/>
      <point x="340,875" y="591,604" type="curve" smooth="yes"/>
      <point x="331,938" y="591,604"/>
      <point x="323,125" y="591,166"/>
    </contour>
    <contour>
      <point x="172,409" y="338,376" type="curve"/>
      <point x="173,559" y="363,694"/>
      <point x="175,509" y="388,016"/>
      <point x="172,025" y="421,984" type="curve"/>
      <point x="207,378" y="469,774"/>
      <point x="277,484" y="500,619"/>
      <point x="345,375" y="500,619" type="curve" smooth="yes"/>
      <point x="362,568" y="500,619"/>
      <point x="379,585" y="498,513"/>
      <point x="395,875" y="494,529" type="curve"/>
      <point x="395,875" y="404,802" type="line"/>
      <point x="379,448" y="408,619"/>
      <point x="362,491" y="410,619"/>
      <point x="345,375" y="410,619" type="curve" smooth="yes"/>
      <point x="279,51" y="410,619"/>
      <point x="211,976" y="383,381"/>
    </contour>
    <contour>
      <point x="405,875" y="402,245" type="curve"/>
      <point x="405,875" y="491,854" type="line"/>
      <point x="466,147" y="474,539"/>
      <point x="539,424" y="432,551"/>
      <point x="559,953" y="317,557" type="curve" smooth="yes"/>
      <point x="561,438" y="309,197"/>
      <point x="562,078" y="300,479"/>
      <point x="562,078" y="291,541" type="curve" smooth="yes"/>
      <point x="562,078" y="281,365"/>
      <point x="561,168" y="270,911"/>
      <point x="559,424" y="260,39" type="curve"/>
      <point x="535,225" y="332,654"/>
      <point x="483,84" y="380,672"/>
    </contour>
  </outline>
</glyph>
<glyph name="uni0053" format="1">
  <advance width="387"/>
  <unicode hex="0053"/>
  <outline>
    <contour>
      <point x="159,859" y="583,875" type="curve" smooth="yes"/>
      <point x="172,094" y="586,719"/>
      <point x="185,812" y="588,062"/>
      <point x="200,281" y="588,062" type="curve" smooth="yes"/>
      <point x="243,672" y="588,062"/>
      <point x="293,641" y="576,25"/>
      <point x="328,484" y="555,344" type="curve"/>
      <point x="341,938" y="548" type="line"/>
      <point x="343" y="497,047" type="line" smooth="yes"/>
      <point x="343" y="477,953"/>
      <point x="342,953" y="453,906"/>
      <point x="342,281" y="449,266" type="curve" smooth="yes"/>
      <point x="341,578" y="444,531"/>
      <point x="338,062" y="444"/>
      <point x="337" y="444" type="curve" smooth="yes"/>
      <point x="337" y="444"/>
      <point x="334,516" y="444,562"/>
      <point x="334,266" y="444,672" type="curve" smooth="yes"/>
      <point x="331,766" y="445,891"/>
      <point x="326,25" y="450,438"/>
      <point x="322,891" y="453,078" type="curve" smooth="yes"/>
      <point x="309,328" y="463,781"/>
      <point x="284,078" y="479,422"/>
      <point x="268,016" y="486,406" type="curve" smooth="yes"/>
      <point x="244,25" y="496,75"/>
      <point x="221,547" y="501,719"/>
      <point x="201,234" y="501,719" type="curve" smooth="yes"/>
      <point x="151,516" y="501,719"/>
      <point x="117,703" y="474,609"/>
      <point x="117,703" y="441,891" type="curve" smooth="yes"/>
      <point x="117,703" y="425,25"/>
      <point x="126,312" y="406,125"/>
      <point x="147,391" y="386,672" type="curve" smooth="yes"/>
      <point x="161,938" y="373,25"/>
      <point x="182,328" y="358,828"/>
      <point x="233,562" y="328,297" type="curve" smooth="yes"/>
      <point x="319,781" y="276,891"/>
      <point x="365,281" y="216"/>
      <point x="365,281" y="148,328" type="curve" smooth="yes"/>
      <point x="365,281" y="127,656"/>
      <point x="361,203" y="106,469"/>
      <point x="352,641" y="85,1562" type="curve" smooth="yes"/>
      <point x="327,438" y="22,3438"/>
      <point x="263,266" y="-11,3438"/>
      <point x="191,219" y="-11,3438" type="curve" smooth="yes"/>
      <point x="145,281" y="-11,3438"/>
      <point x="95,8906" y="2,29688"/>
      <point x="50,3438" y="30,7656" type="curve" smooth="yes"/>
      <point x="32" y="42,2344" type="line"/>
      <point x="32" y="164,672" type="line"/>
      <point x="61,4531" y="136,609" type="line" smooth="yes"/>
      <point x="105,5" y="94,6719"/>
      <point x="154,578" y="73,0781"/>
      <point x="194,891" y="73,0781" type="curve" smooth="yes"/>
      <point x="239,703" y="73,0781"/>
      <point x="260,828" y="98,3125"/>
      <point x="269,547" y="115,281" type="curve" smooth="yes"/>
      <point x="274,094" y="124,094"/>
      <point x="276,141" y="132,766"/>
      <point x="276,141" y="141,484" type="curve" smooth="yes"/>
      <point x="276,141" y="174,844"/>
      <point x="243,75" y="212,188"/>
      <point x="166,422" y="258,719" type="curve" smooth="yes"/>
      <point x="67,0469" y="318,516"/>
      <point x="29,5312" y="361,953"/>
      <point x="29,5312" y="425,516" type="curve" smooth="yes"/>
      <point x="29,5312" y="429,719"/>
      <point x="29,7188" y="433,984"/>
      <point x="30,0156" y="438,344" type="curve" smooth="yes"/>
      <point x="35,1719" y="514,281"/>
      <point x="80,375" y="565,281"/>
    </contour>
    <contour>
      <point x="331" y="357" type="line"/>
      <point x="321" y="357" type="line"/>
      <point x="321" y="457" type="line"/>
      <point x="331" y="457" type="line"/>
    </contour>
    <contour>
      <point x="275" y="391" type="line"/>
      <point x="265" y="391" type="line"/>
      <point x="265" y="491" type="line"/>
      <point x="275" y="491" type="line"/>
    </contour>
    <contour>
      <point x="353" y="-13" type="line"/>
      <point x="343" y="-13" type="line"/>
      <point x="343" y="87" type="line"/>
      <point x="353" y="87" type="line"/>
    </contour>
    <contour>
      <point x="58" y="-65" type="line"/>
      <point x="48" y="-65" type="line"/>
      <point x="48" y="35" type="line"/>
      <point x="58" y="35" type="line"/>
    </contour>
    <contour>
      <point x="174" y="163" type="line"/>
      <point x="164" y="163" type="line"/>
      <point x="164" y="263" type="line"/>
      <point x="174" y="263" type="line"/>
    </contour>
    <contour>
      <point x="39,5312" y="325,516" type="line" smooth="yes"/>
      <point x="39,5312" y="266,906"/>
      <point x="74,1562" y="225,859"/>
      <point x="171,578" y="167,281" type="curve" smooth="yes"/>
      <point x="214,016" y="141,766"/>
      <point x="244,156" y="118,344"/>
      <point x="263" y="95,7812" type="curve"/>
      <point x="255,328" y="89,375" type="line"/>
      <point x="237,688" y="110,484"/>
      <point x="208,344" y="133,516"/>
      <point x="166,422" y="158,719" type="curve" smooth="yes"/>
      <point x="67,0312" y="218,484"/>
      <point x="29,5312" y="261,953"/>
      <point x="29,5312" y="325,516" type="curve" smooth="yes"/>
      <point x="29,5312" y="425,516" type="line"/>
      <point x="39,5312" y="425,516" type="line"/>
    </contour>
    <contour>
      <point x="42" y="-52,2344" type="line"/>
      <point x="55,6562" y="-60,7656" type="line" smooth="yes"/>
      <point x="99,625" y="-88,2812"/>
      <point x="147,266" y="-101,344"/>
      <point x="191,219" y="-101,344" type="curve" smooth="yes"/>
      <point x="260,344" y="-101,344"/>
      <point x="319,969" y="-69,4219"/>
      <point x="343,359" y="-11,1562" type="curve" smooth="yes"/>
      <point x="351,5" y="9,15625"/>
      <point x="355,281" y="29,0312"/>
      <point x="355,281" y="48,3281" type="curve" smooth="yes"/>
      <point x="355,281" y="148,328" type="line"/>
      <point x="365,281" y="148,328" type="line"/>
      <point x="365,281" y="48,3281" type="line" smooth="yes"/>
      <point x="365,281" y="27,6562"/>
      <point x="361,203" y="6,46875"/>
      <point x="352,641" y="-14,8438" type="curve" smooth="yes"/>
      <point x="327,438" y="-77,6562"/>
      <point x="263,266" y="-111,344"/>
      <point x="191,219" y="-111,344" type="curve" smooth="yes"/>
      <point x="145,281" y="-111,344"/>
      <point x="95,875" y="-97,7344"/>
      <point x="50,3438" y="-69,2344" type="curve" smooth="yes"/>
      <point x="45,0156" y="-65,9062"/>
      <point x="39,6875" y="-62,5781"/>
      <point x="34,3438" y="-59,2344" type="curve" smooth="yes"/>
      <point x="32" y="-57,7656" type="line"/>
      <point x="32" y="-55" type="line" smooth="yes"/>
      <point x="32" y="45" type="line"/>
      <point x="42" y="45" type="line"/>
    </contour>
    <contour>
      <point x="201,234" y="411,719" type="curve" smooth="yes"/>
      <point x="223,062" y="411,719"/>
      <point x="246,984" y="406,453"/>
      <point x="271,984" y="395,594" type="curve" smooth="yes"/>
      <point x="289,641" y="387,906"/>
      <point x="314,688" y="372,25"/>
      <point x="329,109" y="360,922" type="curve" smooth="yes"/>
      <point x="332" y="358,609" type="line"/>
      <point x="332" y="449" type="line"/>
      <point x="342" y="449" type="line"/>
      <point x="342" y="349" type="line" smooth="yes"/>
      <point x="342" y="344" type="line"/>
      <point x="337" y="344" type="line" smooth="yes"/>
      <point x="335,906" y="344"/>
      <point x="335,016" y="344,312"/>
      <point x="334,266" y="344,672" type="curve" smooth="yes"/>
      <point x="331,766" y="345,891"/>
      <point x="326,25" y="350,438"/>
      <point x="322,891" y="353,078" type="curve" smooth="yes"/>
      <point x="309,328" y="363,781"/>
      <point x="284,078" y="379,422"/>
      <point x="268,016" y="386,406" type="curve" smooth="yes"/>
      <point x="244,25" y="396,75"/>
      <point x="221,547" y="401,719"/>
      <point x="201,234" y="401,719" type="curve" smooth="yes"/>
      <point x="176,812" y="401,719"/>
      <point x="155,938" y="395,031"/>
      <point x="141,281" y="384,406" type="curve"/>
      <point x="135,406" y="392,5" type="line"/>
      <point x="152,094" y="404,609"/>
      <point x="175" y="411,719"/>
    </contour>
  </outline>
</glyph>
<glyph name="uni0054" format="1">
  <advance width="513"/>
  <unicode hex="0054"/>
  <outline>
    <contour>
      <point x="10" y="497" type="line"/>
      <point x="10" y="582" type="line"/>
      <point x="504" y="582" type="line"/>
      <point x="504" y="497" type="line"/>
      <point x="303" y="497" type="line"/>
      <point x="303" y="-5" type="line"/>
      <point x="208" y="-5" type="line"/>
      <point x="208" y="497" type="line"/>
    </contour>
    <contour>
      <point x="260" y="-100" type="line"/>
      <point x="250" y="-100" type="line"/>
      <point x="250" y="0" type="line"/>
      <point x="260" y="0" type="line"/>
    </contour>
    <contour>
      <point x="119" y="402" type="line"/>
      <point x="109" y="402" type="line"/>
      <point x="109" y="502" type="line"/>
      <point x="119" y="502" type="line"/>
    </contour>
    <contour>
      <point x="20" y="407" type="line"/>
      <point x="213" y="407" type="line"/>
      <point x="213" y="397" type="line"/>
      <point x="15" y="397" type="line" smooth="yes"/>
      <point x="10" y="397" type="line"/>
      <point x="10" y="402" type="line" smooth="yes"/>
      <point x="10" y="502" type="line"/>
      <point x="20" y="502" type="line"/>
    </contour>
    <contour>
      <point x="218" y="-95" type="line"/>
      <point x="293" y="-95" type="line"/>
      <point x="293" y="0" type="line"/>
      <point x="303" y="0" type="line"/>
      <point x="303" y="-100" type="line" smooth="yes"/>
      <point x="303" y="-105" type="line"/>
      <point x="298" y="-105" type="line" smooth="yes"/>
      <point x="255" y="-105" type="line" smooth="yes"/>
      <point x="208" y="-105" type="line"/>
      <point x="208" y="-100" type="line" smooth="yes"/>
      <point x="208" y="0" type="line"/>
      <point x="218" y="0" type="line"/>
    </contour>
    <contour>
      <point x="303" y="402" type="line"/>
      <point x="293" y="402" type="line"/>
      <point x="293" y="502" type="line"/>
      <point x="303" y="502" type="line"/>
    </contour>
    <contour>
      <point x="403" y="407" type="line"/>
      <point x="494" y="407" type="line"/>
      <point x="494" y="502" type="line"/>
      <point x="504" y="502" type="line"/>
      <point x="504" y="402" type="line" smooth="yes"/>
      <point x="504" y="397" type="line"/>
      <point x="499" y="397" type="line" smooth="yes"/>
      <point x="398" y="397" type="line" smooth="yes"/>
      <point x="393" y="397" type="line"/>
      <point x="393" y="402" type="line" smooth="yes"/>
      <point x="393" y="502" type="line"/>
      <point x="403" y="502" type="line"/>
    </contour>
  </outline>
</glyph>
<glyph name="uni0055" format="1">
  <advance width="599"/>
  <unicode hex="0055"/>
  <outline>
    <contour>
      <point x="47,9688" y="385,969" type="curve" smooth="yes"/>
      <point x="46,9375" y="582" type="line"/>
      <point x="142,969" y="582" type="line"/>
      <point x="142,969" y="400" type="line" smooth="yes"/>
      <point x="142,969" y="166,297"/>
      <point x="144,985" y="154,875"/>
      <point x="174,672" y="121,359" type="curve"/>
      <point x="204,391" y="89,3125"/>
      <point x="252,047" y="73,0781"/>
      <point x="300,11" y="73,0781" type="curve" smooth="yes"/>
      <point x="351,344" y="73,0781"/>
      <point x="402,812" y="91,2188"/>
      <point x="432,094" y="127,156" type="curve" smooth="yes"/>
      <point x="458,422" y="159,484"/>
      <point x="458,969" y="165,297"/>
      <point x="459,969" y="391,031" type="curve" smooth="yes"/>
      <point x="461" y="582" type="line"/>
      <point x="555" y="582" type="line"/>
      <point x="553,969" y="381,969" type="line" smooth="yes"/>
      <point x="552,969" y="180,25"/>
      <point x="552,11" y="172,281"/>
      <point x="542,766" y="140,594" type="curve" smooth="yes"/>
      <point x="515,141" y="46,9844"/>
      <point x="421,5" y="-11"/>
      <point x="302,969" y="-11" type="curve" smooth="yes"/>
      <point x="190,688" y="-11"/>
      <point x="102,36" y="35,6094"/>
      <point x="68,375" y="114,016" type="curve" smooth="yes"/>
      <point x="48,9688" y="158,812"/>
      <point x="48,9688" y="165,453"/>
    </contour>
    <contour>
      <point x="542,969" y="42" type="line"/>
      <point x="532,969" y="42" type="line"/>
      <point x="532,969" y="142" type="line"/>
      <point x="542,969" y="142" type="line"/>
    </contour>
    <contour>
      <point x="307,969" y="-106" type="line"/>
      <point x="297,969" y="-106" type="line"/>
      <point x="297,969" y="-6" type="line"/>
      <point x="307,969" y="-6" type="line"/>
    </contour>
    <contour>
      <point x="77,9688" y="17,0469" type="line"/>
      <point x="110,235" y="-56,0156"/>
      <point x="193,719" y="-101"/>
      <point x="302,969" y="-101" type="curve" smooth="yes"/>
      <point x="418,438" y="-101"/>
      <point x="507,062" y="-45,0625"/>
      <point x="533,172" y="43,4062" type="curve" smooth="yes"/>
      <point x="542,094" y="73,6406"/>
      <point x="543,11" y="79,75"/>
      <point x="543,969" y="282,016" type="curve" smooth="yes"/>
      <point x="544,11" y="315,344"/>
      <point x="543,969" y="348,672"/>
      <point x="543,969" y="382" type="curve"/>
      <point x="553,969" y="382" type="line"/>
      <point x="553,969" y="348,672"/>
      <point x="554,11" y="315,312"/>
      <point x="553,969" y="281,984" type="curve" smooth="yes"/>
      <point x="553,11" y="80,25"/>
      <point x="552,11" y="72,2812"/>
      <point x="542,766" y="40,5938" type="curve" smooth="yes"/>
      <point x="515,141" y="-53,0156"/>
      <point x="421,5" y="-111"/>
      <point x="302,969" y="-111" type="curve" smooth="yes"/>
      <point x="190,688" y="-111"/>
      <point x="102,422" y="-64,375"/>
      <point x="68,375" y="14,0156" type="curve" smooth="yes"/>
      <point x="67,9688" y="14,9688" type="line"/>
      <point x="67,9688" y="16" type="line" smooth="yes"/>
      <point x="67,9688" y="116" type="line"/>
      <point x="77,9688" y="116" type="line"/>
    </contour>
  </outline>
</glyph>
